<svg fill="none" height="100%" width="100%" viewBox="0 0 1600 1080" xmlns:xlink="http://www.w3.org/1999/xlink" xmlns="http://www.w3.org/2000/svg"><g id="i0"><g transform="translate(789,563.727)"><animateTransform repeatCount="indefinite" type="translate" attributeName="transform" dur="6s" begin="0s" calcMode="spline" values="789 563.727; 789 559.727; 789 563.727; 789 563.727" keyTimes="0; 0.055556; 0.111111; 1" keySplines="0 0 1 1; 0 0 1 1; 0 0 1 1" fill="freeze" /><g transform="scale(-9.573,9.573) translate(-84.5,-56.5)"><g id="i1" transform="matrix(1,0,0,1,126.188,22.028)"><path fill="#446117" d="M42.062,-13.077C42.062,-13.077,42.062,16.56,42.062,16.56C42.062,16.56,-42.062,9.546,-42.062,9.546C-42.062,9.546,-41.111,9.45,-41.111,9.45C-41.115,9.348,-41.057,9.29,-40.987,9.29C-40.958,9.29,-40.932,9.302,-40.911,9.32C-40.895,9.241,-40.827,9.181,-40.743,9.181C-40.71,9.181,-40.677,9.194,-40.65,9.208C-40.621,9.123,-40.54,9.062,-40.445,9.062C-40.374,9.062,-40.311,9.098,-40.27,9.152C-40.228,9.098,-40.166,9.062,-40.094,9.062C-40.067,9.062,-40.035,9.069,-40.01,9.079C-39.971,8.964,-39.863,8.879,-39.734,8.879C-39.692,8.879,-39.649,8.891,-39.613,8.909C-39.561,8.824,-39.469,8.767,-39.366,8.767C-39.32,8.662,-39.241,8.578,-39.142,8.53C-39.144,8.254,-38.951,8.062,-38.717,8.062C-38.54,8.062,-38.389,8.169,-38.327,8.319C-38.26,8.281,-38.186,8.256,-38.107,8.256C-38.054,8.256,-38.006,8.269,-37.959,8.283C-37.845,8.144,-37.673,8.054,-37.476,8.054C-37.391,8.054,-37.308,8.071,-37.234,8.102C-37.126,7.908,-36.923,7.775,-36.685,7.775C-36.482,7.775,-36.307,7.87,-36.191,8.016C-35.984,8.012,-35.84,8.071,-35.726,8.171C-35.59,8.071,-35.42,8.012,-35.239,8.012C-35.069,8.012,-34.91,8.062,-34.779,8.148C-34.648,8.062,-34.489,8.012,-34.318,8.012C-34.251,8.012,-34.191,8.019,-34.128,8.035C-33.979,7.645,-33.605,7.367,-33.161,7.367C-32.971,7.367,-32.797,7.421,-32.643,7.511C-32.635,6.912,-32.172,6.449,-31.599,6.449C-31.383,6.449,-31.188,6.511,-31.021,6.624C-30.781,6.157,-30.298,5.835,-29.737,5.835C-29.685,5.835,-29.631,5.841,-29.583,5.846C-29.677,5.668,-29.737,5.471,-29.737,5.257C-29.737,4.572,-29.18,4.017,-28.495,4.017C-27.944,4.017,-27.484,4.376,-27.321,4.871C-27.191,4.827,-27.059,4.799,-26.915,4.799C-26.439,4.799,-26.031,5.07,-25.823,5.464C-25.584,5.297,-25.295,5.194,-24.982,5.194C-24.363,5.194,-23.834,5.589,-23.63,6.14C-23.468,6.075,-23.291,6.04,-23.107,6.04C-22.665,6.04,-22.272,6.24,-22.005,6.553C-21.733,6.357,-21.403,6.24,-21.041,6.24C-20.707,6.24,-20.397,6.34,-20.139,6.509C-20.139,5.894,-19.811,5.365,-19.324,5.077C-19.565,4.791,-19.71,4.42,-19.71,4.017C-19.71,3.176,-19.083,2.483,-18.271,2.381C-18.409,2.12,-18.49,1.822,-18.49,1.506C-18.49,0.485,-17.661,-0.346,-16.636,-0.346C-16.272,-0.346,-15.936,-0.239,-15.65,-0.059C-15.286,-0.306,-14.849,-0.451,-14.377,-0.451C-13.598,-0.451,-12.91,-0.056,-12.502,0.544C-12.269,0.452,-12.015,0.4,-11.751,0.4C-11.41,0.4,-11.087,0.485,-10.801,0.631C-10.389,0.178,-9.797,-0.11,-9.136,-0.11C-8.906,-0.11,-8.687,-0.075,-8.478,-0.01C-8.166,-0.884,-7.334,-1.511,-6.352,-1.511C-5.916,-1.511,-5.511,-1.386,-5.166,-1.17C-4.632,-1.548,-3.982,-1.772,-3.278,-1.772C-3.12,-1.772,-2.959,-1.757,-2.804,-1.734C-2.536,-2.798,-1.57,-3.591,-0.419,-3.591C0.825,-3.591,1.852,-2.666,2.018,-1.467C3.027,-1.467,3.909,-1.035,4.508,-0.346C4.947,-0.668,5.489,-0.857,6.074,-0.857C6.528,-0.857,6.949,-0.745,7.321,-0.548C7.289,-0.734,7.268,-0.929,7.268,-1.126C7.268,-2.911,8.695,-4.362,10.472,-4.402C10.352,-4.719,10.281,-5.059,10.281,-5.418C10.281,-7.004,11.568,-8.29,13.153,-8.29C13.609,-8.29,14.037,-8.18,14.421,-7.99C14.822,-9.351,16.077,-10.347,17.568,-10.347C17.634,-10.347,17.703,-10.338,17.77,-10.336C17.77,-12.044,19.147,-13.419,20.844,-13.419C22.012,-13.419,23.026,-12.772,23.548,-11.814C23.867,-11.916,24.208,-11.976,24.561,-11.976C25.657,-11.976,26.621,-11.438,27.216,-10.616C27.763,-11.025,28.438,-11.268,29.172,-11.268C30.297,-11.268,31.287,-10.703,31.877,-9.843C32.51,-10.705,33.53,-11.268,34.683,-11.268C35.039,-11.268,35.381,-11.213,35.706,-11.114C35.323,-11.674,35.097,-12.35,35.097,-13.077C35.097,-15.002,36.659,-16.56,38.581,-16.56C40.504,-16.56,42.062,-15.002,42.062,-13.077Z" /></g></g></g></g><g transform="matrix(-9.545,0,0,9.545,1601.715,23.051)" id="i2"><g id="i1" transform="matrix(1,0,0,1,126.904,30.515)"><path fill="#577a20" d="M41.346,-1.29C40.728,-1.307,40.129,-1.159,39.605,-0.878C39.637,-0.972,39.665,-1.068,39.689,-1.168C40.079,-2.82,39.055,-4.477,37.403,-4.866C37.067,-4.946,36.731,-4.964,36.404,-4.932C36.216,-6.227,35.264,-7.339,33.914,-7.657C32.152,-8.073,30.385,-6.981,29.969,-5.217C29.839,-5.241,29.707,-5.28,29.574,-5.311C27.701,-5.752,25.826,-4.593,25.386,-2.724C25.377,-2.687,25.367,-2.648,25.361,-2.611C25.044,-2.837,24.685,-3.006,24.282,-3.102C23.302,-3.332,22.323,-3.066,21.605,-2.467C21.219,-3.157,20.56,-3.689,19.729,-3.885C19.544,-3.929,19.361,-3.953,19.177,-3.961C18.91,-4.946,18.127,-5.757,17.064,-6.008C15.521,-6.372,13.975,-5.414,13.613,-3.872C13.528,-3.511,13.515,-3.152,13.563,-2.808C13.501,-2.827,13.44,-2.844,13.373,-2.86C12.401,-3.089,11.428,-2.754,10.797,-2.066C10.436,-2.642,9.857,-3.087,9.14,-3.256C7.707,-3.595,6.27,-2.707,5.933,-1.273C5.868,-0.996,5.848,-0.719,5.869,-0.451C5.83,-0.462,5.788,-0.472,5.745,-0.482C4.778,-0.71,3.808,-0.332,3.238,0.404C2.903,-0.044,2.415,-0.385,1.826,-0.523C1.173,-0.676,0.523,-0.555,-0.009,-0.236C-0.356,-0.54,-0.78,-0.766,-1.26,-0.88C-1.556,-0.95,-1.856,-0.972,-2.144,-0.95C-2.364,-1.709,-2.973,-2.332,-3.798,-2.525C-5.012,-2.812,-6.23,-2.059,-6.516,-0.844C-6.58,-0.575,-6.592,-0.306,-6.56,-0.045C-6.605,-0.059,-6.65,-0.071,-6.697,-0.082C-7.701,-0.319,-8.708,0.227,-9.077,1.161C-9.471,0.524,-10.107,0.039,-10.893,-0.146C-11.734,-0.345,-12.571,-0.156,-13.228,0.299C-13.3,-0.469,-13.853,-1.142,-14.646,-1.329C-15.64,-1.564,-16.639,-0.946,-16.874,0.048C-17.293,-0.051,-17.716,0.02,-18.061,0.219C-18.218,-0.332,-18.665,-0.787,-19.263,-0.929C-20.151,-1.138,-21.04,-0.588,-21.249,0.298C-21.253,0.32,-21.257,0.338,-21.259,0.361C-21.382,0.288,-21.514,0.235,-21.66,0.201C-21.804,0.167,-21.95,0.155,-22.092,0.165C-22.085,0.146,-22.08,0.125,-22.076,0.103C-21.89,-0.674,-22.373,-1.452,-23.15,-1.635C-23.927,-1.818,-24.706,-1.339,-24.889,-0.562C-24.926,-0.407,-24.938,-0.25,-24.922,-0.099C-25.318,-0.082,-25.678,0.128,-25.894,0.456C-25.918,0.446,-25.944,0.438,-25.969,0.432C-26.635,0.276,-27.305,0.692,-27.464,1.359C-27.48,1.43,-27.488,1.502,-27.493,1.572C-27.985,1.457,-28.456,1.629,-28.748,1.976C-28.823,1.592,-29.119,1.266,-29.526,1.169C-29.547,0.681,-29.869,0.236,-30.36,0.12C-30.916,-0.012,-31.477,0.336,-31.609,0.893C-31.62,0.942,-31.63,0.991,-31.632,1.04C-31.746,0.861,-31.923,0.725,-32.144,0.672C-32.24,0.65,-32.335,0.646,-32.425,0.654C-32.342,0.218,-32.618,-0.208,-33.053,-0.311C-33.503,-0.417,-33.953,-0.139,-34.059,0.31C-34.085,0.422,-34.089,0.531,-34.073,0.637C-34.319,0.712,-34.526,0.9,-34.617,1.158C-34.851,1.102,-35.084,1.181,-35.234,1.344C-35.215,1.044,-35.417,0.763,-35.721,0.691C-36.026,0.618,-36.336,0.785,-36.449,1.068C-36.607,1.031,-36.759,1.08,-36.859,1.184C-36.905,1.146,-36.962,1.116,-37.026,1.101C-37.082,1.088,-37.135,1.085,-37.189,1.092C-37.244,1.015,-37.328,0.961,-37.427,0.938C-37.473,0.926,-37.516,0.924,-37.561,0.928C-37.619,0.839,-37.71,0.771,-37.821,0.743C-38.05,0.69,-38.281,0.831,-38.336,1.061C-38.496,1.024,-38.658,1.083,-38.761,1.204C-38.79,1.15,-38.841,1.112,-38.905,1.096C-38.959,1.085,-39.014,1.091,-39.058,1.116C-39.07,1.026,-39.135,0.953,-39.229,0.93C-39.301,0.913,-39.377,0.934,-39.43,0.98C-39.428,0.878,-39.498,0.788,-39.599,0.764C-39.72,0.734,-39.84,0.809,-39.868,0.93C-39.89,0.93,-39.918,0.919,-39.945,0.913C-40.066,0.884,-40.185,0.957,-40.215,1.079C-40.231,1.074,-40.251,1.066,-40.271,1.062C-40.352,1.043,-40.438,1.084,-40.477,1.156C-40.493,1.128,-40.518,1.11,-40.548,1.103C-40.61,1.087,-40.672,1.128,-40.686,1.189C-40.686,1.191,-41.347,1.105,-41.347,1.105C-41.347,1.105,-41.043,1.204,-41.043,1.204C-41.043,1.204,41.346,8.073,41.346,8.073C41.346,8.073,41.346,-1.29,41.346,-1.29Z" /></g></g><g id="i3"><g transform="translate(799,563.338)"><animateTransform repeatCount="indefinite" type="translate" attributeName="transform" dur="6s" begin="0s" calcMode="spline" values="799 563.338; 799 559.338; 799 563.338; 799 563.338" keyTimes="0; 0.055556; 0.125; 1" keySplines="0 0 1 1; 0 0 1 1; 0 0 1 1" fill="freeze" /><g transform="scale(9.573,9.573) translate(-84.5,-56.5)"><g id="i1" transform="matrix(1,0,0,1,126.188,22.028)"><path fill="#446117" d="M42.062,-13.077C42.062,-13.077,42.062,16.56,42.062,16.56C42.062,16.56,-42.062,9.546,-42.062,9.546C-42.062,9.546,-41.111,9.45,-41.111,9.45C-41.115,9.348,-41.057,9.29,-40.987,9.29C-40.958,9.29,-40.932,9.302,-40.911,9.32C-40.895,9.241,-40.827,9.181,-40.743,9.181C-40.71,9.181,-40.677,9.194,-40.65,9.208C-40.621,9.123,-40.54,9.062,-40.445,9.062C-40.374,9.062,-40.311,9.098,-40.27,9.152C-40.228,9.098,-40.166,9.062,-40.094,9.062C-40.067,9.062,-40.035,9.069,-40.01,9.079C-39.971,8.964,-39.863,8.879,-39.734,8.879C-39.692,8.879,-39.649,8.891,-39.613,8.909C-39.561,8.824,-39.469,8.767,-39.366,8.767C-39.32,8.662,-39.241,8.578,-39.142,8.53C-39.144,8.254,-38.951,8.062,-38.717,8.062C-38.54,8.062,-38.389,8.169,-38.327,8.319C-38.26,8.281,-38.186,8.256,-38.107,8.256C-38.054,8.256,-38.006,8.269,-37.959,8.283C-37.845,8.144,-37.673,8.054,-37.476,8.054C-37.391,8.054,-37.308,8.071,-37.234,8.102C-37.126,7.908,-36.923,7.775,-36.685,7.775C-36.482,7.775,-36.307,7.87,-36.191,8.016C-35.984,8.012,-35.84,8.071,-35.726,8.171C-35.59,8.071,-35.42,8.012,-35.239,8.012C-35.069,8.012,-34.91,8.062,-34.779,8.148C-34.648,8.062,-34.489,8.012,-34.318,8.012C-34.251,8.012,-34.191,8.019,-34.128,8.035C-33.979,7.645,-33.605,7.367,-33.161,7.367C-32.971,7.367,-32.797,7.421,-32.643,7.511C-32.635,6.912,-32.172,6.449,-31.599,6.449C-31.383,6.449,-31.188,6.511,-31.021,6.624C-30.781,6.157,-30.298,5.835,-29.737,5.835C-29.685,5.835,-29.631,5.841,-29.583,5.846C-29.677,5.668,-29.737,5.471,-29.737,5.257C-29.737,4.572,-29.18,4.017,-28.495,4.017C-27.944,4.017,-27.484,4.376,-27.321,4.871C-27.191,4.827,-27.059,4.799,-26.915,4.799C-26.439,4.799,-26.031,5.07,-25.823,5.464C-25.584,5.297,-25.295,5.194,-24.982,5.194C-24.363,5.194,-23.834,5.589,-23.63,6.14C-23.468,6.075,-23.291,6.04,-23.107,6.04C-22.665,6.04,-22.272,6.24,-22.005,6.553C-21.733,6.357,-21.403,6.24,-21.041,6.24C-20.707,6.24,-20.397,6.34,-20.139,6.509C-20.139,5.894,-19.811,5.365,-19.324,5.077C-19.565,4.791,-19.71,4.42,-19.71,4.017C-19.71,3.176,-19.083,2.483,-18.271,2.381C-18.409,2.12,-18.49,1.822,-18.49,1.506C-18.49,0.485,-17.661,-0.346,-16.636,-0.346C-16.272,-0.346,-15.936,-0.239,-15.65,-0.059C-15.286,-0.306,-14.849,-0.451,-14.377,-0.451C-13.598,-0.451,-12.91,-0.056,-12.502,0.544C-12.269,0.452,-12.015,0.4,-11.751,0.4C-11.41,0.4,-11.087,0.485,-10.801,0.631C-10.389,0.178,-9.797,-0.11,-9.136,-0.11C-8.906,-0.11,-8.687,-0.075,-8.478,-0.01C-8.166,-0.884,-7.334,-1.511,-6.352,-1.511C-5.916,-1.511,-5.511,-1.386,-5.166,-1.17C-4.632,-1.548,-3.982,-1.772,-3.278,-1.772C-3.12,-1.772,-2.959,-1.757,-2.804,-1.734C-2.536,-2.798,-1.57,-3.591,-0.419,-3.591C0.825,-3.591,1.852,-2.666,2.018,-1.467C3.027,-1.467,3.909,-1.035,4.508,-0.346C4.947,-0.668,5.489,-0.857,6.074,-0.857C6.528,-0.857,6.949,-0.745,7.321,-0.548C7.289,-0.734,7.268,-0.929,7.268,-1.126C7.268,-2.911,8.695,-4.362,10.472,-4.402C10.352,-4.719,10.281,-5.059,10.281,-5.418C10.281,-7.004,11.568,-8.29,13.153,-8.29C13.609,-8.29,14.037,-8.18,14.421,-7.99C14.822,-9.351,16.077,-10.347,17.568,-10.347C17.634,-10.347,17.703,-10.338,17.77,-10.336C17.77,-12.044,19.147,-13.419,20.844,-13.419C22.012,-13.419,23.026,-12.772,23.548,-11.814C23.867,-11.916,24.208,-11.976,24.561,-11.976C25.657,-11.976,26.621,-11.438,27.216,-10.616C27.763,-11.025,28.438,-11.268,29.172,-11.268C30.297,-11.268,31.287,-10.703,31.877,-9.843C32.51,-10.705,33.53,-11.268,34.683,-11.268C35.039,-11.268,35.381,-11.213,35.706,-11.114C35.323,-11.674,35.097,-12.35,35.097,-13.077C35.097,-15.002,36.659,-16.56,38.581,-16.56C40.504,-16.56,42.062,-15.002,42.062,-13.077Z" /></g></g></g></g><g transform="matrix(9.545,0,0,9.545,-6.926,22.34)" id="i4"><g id="i1" transform="matrix(1,0,0,1,126.904,30.515)"><path fill="#577a20" d="M41.346,-1.29C40.728,-1.307,40.129,-1.159,39.605,-0.878C39.637,-0.972,39.665,-1.068,39.689,-1.168C40.079,-2.82,39.055,-4.477,37.403,-4.866C37.067,-4.946,36.731,-4.964,36.404,-4.932C36.216,-6.227,35.264,-7.339,33.914,-7.657C32.152,-8.073,30.385,-6.981,29.969,-5.217C29.839,-5.241,29.707,-5.28,29.574,-5.311C27.701,-5.752,25.826,-4.593,25.386,-2.724C25.377,-2.687,25.367,-2.648,25.361,-2.611C25.044,-2.837,24.685,-3.006,24.282,-3.102C23.302,-3.332,22.323,-3.066,21.605,-2.467C21.219,-3.157,20.56,-3.689,19.729,-3.885C19.544,-3.929,19.361,-3.953,19.177,-3.961C18.91,-4.946,18.127,-5.757,17.064,-6.008C15.521,-6.372,13.975,-5.414,13.613,-3.872C13.528,-3.511,13.515,-3.152,13.563,-2.808C13.501,-2.827,13.44,-2.844,13.373,-2.86C12.401,-3.089,11.428,-2.754,10.797,-2.066C10.436,-2.642,9.857,-3.087,9.14,-3.256C7.707,-3.595,6.27,-2.707,5.933,-1.273C5.868,-0.996,5.848,-0.719,5.869,-0.451C5.83,-0.462,5.788,-0.472,5.745,-0.482C4.778,-0.71,3.808,-0.332,3.238,0.404C2.903,-0.044,2.415,-0.385,1.826,-0.523C1.173,-0.676,0.523,-0.555,-0.009,-0.236C-0.356,-0.54,-0.78,-0.766,-1.26,-0.88C-1.556,-0.95,-1.856,-0.972,-2.144,-0.95C-2.364,-1.709,-2.973,-2.332,-3.798,-2.525C-5.012,-2.812,-6.23,-2.059,-6.516,-0.844C-6.58,-0.575,-6.592,-0.306,-6.56,-0.045C-6.605,-0.059,-6.65,-0.071,-6.697,-0.082C-7.701,-0.319,-8.708,0.227,-9.077,1.161C-9.471,0.524,-10.107,0.039,-10.893,-0.146C-11.734,-0.345,-12.571,-0.156,-13.228,0.299C-13.3,-0.469,-13.853,-1.142,-14.646,-1.329C-15.64,-1.564,-16.639,-0.946,-16.874,0.048C-17.293,-0.051,-17.716,0.02,-18.061,0.219C-18.218,-0.332,-18.665,-0.787,-19.263,-0.929C-20.151,-1.138,-21.04,-0.588,-21.249,0.298C-21.253,0.32,-21.257,0.338,-21.259,0.361C-21.382,0.288,-21.514,0.235,-21.66,0.201C-21.804,0.167,-21.95,0.155,-22.092,0.165C-22.085,0.146,-22.08,0.125,-22.076,0.103C-21.89,-0.674,-22.373,-1.452,-23.15,-1.635C-23.927,-1.818,-24.706,-1.339,-24.889,-0.562C-24.926,-0.407,-24.938,-0.25,-24.922,-0.099C-25.318,-0.082,-25.678,0.128,-25.894,0.456C-25.918,0.446,-25.944,0.438,-25.969,0.432C-26.635,0.276,-27.305,0.692,-27.464,1.359C-27.48,1.43,-27.488,1.502,-27.493,1.572C-27.985,1.457,-28.456,1.629,-28.748,1.976C-28.823,1.592,-29.119,1.266,-29.526,1.169C-29.547,0.681,-29.869,0.236,-30.36,0.12C-30.916,-0.012,-31.477,0.336,-31.609,0.893C-31.62,0.942,-31.63,0.991,-31.632,1.04C-31.746,0.861,-31.923,0.725,-32.144,0.672C-32.24,0.65,-32.335,0.646,-32.425,0.654C-32.342,0.218,-32.618,-0.208,-33.053,-0.311C-33.503,-0.417,-33.953,-0.139,-34.059,0.31C-34.085,0.422,-34.089,0.531,-34.073,0.637C-34.319,0.712,-34.526,0.9,-34.617,1.158C-34.851,1.102,-35.084,1.181,-35.234,1.344C-35.215,1.044,-35.417,0.763,-35.721,0.691C-36.026,0.618,-36.336,0.785,-36.449,1.068C-36.607,1.031,-36.759,1.08,-36.859,1.184C-36.905,1.146,-36.962,1.116,-37.026,1.101C-37.082,1.088,-37.135,1.085,-37.189,1.092C-37.244,1.015,-37.328,0.961,-37.427,0.938C-37.473,0.926,-37.516,0.924,-37.561,0.928C-37.619,0.839,-37.71,0.771,-37.821,0.743C-38.05,0.69,-38.281,0.831,-38.336,1.061C-38.496,1.024,-38.658,1.083,-38.761,1.204C-38.79,1.15,-38.841,1.112,-38.905,1.096C-38.959,1.085,-39.014,1.091,-39.058,1.116C-39.07,1.026,-39.135,0.953,-39.229,0.93C-39.301,0.913,-39.377,0.934,-39.43,0.98C-39.428,0.878,-39.498,0.788,-39.599,0.764C-39.72,0.734,-39.84,0.809,-39.868,0.93C-39.89,0.93,-39.918,0.919,-39.945,0.913C-40.066,0.884,-40.185,0.957,-40.215,1.079C-40.231,1.074,-40.251,1.066,-40.271,1.062C-40.352,1.043,-40.438,1.084,-40.477,1.156C-40.493,1.128,-40.518,1.11,-40.548,1.103C-40.61,1.087,-40.672,1.128,-40.686,1.189C-40.686,1.191,-41.347,1.105,-41.347,1.105C-41.347,1.105,-41.043,1.204,-41.043,1.204C-41.043,1.204,41.346,8.073,41.346,8.073C41.346,8.073,41.346,-1.29,41.346,-1.29Z" /></g></g><g transform="matrix(9.563,0,0,9.563,-4.415,12.502)" id="i5"><g id="i1" transform="matrix(1,0,0,1,84.125,38.327)"><path fill="#9cbc40" d="M-84.125,0.261C-84.125,0.261,-84.125,6.754,-84.125,6.754C-84.125,6.754,84.125,6.754,84.125,6.754C84.125,6.754,84.125,0.261,84.125,0.261C84.125,0.261,0.001,-6.754,0.001,-6.754C0.001,-6.754,-84.125,0.261,-84.125,0.261Z" /></g></g><g transform="matrix(9.515,0,0,9.515,-0.028,14.396)" id="i6"><g id="i7" transform="matrix(1,0,0,1,84.125,43.006)"><path fill="#d8cac9" fill-rule="evenodd" d="M84.125,11.4C84.125,11.4,84.125,2.107,84.125,2.107C84.125,2.107,0.001,-11.4,0.001,-11.4C0.001,-11.4,84.125,11.4,84.125,11.4ZM-84.125,2.107C-84.125,2.107,-84.125,11.4,-84.125,11.4C-84.125,11.4,0.001,-11.4,0.001,-11.4C0.001,-11.4,-84.125,2.107,-84.125,2.107Z" /></g><g id="i8" transform="matrix(1,0,0,1,84.125,43.007)"><path fill="#a09896" fill-rule="evenodd" d="M84.125,11.4C84.125,11.4,84.125,8.593,84.125,8.593C84.125,8.593,0.001,-11.4,0.001,-11.4C0.001,-11.4,84.125,11.4,84.125,11.4ZM-84.125,8.593C-84.125,8.593,-84.125,11.4,-84.125,11.4C-84.125,11.4,0.001,-11.4,0.001,-11.4C0.001,-11.4,-84.125,8.593,-84.125,8.593Z" /></g><g id="i9" transform="matrix(1,0,0,1,84.125,71.886)"><path fill="#435670" d="M-84.125,-17.479C-84.125,-17.479,-84.125,40.28,-84.125,40.28C-84.125,40.28,84.125,40.28,84.125,40.28C84.125,40.28,84.125,-17.479,84.125,-17.479C84.125,-17.479,0.001,-40.28,0.001,-40.28C0.001,-40.28,-84.125,-17.479,-84.125,-17.479Z" /></g><g id="i10" transform="matrix(1,0,0,1,42.063,41.061)"><path fill="#f0c030" d="M-42.063,7.85C-42.063,7.85,-42.063,9.455,-42.063,9.455C-42.063,9.455,42.063,-9.455,42.063,-9.455C42.063,-9.455,-42.063,7.85,-42.063,7.85Z" /></g><g id="i11" transform="matrix(1,0,0,1,126.188,41.061)"><path fill="#f0c030" d="M42.062,9.455C42.062,9.455,42.062,7.85,42.062,7.85C42.062,7.85,-42.062,-9.455,-42.062,-9.455C-42.062,-9.455,42.062,9.455,42.062,9.455Z" /></g><g id="i12" transform="matrix(1,0,0,1,42.063,44.174)"><path fill="#ebebeb" d="M-42.063,11.208C-42.063,11.208,-42.063,12.6,-42.063,12.6C-42.063,12.6,42.063,-12.601,42.063,-12.601C42.063,-12.601,-42.063,11.208,-42.063,11.208Z" /></g><g id="i1" transform="matrix(1,0,0,1,126.188,44.174)"><path fill="#ebebeb" d="M42.062,12.6C42.062,12.6,42.062,11.208,42.062,11.208C42.062,11.208,-42.062,-12.601,-42.062,-12.601C-42.062,-12.601,42.062,12.6,42.062,12.6Z" /></g></g><g id="i13"><g transform="translate(800,313.687)"><animateTransform repeatCount="indefinite" type="translate" attributeName="transform" dur="6s" begin="0s" calcMode="spline" values="800 313.687; 800 1220.187; 800 1220.187" keyTimes="0; 0.166667; 1" keySplines="0 0 1 1; 0 0 1 1" fill="freeze" /><g transform="scale(0.041,0.02)"><animateTransform repeatCount="indefinite" type="scale" attributeName="transform" dur="6s" begin="0s" calcMode="spline" values="0.041 0.02; 1.006 0.996; 1.006 0.996" keyTimes="0; 0.166667; 1" keySplines="0 0 1 1; 0 0 1 1" fill="freeze" /><g transform="translate(44.992,-425.628)"><g id="i14" transform="matrix(0.94,0,0,0.912,-45,664.525)"><path stroke-width="0" stroke="#ffffff" fill="#ffffff" d="M42.45,-365.367C42.45,-365.367,-42.45,-365.367,-42.45,-365.367C-42.45,-365.367,-42.45,-158.633,-42.45,-158.633C-42.45,-158.633,42.45,-158.633,42.45,-158.633C42.45,-158.633,42.45,-365.367,42.45,-365.367Z" /></g></g></g></g></g><g id="i15"><g transform="translate(800,313.687)"><animateTransform repeatCount="indefinite" type="translate" attributeName="transform" dur="6s" begin="0s" calcMode="spline" values="800 313.687; 800 313.687; 800 1220.187; 800 1220.187" keyTimes="0; 0.041667; 0.208333; 1" keySplines="0 0 1 1; 0 0 1 1; 0 0 1 1" fill="freeze" /><g transform="scale(0.041,0.02)"><animateTransform repeatCount="indefinite" type="scale" attributeName="transform" dur="6s" begin="0s" calcMode="spline" values="0.041 0.02; 0.041 0.02; 1.006 0.996; 1.006 0.996" keyTimes="0; 0.041667; 0.208333; 1" keySplines="0 0 1 1; 0 0 1 1; 0 0 1 1" fill="freeze" /><g transform="translate(44.992,-425.628)"><g id="i14" transform="matrix(0.94,0,0,0.912,-45,664.525)"><path stroke-width="0" stroke="#ffffff" fill="#ffffff" d="M42.45,-365.367C42.45,-365.367,-42.45,-365.367,-42.45,-365.367C-42.45,-365.367,-42.45,-158.633,-42.45,-158.633C-42.45,-158.633,42.45,-158.633,42.45,-158.633C42.45,-158.633,42.45,-365.367,42.45,-365.367Z" /></g></g></g></g></g><g id="i16"><g transform="translate(800,313.687)"><animateTransform repeatCount="indefinite" type="translate" attributeName="transform" dur="6s" begin="0s" calcMode="spline" values="800 313.687; 800 313.687; 800 1220.187; 800 1220.187" keyTimes="0; 0.083333; 0.25; 1" keySplines="0 0 1 1; 0 0 1 1; 0 0 1 1" fill="freeze" /><g transform="scale(0.041,0.02)"><animateTransform repeatCount="indefinite" type="scale" attributeName="transform" dur="6s" begin="0s" calcMode="spline" values="0.041 0.02; 0.041 0.02; 1.006 0.996; 1.006 0.996" keyTimes="0; 0.083333; 0.25; 1" keySplines="0 0 1 1; 0 0 1 1; 0 0 1 1" fill="freeze" /><g transform="translate(44.992,-425.628)"><g id="i14" transform="matrix(0.94,0,0,0.912,-45,664.525)"><path stroke-width="0" stroke="#ffffff" fill="#ffffff" d="M42.45,-365.367C42.45,-365.367,-42.45,-365.367,-42.45,-365.367C-42.45,-365.367,-42.45,-158.633,-42.45,-158.633C-42.45,-158.633,42.45,-158.633,42.45,-158.633C42.45,-158.633,42.45,-365.367,42.45,-365.367Z" /></g></g></g></g></g><g id="i17"><g transform="translate(800,313.687)"><animateTransform repeatCount="indefinite" type="translate" attributeName="transform" dur="6s" begin="0s" calcMode="spline" values="800 313.687; 800 313.687; 800 1220.187; 800 1220.187" keyTimes="0; 0.125; 0.291667; 1" keySplines="0 0 1 1; 0 0 1 1; 0 0 1 1" fill="freeze" /><g transform="scale(0.041,0.02)"><animateTransform repeatCount="indefinite" type="scale" attributeName="transform" dur="6s" begin="0s" calcMode="spline" values="0.041 0.02; 0.041 0.02; 1.006 0.996; 1.006 0.996" keyTimes="0; 0.125; 0.291667; 1" keySplines="0 0 1 1; 0 0 1 1; 0 0 1 1" fill="freeze" /><g transform="translate(44.992,-425.628)"><g id="i14" transform="matrix(0.94,0,0,0.912,-45,664.525)"><path stroke-width="0" stroke="#ffffff" fill="#ffffff" d="M42.45,-365.367C42.45,-365.367,-42.45,-365.367,-42.45,-365.367C-42.45,-365.367,-42.45,-158.633,-42.45,-158.633C-42.45,-158.633,42.45,-158.633,42.45,-158.633C42.45,-158.633,42.45,-365.367,42.45,-365.367Z" /></g></g></g></g></g><g id="i18"><g transform="translate(800,480)"><animateTransform repeatCount="indefinite" type="translate" attributeName="transform" dur="6s" begin="0s" calcMode="spline" values="800 480; 800 500; 800 480; 800 480" keyTimes="0; 0.083333; 0.25; 1" keySplines="0 0 1 1; 0 0 1 1; 0 0 1 1" fill="freeze" /><g transform="scale(1.51,1.51) translate(-500,-333.5)"><g id="i19" transform="matrix(1,0,0,1,693.096,83.947)"><path fill="#c1e0f5" d="M11.981,9.464C13.04,10.629,16.357,9.903,17.74,9.417C20.132,8.584,21.7,7.204,22.348,4.653C23.375,0.615,19.459,-2.063,15.669,-1.106C15.822,-4.303,12.704,-5.618,9.953,-6.801C8.134,-7.583,5.637,-7.884,4.055,-6.579C2.585,-9.339,-2.673,-12.006,-5.358,-9.081C-9.448,-13.073,-19.112,-6.359,-18.712,-1.256C-20.916,-1.106,-23.095,1.818,-23.187,3.944C-23.375,8.318,-18.985,9.862,-15.591,10.334C-14.278,10.514,-12.609,10.392,-11.36,10.704C-9.939,11.051,-9.075,12.11,-7.373,12.31C-4.05,12.703,-1.056,12.009,1.267,9.498C3.812,12.79,10.138,13.073,11.981,9.464Z" /></g><g id="i20" transform="matrix(1,0,0,1,692.991,89.385)"><path fill="#5dbdfb" d="M-20.224,-0.88C-19.947,-0.906,-19.672,-0.885,-19.409,-0.819C-18.868,-0.663,-18.306,0.089,-17.872,-0.684C-17.337,-1.684,-18.387,-3.154,-16.907,-3.677C-15.943,-4.024,-14.902,-3.712,-14.172,-3.087C-13.702,-2.691,-12.798,-1.303,-12.195,-2.263C-11.272,-3.712,-13.756,-7.11,-10.337,-6.263C-9.158,-5.965,-8.37,-5.448,-7.942,-4.331C-7.635,-3.559,-7.106,-1.985,-5.96,-2.483C-5.22,-2.795,-5.413,-3.821,-5.214,-4.423C-4.535,-6.567,-1.578,-7.637,0.469,-7.446C2.219,-7.284,4.791,-6.202,6.018,-4.875C6.851,-3.966,7.255,-2.817,7.326,-1.605C7.363,-1.032,7.157,0.703,8.091,0.715C8.855,0.732,9.179,-1.082,9.503,-1.592C10.039,-2.474,11.146,-2.87,12.182,-2.641C12.908,-2.483,13.582,-2.118,14.105,-1.586C14.777,-0.912,14.754,-0.488,14.852,0.345C15.007,1.6,15.986,2.545,16.42,0.804C16.92,-1.175,17.441,-3.026,19.989,-2.835C20.891,-2.778,21.994,-2.239,22.584,-1.509C22.56,-1.267,22.514,-1.028,22.454,-0.785C21.805,1.766,20.238,3.146,17.845,3.979C16.463,4.466,13.145,5.191,12.087,4.026C10.244,7.636,3.918,7.352,1.373,4.06C-0.951,6.571,-3.945,7.266,-7.268,6.872C-8.969,6.672,-9.833,5.615,-11.254,5.267C-12.503,4.955,-14.172,5.076,-15.486,4.896C-18.12,4.532,-21.364,3.503,-22.584,1.007C-22.434,0.564,-22.179,0.152,-21.806,-0.186C-21.39,-0.562,-20.811,-0.819,-20.224,-0.88Z" /></g><g id="i21" transform="matrix(1,0,0,1,540.919,135.899)"><path fill="#c1e0f5" d="M21.661,4.21C22.481,4.84,24.767,4.684,23.961,3.056C23.329,1.777,21.13,2.454,20.071,2.321C18.293,2.084,18.077,0.591,16.911,-0.418C16.159,-1.058,14.544,-1.306,13.609,-1.402C12.253,-1.535,10.697,-1.448,9.396,-1.254C8.227,-1.083,7.309,-0.696,6.115,-1.291C4.868,-1.919,4.678,-3.502,3.537,-4.106C2.673,-4.566,1.489,-4.115,0.659,-4.583C0.095,-4.902,-0.081,-5.512,-0.653,-5.862C-1.244,-6.226,-2.252,-6.467,-2.943,-6.562C-4.318,-6.756,-6.22,-6.651,-7.538,-6.267C-9.083,-5.822,-9.352,-4.485,-10.628,-3.837C-11.374,-3.453,-12.324,-3.863,-13.091,-3.427C-14.086,-2.856,-14.021,-1.549,-15.198,-1.245C-16.242,-0.977,-17.724,-2.099,-18.987,-1.873C-20.067,-1.677,-20.769,-1.133,-21.466,-0.372C-22.076,0.293,-21.32,0.415,-22.313,0.779C-22.692,0.921,-23.178,0.479,-23.513,0.6C-24.173,0.834,-24.766,1.627,-24.615,2.367C-24.193,4.436,-18.744,4.846,-17.263,4.548C-15.896,4.273,-15.528,3.808,-14.249,4.389C-12.514,5.182,-11.853,6.756,-9.828,5.639C-7.602,4.401,-8.353,4.057,-5.781,5.02C-3.702,5.801,-2.216,5.217,-0.148,4.951C1.495,4.748,3.203,4.945,4.797,5.223C6.477,5.512,7.309,5.142,8.854,4.951C10.274,4.771,10.842,6.043,11.956,6.102C13.252,6.171,14.477,4.487,15.975,4.493C16.667,4.493,17.521,5.031,18.12,4.945C18.791,4.853,18.774,4.575,19.289,4.366C20.087,4.037,20.411,3.553,21.661,4.21Z" /></g><g id="i22" transform="matrix(1,0,0,1,540.867,137.988)"><path fill="#5dbdfb" d="M-23.5,0.163C-23.003,0.082,-22.505,0.765,-21.993,0.71C-21.44,0.649,-21.359,0.059,-20.824,-0.016C-19.534,-0.19,-18.481,1.465,-17.044,1.323C-15.644,1.182,-14.559,-0.051,-13.793,-1.132C-12.549,-2.903,-11.614,-0.716,-10.208,-1.208C-9.219,-1.558,-9.3,-3.166,-8.079,-3.146C-7.605,-3.14,-6.902,-2.689,-6.784,-2.218C-6.691,-1.888,-6.935,-1.737,-6.935,-1.416C-6.945,-0.265,-5.86,-0.103,-4.791,-0.271C-3.341,-0.502,-2.888,-1.599,-2.581,-2.911C-2.357,-3.866,-2.439,-4.667,-1.213,-4.661C-0.315,-4.656,0.792,-4.303,1.579,-3.852C2.73,-3.18,3.595,-2.119,4.341,-1.032C4.778,-0.401,5.287,0.831,6.036,1.17C7.616,1.881,8.439,-0.259,9.878,1.04C11.439,2.44,11.564,1.263,12.573,0.077C14.162,-1.801,15.681,-0.265,16.987,1.048C18.102,2.179,18.848,1.1,20.08,1.06C20.814,1.034,21.145,1.558,21.942,1.511C22.342,1.491,23.73,1.395,24.136,1.786C23.904,2.613,22.359,2.62,21.712,2.121C20.462,1.465,20.138,1.948,19.34,2.277C18.825,2.486,18.842,2.764,18.171,2.856C17.572,2.943,16.719,2.405,16.027,2.405C14.529,2.399,13.303,4.082,12.007,4.013C10.893,3.955,10.326,2.683,8.906,2.862C7.361,3.053,6.528,3.423,4.848,3.134C3.254,2.856,1.547,2.66,-0.096,2.862C-2.164,3.128,-3.651,3.712,-5.73,2.932C-8.302,1.968,-7.551,2.312,-9.777,3.551C-11.802,4.667,-12.462,3.093,-14.197,2.301C-15.477,1.72,-15.844,2.179,-17.211,2.46C-18.495,2.723,-22.748,2.44,-24.137,1.019C-24.078,0.609,-23.879,0.221,-23.5,0.163Z" /></g><g id="i23" transform="matrix(1,0,0,1,504.182,160.681)"><path fill="#c1e0f5" d="M5.632,3.922C6.129,4.402,7.686,4.102,8.34,3.905C9.468,3.558,10.202,2.985,10.506,1.929C10.992,0.252,9.144,-0.856,7.37,-0.463C7.437,-1.787,5.968,-2.334,4.681,-2.815C3.827,-3.139,2.644,-3.265,1.903,-2.727C1.218,-3.873,-1.258,-4.975,-2.516,-3.766C-4.44,-5.421,-8.987,-2.635,-8.793,-0.521C-9.832,-0.463,-10.853,0.758,-10.896,1.634C-10.992,3.448,-8.917,4.09,-7.329,4.281C-6.708,4.357,-5.93,4.304,-5.336,4.437C-4.671,4.582,-4.266,5.016,-3.462,5.103C-1.906,5.265,-0.494,4.976,0.596,3.94C1.791,5.299,4.762,5.421,5.632,3.922Z" /></g><g id="i7" transform="matrix(1,0,0,1,504.164,162.779)"><path fill="#5dbdfb" d="M-9.128,0.225C-8.899,0.144,-8.645,0.115,-8.425,0.098C-7.82,0.051,-7.43,0.415,-6.906,0.618C-6.322,0.833,-6.398,0.509,-6.582,0.08C-6.875,-0.553,-6.111,-1.233,-5.642,-1.542C-5.052,-1.942,-4.361,-2.303,-3.62,-2.104C-3.01,-1.942,-2.865,-1.348,-2.585,-0.856C-2.448,-0.607,-2.287,-0.4,-1.982,-0.417C-1.659,-0.441,-1.465,-0.715,-1.291,-0.273C-1.185,0.011,-1.239,0.26,-0.947,0.415C-0.58,0.612,-0.294,0.346,-0.19,0.011C-0.007,-0.553,-0.294,-1.152,-0.19,-1.71C0.042,-2.792,1.425,-3.324,2.414,-3.238C3.229,-3.171,3.987,-2.681,4.268,-1.9C4.493,-1.278,4.537,-0.122,5.208,0.225C5.445,-0.087,5.385,-0.458,5.303,-0.796C5.142,-1.508,5.526,-1.617,6.191,-1.531C7.169,-1.4,8.372,-0.683,8.161,0.476C8.888,0.491,9.475,0.294,10.033,0.786C9.643,1.264,9.081,1.587,8.358,1.807C7.704,2.004,6.147,2.306,5.65,1.825C4.78,3.324,1.81,3.202,0.614,1.842C-0.476,2.878,-1.888,3.168,-3.444,3.006C-4.248,2.919,-4.653,2.484,-5.318,2.339C-5.911,2.206,-6.69,2.259,-7.311,2.183C-8.225,2.073,-9.304,1.807,-10.033,1.264C-9.79,0.98,-9.732,0.612,-9.423,0.381C-9.328,0.323,-9.229,0.266,-9.128,0.225Z" /></g><g id="i8" transform="matrix(1,0,0,1,608.334,101.93)"><path fill="#c1e0f5" d="M35.973,7C37.337,8.044,41.142,7.781,39.796,5.07C38.738,2.95,35.095,4.081,33.339,3.853C30.389,3.468,30.014,0.978,28.073,-0.692C26.826,-1.759,24.155,-2.17,22.599,-2.326C20.346,-2.545,17.763,-2.401,15.609,-2.083C13.665,-1.8,12.14,-1.155,10.154,-2.147C8.077,-3.182,7.764,-5.812,5.864,-6.821C4.44,-7.584,2.47,-6.836,1.091,-7.614C0.157,-8.14,-0.126,-9.156,-1.091,-9.74C-2.075,-10.342,-3.749,-10.746,-4.894,-10.906C-7.179,-11.229,-10.329,-11.056,-12.54,-10.417C-15.09,-9.676,-15.553,-7.446,-17.662,-6.37C-18.903,-5.736,-20.489,-6.417,-21.758,-5.69C-23.423,-4.747,-23.297,-2.575,-25.258,-2.072C-27.003,-1.62,-29.441,-3.489,-31.552,-3.107C-33.334,-2.783,-34.503,-1.88,-35.674,-0.611C-36.684,0.494,-35.432,0.688,-37.076,1.295C-37.701,1.524,-38.506,0.789,-39.073,0.992C-40.164,1.382,-41.141,2.702,-40.898,3.925C-40.195,7.364,-31.142,8.053,-28.69,7.555C-26.404,7.086,-25.795,6.323,-23.685,7.283C-20.79,8.603,-19.7,11.229,-16.339,9.363C-12.638,7.312,-13.897,6.745,-9.633,8.342C-6.165,9.635,-3.701,8.657,-0.25,8.232C2.484,7.891,5.305,8.22,7.963,8.678C10.752,9.155,12.134,8.542,14.695,8.226C17.058,7.931,18.007,10.034,19.849,10.139C22.001,10.245,24.043,7.451,26.534,7.469C27.68,7.469,29.1,8.362,30.089,8.215C31.211,8.053,31.18,7.601,32.028,7.249C33.364,6.705,33.887,5.898,35.973,7Z" /></g><g id="i9" transform="matrix(1,0,0,1,607.673,103.783)"><path fill="#5dbdfb" d="M-38.698,1.438C-38.137,1.244,-37.332,1.979,-36.701,1.742C-35.095,1.149,-35.084,-1.799,-32.594,-1.284C-31.173,-0.989,-29.884,2.182,-28.364,1.791C-26.553,1.334,-26.614,-3.514,-23.965,-2.54C-22.026,-1.822,-25.02,2.558,-21.517,2.685C-18.272,2.807,-20.8,-0.729,-19.226,-2.111C-16.927,-4.15,-15.235,0.686,-13.338,0.055C-12.134,-0.344,-12.041,-2.531,-11.523,-3.445C-10.852,-4.666,-9.848,-5.95,-8.642,-6.71C-4.396,-9.375,0.827,-3.896,3.631,-1.11C5.241,0.483,6.065,2.193,8.5,2.141C10.143,2.1,10.984,1.473,12.334,0.686C15.427,-1.125,18.167,-1.435,21.201,0.686C22.235,1.406,22.757,3.257,23.708,3.703C24.643,4.125,25.577,3.182,26.43,3.02C27.426,2.841,29.361,2.875,30.263,3.234C32.207,4.024,33.136,4.328,35.315,4.293C36.827,4.267,39.124,3.816,40.065,5.377C39.124,5.921,37.448,5.766,36.633,5.146C34.547,4.044,34.024,4.852,32.688,5.395C31.84,5.748,31.872,6.199,30.75,6.361C29.761,6.509,28.34,5.615,27.194,5.603C24.703,5.598,22.661,8.392,20.509,8.285C18.667,8.181,17.718,6.078,15.355,6.373C12.794,6.688,11.412,7.302,8.623,6.824C5.965,6.367,3.145,6.038,0.411,6.378C-3.04,6.804,-5.503,7.781,-8.971,6.488C-13.235,4.892,-11.976,5.459,-15.677,7.509C-19.038,9.375,-20.128,6.749,-23.023,5.43C-25.133,4.469,-25.743,5.233,-28.029,5.702C-30.369,6.176,-38.688,5.563,-40.065,2.528C-39.72,2.031,-39.228,1.629,-38.698,1.438Z" /></g><g id="i10" transform="matrix(1,0,0,1,325.289,78.435)"><path fill="#c1e0f5" d="M67.548,13.153C70.131,15.106,77.273,14.629,74.739,9.532C72.757,5.534,65.923,7.669,62.622,7.238C57.074,6.515,56.371,1.835,52.718,-1.298C50.383,-3.308,45.365,-4.075,42.444,-4.364C38.206,-4.775,33.36,-4.512,29.308,-3.916C25.655,-3.378,22.802,-2.163,19.066,-4.029C15.163,-5.972,14.585,-10.908,11.009,-12.814C8.319,-14.237,4.634,-12.837,2.045,-14.297C0.289,-15.286,-0.252,-17.199,-2.051,-18.298C-3.887,-19.411,-7.046,-20.181,-9.198,-20.482C-13.494,-21.089,-19.404,-20.754,-23.549,-19.562C-28.356,-18.168,-29.215,-13.982,-33.175,-11.963C-35.504,-10.771,-38.492,-12.044,-40.869,-10.694C-43.996,-8.914,-43.765,-4.836,-47.438,-3.887C-50.713,-3.031,-55.315,-6.545,-59.281,-5.833C-62.616,-5.226,-64.814,-3.528,-67.013,-1.147C-68.91,0.926,-66.553,1.297,-69.634,2.434C-70.823,2.87,-72.329,1.487,-73.394,1.87C-75.436,2.592,-77.273,5.078,-76.813,7.385C-75.505,13.83,-58.503,15.132,-53.883,14.189C-49.605,13.321,-48.46,11.875,-44.494,13.686C-39.053,16.171,-37.011,21.089,-30.696,17.589C-23.742,13.739,-26.102,12.668,-18.084,15.664C-11.585,18.094,-6.951,16.269,-0.466,15.462C4.66,14.822,9.957,15.442,14.958,16.304C20.182,17.206,22.797,16.055,27.596,15.447C32.03,14.898,33.809,18.858,37.265,19.043C41.312,19.251,45.165,14.01,49.849,14.021C51.989,14.021,54.653,15.702,56.522,15.436C58.619,15.132,58.558,14.276,60.158,13.622C62.659,12.601,63.644,11.079,67.548,13.153Z" /></g><g id="i11" transform="matrix(1,0,0,1,324.582,86.291)"><path fill="#5dbdfb" d="M-66.456,2.416C-61.866,3.252,-62.832,-2.94,-59.532,-4.062C-56.358,-5.146,-53.307,-1.739,-50.784,-0.429C-48.108,0.965,-46.801,0.687,-44.392,-1.202C-42.167,-2.961,-41.189,-3.467,-38.227,-2.723C-36.335,-2.254,-33.955,-0.745,-31.933,-1.08C-27.918,-1.748,-28.664,-7.961,-25.427,-9.778C-19.264,-13.232,-17.108,-1.977,-11.722,-3.437C-8.809,-4.23,-8.561,-8.116,-4.751,-7.827C-0.58,-7.511,0.366,-2.449,4.52,-1.983C8.387,-1.555,12.385,-4.542,16.336,-4.809C22.095,-5.202,29.891,-3.981,34.036,0.54C35.499,2.134,36.315,5.639,39.179,4.942C40.929,4.51,42.398,1.852,43.824,0.814C46.353,-1.035,48.287,-2.086,51.415,-1.548C53.15,-1.248,55.131,-0.572,56.624,0.371C58.012,1.248,59.201,3.34,60.633,3.589C64.824,4.314,73.404,-2.046,75.681,4.772C74.518,6.846,70.153,6.739,68.255,5.298C64.351,3.224,63.366,4.746,60.865,5.767C59.265,6.421,59.326,7.276,57.229,7.58C55.36,7.846,52.696,6.165,50.556,6.165C45.872,6.154,42.019,11.396,37.972,11.188C34.516,11.002,32.737,7.042,28.303,7.592C23.503,8.2,20.889,9.351,15.665,8.449C10.664,7.586,5.367,6.966,0.241,7.605C-6.244,8.413,-10.878,10.239,-17.377,7.809C-25.395,4.813,-23.035,5.883,-29.989,9.733C-36.304,13.233,-38.346,8.314,-43.787,5.83C-47.753,4.019,-48.898,5.466,-53.176,6.334C-57.504,7.216,-72.719,6.131,-75.681,0.681C-75.594,0.493,-75.476,0.306,-75.333,0.115C-72.563,-3.802,-69.225,1.907,-66.456,2.416Z" /></g><g id="i12" transform="matrix(1,0,0,1,463.062,142.435)"><path fill="#c1e0f5" d="M16.053,6.633C19.339,5.956,21.301,4.501,18.489,1.493C16.577,-0.552,12.672,-1.961,10.418,0.235C10.196,-2.646,6.751,-7.48,3.216,-6.369C0.346,-5.467,0.948,-1.973,-2.413,-2.348C-5.676,-2.713,-6.347,-5.918,-8.54,-2.485C-9.356,-1.215,-8.806,-0.552,-10.264,-0.014C-11.528,0.454,-13.009,-0.674,-14.337,-0.541C-14.872,0.408,-15.153,2.899,-15.762,3.471C-16.578,4.238,-17.487,3.153,-18.244,3.894C-21.302,6.87,-16.451,7.145,-14.273,7.139C-8.123,7.125,-1.959,7.139,4.194,7.139C5.782,7.139,11.957,7.48,16.053,6.633Z" /></g><g id="i1" transform="matrix(1,0,0,1,463.609,145.912)"><path fill="#5dbdfb" d="M-16.478,1.594C-16.047,1.449,-16.073,0.908,-15.619,0.81C-14.74,0.619,-14.161,1.709,-13.328,1.733C-12.076,1.75,-11.508,0.289,-9.99,0.44C-7.811,0.654,-7.456,2.633,-5.738,0.492C-5.177,-0.202,-5.026,-1.116,-3.918,-1.111C-3.016,-1.111,-2.394,-0.208,-1.789,0.35C-0.875,-0.156,-0.82,-1.709,-0.108,-2.467C0.507,-3.127,1.803,-3.76,2.76,-3.822C5.879,-4.003,7.449,0.029,8.737,2.225C10.605,0.547,12.616,-0.405,14.733,1.259C15.344,1.739,14.896,1.75,15.598,1.958C15.934,2.062,16.452,1.932,16.775,1.878C17.77,1.704,18.575,1.238,19.254,0.547C19.249,1.906,17.684,2.705,15.505,3.156C11.41,4.003,5.234,3.662,3.646,3.662C-2.507,3.662,-8.67,3.648,-14.82,3.662C-16.096,3.668,-18.283,3.555,-19.255,2.866C-19.116,2.543,-18.873,2.184,-18.424,1.744C-17.809,1.145,-17.149,1.82,-16.478,1.594Z" /></g></g></g></g></svg>