<?xml version="1.0" encoding="UTF-8"?>
<svg xmlns="http://www.w3.org/2000/svg" id="Layer_1" version="1.1" viewBox="0 0 309.96 46.5">
  <defs>
    <style>
      .st0 {
        fill: #0094c9;
      }

      .st1 {
        fill: #00aeef;
      }

      .st2 {
        fill: #fff;
      }

      .st3 {
        fill: #ee3124;
      }
    </style>
  </defs>
  <g>
    <polygon class="st3" points="107.91 1.23 114.35 15.49 101.73 30.4 106.57 30.4 118.14 15.46 112.34 1.23 107.91 1.23"></polygon>
    <path class="st0" d="M101.92,11.1c-.28.69-.85,1.33-1.71,1.92s-2.09,1.07-3.68,1.45c-1.59.37-3.68.56-6.28.56h-1.59c-.63,0-1.24-.03-1.83-.06.32-1.54.71-2.94,1.18-4.24.47-1.29,1.09-2.41,1.85-3.32.76-.93,1.7-1.64,2.8-2.16,1.1-.51,2.41-.76,3.95-.76,1.89,0,3.31.41,4.28,1.21.96.8,1.45,1.95,1.45,3.45,0,.63-.14,1.28-.41,1.98M103.73,3.05c-1.75-1.37-4.04-2.06-6.87-2.06-3.58,0-6.4.93-8.45,2.77-2.07,1.84-3.54,4.34-4.45,7.49-.51,1.76-.93,3.55-1.24,5.37-.32,1.8-.47,3.4-.47,4.77,0,2.87.86,5.15,2.59,6.84s4.26,2.54,7.6,2.54c1.76,0,3.49-.25,5.19-.76,1.69-.51,3.22-1.37,4.59-2.59l-2.59-2.77c-.94.9-2.03,1.57-3.27,2.01s-2.45.65-3.63.65c-2.36,0-4.07-.57-5.15-1.71s-1.62-2.59-1.62-4.37c0-.36.03-.77.09-1.27s.15-.99.27-1.51c.51.04,1.07.06,1.68.06h1.56c3.5,0,6.34-.28,8.54-.85s3.91-1.32,5.13-2.23c1.22-.93,2.04-1.98,2.47-3.15.43-1.18.65-2.37.65-3.59,0-2.36-.88-4.23-2.63-5.6M77.5,10.36c-.06.39-.13.82-.2,1.29l-1.65,8.43c-.47,2.47-1.4,4.28-2.77,5.39s-3.11,1.68-5.19,1.68c-1.26,0-2.54-.15-3.86-.47s-2.89-.94-4.75-1.89l3.07-16.09c1.97-1.14,3.91-2.08,5.84-2.83s3.5-1.12,4.71-1.12c1.54,0,2.73.33,3.59,1,.86.67,1.29,1.83,1.29,3.48,0,.36-.03.72-.09,1.12M79.44,2.76c-1.4-1.18-3.29-1.76-5.69-1.76-.55,0-1.15.05-1.8.15s-1.41.29-2.3.56c-.89.28-1.88.67-2.98,1.18-1.1.51-2.36,1.15-3.77,1.94l.11-3.41h-3.3l-7.84,40.77h3.77l2.65-13.67c2.08.98,3.82,1.6,5.22,1.85s2.66.38,3.79.38c3.58,0,6.32-.89,8.22-2.65s3.19-4.3,3.86-7.6l1.83-9.31c.11-.55.19-1.07.24-1.56.04-.49.06-.95.06-1.38,0-2.47-.7-4.3-2.09-5.48M47.98,22.93c-2.08,1.18-4.06,2.13-5.95,2.88s-3.45,1.12-4.71,1.12c-1.5,0-2.65-.36-3.48-1.09-.82-.72-1.23-1.87-1.23-3.44,0-.39.03-.79.09-1.21.06-.41.13-.85.2-1.32l1.59-8.11c.51-2.47,1.4-4.28,2.65-5.41,1.26-1.13,2.83-1.7,4.71-1.7,1.45,0,2.97.29,4.53.88,1.57.58,3.05,1.43,4.42,2.53l-2.83,14.87s0,0,0,0ZM52.75,1.35l-1.18,2.94c-1.18-.75-2.25-1.33-3.21-1.76s-1.83-.76-2.59-1c-.76-.23-1.46-.38-2.09-.44-.62-.06-1.19-.09-1.71-.09-3.19,0-5.69.85-7.51,2.56-1.83,1.71-3.07,4.24-3.74,7.58l-1.83,9.43c-.19,1.1-.29,2.03-.29,2.77,0,2.44.7,4.28,2.09,5.51,1.4,1.24,3.27,1.85,5.62,1.85.55,0,1.15-.05,1.8-.15s1.4-.28,2.25-.53c.84-.25,1.83-.62,2.94-1.12s2.42-1.13,3.92-1.92l-.18,3.41h3.36L56.05,1.35h-3.3ZM21.13,22.93c-2.08,1.18-4.06,2.13-5.95,2.88s-3.45,1.12-4.71,1.12c-1.5,0-2.65-.36-3.48-1.09-.82-.72-1.24-1.87-1.24-3.44,0-.39.03-.79.09-1.21.06-.41.13-.85.2-1.32l1.59-8.11c.51-2.47,1.4-4.28,2.65-5.41,1.26-1.13,2.83-1.7,4.72-1.7,1.45,0,2.97.29,4.53.88,1.57.58,3.05,1.43,4.42,2.53l-2.83,14.87s.01,0,.01,0ZM25.9,1.35l-1.18,2.94c-1.18-.75-2.25-1.33-3.21-1.76-.96-.43-1.83-.76-2.59-1-.76-.23-1.46-.38-2.09-.44-.63-.06-1.19-.09-1.71-.09-3.19,0-5.69.85-7.51,2.56-1.83,1.71-3.07,4.24-3.74,7.58l-1.83,9.43c-.2,1.1-.29,2.03-.29,2.77,0,2.44.7,4.28,2.09,5.51,1.4,1.24,3.27,1.85,5.62,1.85.55,0,1.15-.05,1.8-.15s1.4-.28,2.25-.53,1.83-.62,2.94-1.12c1.12-.49,2.42-1.13,3.92-1.92l-.18,3.41h3.36L29.2,1.35h-3.3ZM117.11,21.01l3.88,9.39h4.53l-5.85-12.72-2.58,3.31h.01v.02ZM118.83,10.31l7.07-9.09h4.83l-10.55,12.4-1.36-3.31h.01Z"></path>
    <g>
      <path class="st0" d="M61.72,37.71c0,.11-.03.22-.04.33,0,.1-.03.22-.04.33-.41.06-.75.14-1.02.24-.28.1-.49.19-.65.29-.1.55-.22,1.08-.32,1.61s-.2,1.07-.3,1.61h-.58l.85-4.35h.48l-.04.62c.2-.16.46-.32.75-.44.3-.13.6-.22.9-.23h.01Z"></path>
      <path class="st0" d="M63.7,37.71c.42,0,.76.1,1.03.3.27.2.39.48.39.84,0,.18-.04.37-.1.53-.06.18-.19.33-.37.47s-.44.25-.77.33c-.33.09-.76.13-1.28.13h-.48c0,.08-.03.15-.04.23,0,.08,0,.14,0,.19,0,.27.08.48.24.65.16.16.42.25.77.25.18,0,.36-.04.55-.1s.34-.16.49-.3l.39.42c-.2.18-.43.32-.69.39s-.51.11-.77.11c-.49,0-.88-.13-1.14-.38s-.39-.6-.39-1.03c0-.2.03-.44.08-.71s.11-.53.19-.8c.14-.47.36-.85.67-1.12.3-.28.74-.42,1.27-.42h-.03v.02ZM63.66,38.23c-.23,0-.43.04-.6.11s-.3.18-.42.32-.2.3-.28.49-.13.41-.18.63h.52c.39,0,.7-.03.94-.09.24-.05.42-.13.55-.22s.22-.18.25-.29c.04-.1.06-.2.06-.29,0-.23-.08-.39-.22-.52-.14-.11-.36-.18-.63-.18v.03h.01Z"></path>
      <path class="st0" d="M68.19,42.11l.03-.51c-.23.11-.42.22-.58.29-.16.08-.32.13-.44.16-.13.04-.24.06-.33.08-.1,0-.19.03-.27.03-.36,0-.63-.09-.84-.28s-.32-.46-.32-.82c0-.11.01-.25.04-.42l.28-1.41c.1-.49.29-.88.56-1.13s.65-.38,1.13-.38c.08,0,.16,0,.25,0,.09,0,.2.03.32.06.11.04.24.09.39.15.14.06.3.15.48.27l.18-.44h.49l-.85,4.35h-.52ZM68.76,38.78c-.2-.16-.43-.29-.66-.38-.24-.09-.46-.13-.69-.13-.28,0-.52.09-.71.25s-.32.44-.39.81l-.24,1.22c0,.08-.03.14-.03.2s-.01.13-.01.18c0,.23.06.41.19.52.13.11.29.16.52.16.19,0,.42-.05.71-.16.28-.11.58-.25.89-.43l.42-2.23h0Z"></path>
      <path class="st0" d="M72.46,42.11v-.51c-.19.11-.37.22-.53.29-.16.08-.3.13-.43.18s-.24.06-.36.08-.19,0-.28,0c-.36,0-.65-.09-.85-.28s-.3-.47-.3-.84c0-.06,0-.13.01-.2s.03-.15.03-.23l.27-1.37c.1-.49.32-.88.65-1.14s.72-.39,1.18-.39c.16,0,.36.03.57.06.2.04.47.13.76.25l.43-2.23h.57l-1.22,6.32h-.51s.01,0,.01,0ZM73.07,38.61c-.48-.24-.91-.37-1.28-.37-.3,0-.57.09-.79.27s-.37.46-.44.84l-.23,1.23c-.03.11-.04.23-.04.33,0,.24.06.43.19.53.13.11.3.16.53.16.18,0,.42-.05.71-.15s.58-.25.88-.43c0,0,.47-2.41.47-2.41Z"></path>
      <path class="st0" d="M76.56,39.04c.08-.13.13-.23.18-.33s.09-.19.11-.27c.04-.08.05-.16.08-.24s.03-.16.03-.27v-.16h.57v.16c0,.13,0,.24-.03.36-.01.1-.04.2-.08.3s-.08.19-.13.29c-.05.09-.1.19-.16.3l-2.61,4.75h-.62l.99-1.84-.24-.27-.51-4.05h.58l.22,1.9c0,.11.03.25.05.43s.04.36.06.55.04.37.06.55.04.32.05.43h.01l1.4-2.58v-.03.02Z"></path>
      <path class="st0" d="M80.16,42.61c-.04.19-.08.37-.14.53-.05.16-.14.3-.23.42s-.23.2-.39.27-.37.1-.62.1h-.23c-.09,0-.16,0-.27-.03l.1-.53s.09,0,.14,0h.14c.16,0,.3-.03.42-.06s.2-.1.27-.18c.06-.08.11-.16.16-.28.04-.11.06-.23.09-.36l.82-4.24h-.61l.1-.52h.61l.13-.7c.04-.19.08-.37.14-.53s.14-.3.24-.43c.1-.11.23-.22.39-.29s.37-.1.61-.1c.19,0,.39.03.6.06l-.1.52c-.08,0-.14,0-.2,0h-.18c-.18,0-.32.03-.43.06s-.19.1-.27.18c-.06.08-.11.16-.15.28s-.06.23-.09.38l-.13.6h1.1l-.1.52h-1.1l-.85,4.34h.03Z"></path>
      <path class="st0" d="M85.53,40.6c-.11.57-.34.96-.67,1.21-.34.24-.76.36-1.26.36-.22,0-.41-.03-.6-.09s-.36-.15-.49-.28c-.14-.13-.25-.28-.34-.46s-.13-.39-.13-.62v-.19c0-.06.01-.13.03-.2l.19-1c.09-.49.29-.88.6-1.17.3-.28.74-.43,1.29-.43.25,0,.48.04.67.11.2.08.37.18.51.32s.24.29.32.47.11.37.11.58v.16c0,.06-.01.11-.03.18l-.19,1.07h-.01v-.02ZM85.15,39.58c.03-.1.04-.2.04-.32,0-.16-.03-.3-.09-.43-.05-.13-.13-.23-.23-.32s-.22-.15-.34-.19c-.13-.04-.27-.06-.42-.06-.33,0-.61.09-.84.27s-.38.47-.47.9l-.18.93s-.03.11-.03.16v.15c0,.16.03.32.09.44s.14.23.24.3.22.14.33.18c.13.04.25.06.39.06.15,0,.29,0,.43-.06.14-.04.27-.1.38-.19s.22-.2.3-.37c.09-.15.15-.34.2-.57l.18-.89h.02Z"></path>
      <path class="st0" d="M89.02,37.71c0,.11-.03.22-.04.33-.01.1-.03.22-.04.33-.41.06-.75.14-1.02.24-.28.1-.49.19-.65.29-.1.55-.22,1.08-.32,1.61s-.2,1.07-.3,1.61h-.58l.85-4.35h.48l-.04.62c.2-.16.46-.32.75-.44.3-.13.6-.22.9-.23h.01Z"></path>
      <path class="st0" d="M92.88,37.71c.42,0,.76.1,1.03.3s.39.48.39.84c0,.18-.04.37-.1.53-.06.18-.19.33-.37.47s-.44.25-.77.33c-.33.09-.76.13-1.28.13h-.48c-.01.08-.03.15-.04.23,0,.08-.01.14-.01.19,0,.27.08.48.24.65.16.16.42.25.77.25.18,0,.36-.04.55-.1s.34-.16.49-.3l.39.42c-.2.18-.43.32-.69.39s-.51.11-.77.11c-.49,0-.88-.13-1.14-.38s-.39-.6-.39-1.03c0-.2.03-.44.08-.71s.11-.53.19-.8c.14-.47.36-.85.67-1.12.3-.28.74-.42,1.27-.42h-.03v.02ZM92.85,38.23c-.23,0-.43.04-.6.11-.16.08-.3.18-.42.32-.11.14-.2.3-.28.49s-.13.41-.18.63h.52c.39,0,.7-.03.94-.09.24-.05.42-.13.55-.22s.22-.18.25-.29c.04-.1.06-.2.06-.29,0-.23-.08-.39-.22-.52-.14-.11-.36-.18-.63-.18v.03h0Z"></path>
      <path class="st0" d="M96,42.11h-.55c-.13-.74-.24-1.46-.37-2.17s-.24-1.45-.37-2.18h.6c.05.32.09.63.14.95s.09.63.14.95c.05.28.09.57.13.85s.08.57.13.85h.03c.22-.39.43-.77.65-1.17.22-.39.43-.77.65-1.17.13-.24.23-.44.29-.6.06-.15.1-.33.1-.52v-.16h.57v.16c0,.13,0,.24-.03.36-.01.1-.05.2-.08.3-.04.1-.08.19-.13.28s-.1.19-.16.29l-1.74,2.97h0Z"></path>
      <path class="st0" d="M100.25,37.71c.42,0,.76.1,1.03.3s.39.48.39.84c0,.18-.04.37-.1.53-.06.18-.19.33-.37.47s-.44.25-.77.33c-.33.09-.76.13-1.28.13h-.48c-.01.08-.03.15-.04.23,0,.08-.01.14-.01.19,0,.27.08.48.24.65.16.16.42.25.77.25.18,0,.36-.04.55-.1s.34-.16.49-.3l.39.42c-.2.18-.43.32-.69.39s-.51.11-.77.11c-.49,0-.88-.13-1.14-.38s-.39-.6-.39-1.03c0-.2.03-.44.08-.71s.11-.53.19-.8c.14-.47.36-.85.67-1.12.3-.28.74-.42,1.27-.42h-.03v.02ZM100.21,38.23c-.23,0-.43.04-.6.11-.16.08-.3.18-.42.32-.11.14-.2.3-.28.49s-.13.41-.18.63h.52c.39,0,.7-.03.94-.09.24-.05.42-.13.55-.22s.22-.18.25-.29c.04-.1.06-.2.06-.29,0-.23-.08-.39-.22-.52-.14-.11-.36-.18-.63-.18v.03h0Z"></path>
      <path class="st0" d="M104.84,37.71c0,.11-.03.22-.04.33-.01.1-.03.22-.04.33-.41.06-.75.14-1.02.24-.28.1-.49.19-.65.29-.1.55-.22,1.08-.32,1.61s-.2,1.07-.3,1.61h-.58l.85-4.35h.48l-.04.62c.2-.16.46-.32.75-.44.3-.13.6-.22.9-.23h.01Z"></path>
      <path class="st0" d="M107.53,39.04c.08-.13.13-.23.18-.33s.09-.19.11-.27c.04-.08.05-.16.08-.24s.03-.16.03-.27v-.16h.57v.16c0,.13,0,.24-.03.36-.01.1-.04.2-.08.3s-.08.19-.13.29c-.05.09-.1.19-.16.3l-2.61,4.75h-.62l.99-1.84-.24-.27-.51-4.05h.58l.22,1.9c0,.11.03.25.05.43.03.18.04.36.06.55.03.19.04.37.06.55.03.18.04.32.05.43h.01l1.4-2.58v-.03.02Z"></path>
      <path class="st0" d="M112.63,37.71c.32,0,.6.04.82.1s.44.18.65.32l-.33.44c-.16-.11-.36-.2-.55-.25s-.41-.09-.62-.09c-.33,0-.61.08-.82.22s-.33.33-.33.57c0,.09.03.18.08.24s.11.13.19.18.16.09.27.11c.1.04.2.06.3.09.15.04.3.08.48.11.18.05.33.1.48.19s.27.19.37.32.14.3.14.51c0,.23-.05.42-.14.6s-.22.32-.38.44c-.16.13-.37.22-.6.28-.23.06-.48.1-.76.1s-.58-.04-.86-.11-.53-.22-.77-.43l.37-.42c.19.16.39.29.61.37.22.08.47.1.75.1.13,0,.25,0,.39-.04s.27-.08.39-.14c.13-.06.23-.15.3-.27.08-.11.13-.24.13-.41,0-.19-.06-.33-.2-.42s-.3-.16-.52-.2c-.16-.04-.33-.09-.52-.13s-.36-.1-.52-.18c-.16-.08-.29-.18-.41-.3-.1-.13-.16-.3-.16-.52s.05-.42.15-.6c.1-.16.23-.32.39-.43s.34-.2.56-.25.43-.09.65-.09h.03-.01Z"></path>
      <path class="st0" d="M117.1,37.71c.37,0,.65.09.86.28.2.19.32.46.32.82,0,.11-.01.25-.04.42l-.56,2.88h-.58l.53-2.78c0-.08.03-.14.03-.2s.01-.11.01-.18c0-.24-.06-.42-.19-.53s-.3-.16-.53-.16c-.19,0-.43.05-.71.16s-.57.25-.88.46l-.62,3.22h-.58l1.23-6.32h.57l-.48,2.49c.2-.13.39-.22.55-.29.16-.08.3-.13.43-.18s.24-.06.34-.09c.1,0,.2-.03.29-.03v.03h.01Z"></path>
      <path class="st0" d="M120.07,37.76l-.63,3.3c-.01.09-.03.16-.03.22,0,.11.04.2.1.24.06.05.16.08.3.09l-.1.53h-.09c-.27,0-.47-.06-.6-.19-.14-.13-.2-.29-.2-.52,0-.08,0-.18.03-.28l.65-3.4h.57,0ZM120.41,36.36c0,.11-.06.22-.15.29s-.19.11-.29.11c-.09,0-.16-.03-.22-.09s-.09-.13-.09-.22c0-.11.05-.22.13-.3.09-.09.19-.13.3-.13.09,0,.16.03.23.09.05.06.09.13.09.22v.04h0Z"></path>
      <path class="st0" d="M121.15,42.61c-.04.19-.08.37-.14.53-.05.16-.14.3-.23.42s-.23.2-.39.27-.37.1-.62.1h-.23c-.09,0-.16,0-.27-.03l.1-.53s.09,0,.14,0h.14c.16,0,.3-.03.42-.06s.2-.1.27-.18c.06-.08.11-.16.16-.28.04-.11.06-.23.09-.36l.82-4.24h-.61l.1-.52h.61l.13-.7c.04-.19.08-.37.14-.53s.14-.3.24-.43c.1-.11.23-.22.39-.29s.37-.1.61-.1c.19,0,.39.03.6.06l-.1.52c-.08,0-.14,0-.2,0h-.18c-.18,0-.32.03-.43.06s-.19.1-.27.18c-.06.08-.11.16-.15.28-.04.11-.06.23-.09.38l-.13.6h1.1l-.1.52h-1.1l-.85,4.34h.03Z"></path>
      <path class="st0" d="M125.35,42.05c-.16.05-.32.08-.48.09s-.28.03-.37.03c-.38,0-.65-.08-.8-.23-.16-.15-.24-.38-.24-.66,0-.14.01-.29.05-.47l.49-2.53h-.65l.1-.52h.65l.34-1.03h.42l-.19,1.03h1.21l-.1.52h-1.21l-.47,2.39c0,.08-.03.14-.03.2s0,.13-.01.19c0,.18.05.32.13.41.09.09.24.14.47.14.16,0,.37-.03.65-.08l.03.52h.01Z"></path>
    </g>
  </g>
  <g>
    <path class="st1" d="M139.64,17.44V5.77h2.38l5.7,7.83v-7.83h2.27v11.67h-2.27l-5.8-7.99v7.99h-2.28Z"></path>
    <path class="st1" d="M157.86,17.64c-1.18,0-2.22-.26-3.12-.78-.91-.52-1.61-1.23-2.13-2.13-.51-.91-.77-1.94-.77-3.11s.26-2.24.77-3.14c.51-.91,1.21-1.61,2.11-2.13.89-.51,1.93-.77,3.09-.77s2.21.26,3.11.78c.89.52,1.6,1.23,2.11,2.13.51.91.77,1.95.77,3.13s-.25,2.2-.76,3.11-1.21,1.62-2.1,2.13-1.92.78-3.08.78ZM157.86,15.56c.71,0,1.34-.17,1.88-.51s.96-.8,1.27-1.39c.3-.59.46-1.27.46-2.03s-.16-1.46-.47-2.05-.74-1.05-1.28-1.39c-.54-.34-1.18-.51-1.9-.51s-1.32.17-1.87.51c-.55.34-.98.8-1.29,1.39s-.47,1.27-.47,2.05.16,1.45.47,2.03.74,1.05,1.3,1.39,1.19.51,1.92.51Z"></path>
    <path class="st1" d="M168.83,17.44l-4.65-11.67h2.45l4.43,11.67h-2.23ZM169.08,17.44l4.42-11.67h2.45l-4.63,11.67h-2.23Z"></path>
    <path class="st1" d="M177.35,17.44V5.77h7.39v2.08h-5.1v2.65h4.4v2.03h-4.4v2.82h5.17v2.08h-7.45Z"></path>
    <path class="st1" d="M187.17,17.44V5.77h2.48l3.4,5.03,3.4-5.03h2.47v11.67h-2.27v-8.1l-3.6,5.3-3.6-5.29v8.09h-2.28Z"></path>
    <path class="st1" d="M201.45,17.44V5.77h3.95c.8,0,1.5.12,2.1.37.6.25,1.07.61,1.4,1.11.33.49.5,1.11.5,1.84,0,.46-.11.88-.34,1.26-.23.38-.55.71-.96.99.54.28.96.65,1.26,1.11s.44,1.01.44,1.66c0,.71-.16,1.32-.48,1.82-.32.5-.77.88-1.35,1.13-.58.26-1.26.38-2.03.38h-4.49ZM203.69,10.52h1.77c.5,0,.89-.13,1.18-.38.29-.25.43-.62.43-1.08s-.16-.83-.48-1.08c-.32-.26-.76-.38-1.32-.38h-1.58v2.93ZM203.69,15.42h2.03c.54,0,.97-.14,1.28-.41.31-.27.47-.64.47-1.09s-.17-.85-.52-1.13c-.34-.27-.82-.41-1.42-.41h-1.85v3.03Z"></path>
    <path class="st1" d="M211.66,17.44V5.77h7.39v2.08h-5.1v2.65h4.4v2.03h-4.4v2.82h5.17v2.08h-7.45Z"></path>
    <path class="st1" d="M221.48,17.44V5.77h4.33c.82,0,1.55.16,2.18.48.63.32,1.13.76,1.48,1.33s.53,1.21.53,1.96-.19,1.39-.56,1.96c-.37.57-.88,1.02-1.53,1.33-.64.32-1.38.47-2.2.47h-1.97v4.13h-2.28ZM223.76,11.22h2.07c.34,0,.65-.07.93-.22.27-.14.49-.34.65-.6.16-.26.24-.54.24-.87,0-.5-.18-.91-.54-1.22-.36-.31-.83-.47-1.39-.47h-1.95v3.37ZM227.9,17.44l-2.7-4.68,1.75-1.25,3.53,5.94h-2.58Z"></path>
    <path class="st1" d="M239.62,17.64c-.69,0-1.31-.1-1.87-.31s-1.02-.5-1.39-.88c-.37-.38-.63-.84-.78-1.36l2.1-.62c.08.13.18.3.32.49.13.19.32.36.55.49.23.13.54.2.92.2.56,0,1-.15,1.33-.46.33-.31.49-.7.49-1.19,0-.33-.08-.63-.25-.88-.17-.25-.44-.45-.81-.59-.37-.14-.86-.21-1.46-.21h-.7v-1.55h.62c.67,0,1.29.08,1.88.24s1.11.39,1.56.7c.45.31.8.67,1.06,1.1.25.43.38.91.38,1.46,0,.7-.18,1.3-.55,1.81-.37.51-.85.89-1.45,1.16-.6.27-1.25.4-1.95.4ZM238.07,11.91v-1.45h.7c.78,0,1.36-.13,1.73-.4s.57-.63.57-1.1c0-.27-.07-.5-.2-.72-.13-.21-.32-.38-.57-.5-.24-.12-.53-.18-.85-.18-.21,0-.43.04-.65.11-.22.07-.43.19-.61.35-.18.16-.33.39-.44.69l-2.07-.62c.16-.54.43-1,.81-1.38.38-.37.84-.66,1.38-.85.53-.19,1.08-.29,1.65-.29.72,0,1.37.14,1.95.41s1.03.65,1.37,1.12c.33.48.5,1.03.5,1.65,0,.53-.13.99-.38,1.38-.26.39-.6.72-1.04.98-.44.27-.94.46-1.49.59-.56.13-1.13.19-1.73.19h-.62Z"></path>
    <path class="st1" d="M245.1,13.42v-1.88h5v1.88h-5Z"></path>
    <path class="st1" d="M255.89,17.64c-.53,0-1.08-.09-1.64-.27-.56-.18-1.07-.44-1.52-.8-.45-.36-.78-.79-.99-1.32l2.08-.62c.24.36.54.62.88.78.34.17.69.25,1.06.25.58,0,1.05-.17,1.41-.52.36-.35.54-.82.54-1.41,0-.54-.17-1-.53-1.37-.35-.37-.81-.55-1.39-.55-.34,0-.66.08-.95.23-.29.16-.51.34-.67.55l-2.05-.45.7-6.38h6.6v2.07h-4.65l-.33,2.8c.3-.17.63-.3,1-.41.37-.11.76-.15,1.18-.14.63,0,1.21.15,1.73.46s.94.72,1.24,1.25c.3.53.46,1.14.46,1.84,0,.79-.18,1.48-.53,2.08-.36.6-.84,1.07-1.47,1.41-.62.34-1.34.51-2.17.51Z"></path>
    <path class="st1" d="M261.17,19.34l1.02-3.93h2.28l-1.63,3.93h-1.67Z"></path>
    <path class="st1" d="M269.79,17.44v-1.68c0-.32.1-.68.3-1.07.2-.39.48-.78.83-1.17.36-.39.77-.75,1.25-1.08l1.77-1.27c.24-.17.47-.36.69-.57.22-.21.39-.44.53-.69.14-.25.21-.49.21-.73,0-.29-.07-.55-.21-.78-.14-.23-.34-.42-.61-.55-.27-.13-.59-.2-.98-.2-.33,0-.63.07-.89.2-.26.13-.48.31-.64.53-.17.22-.28.46-.35.72l-2.35-.4c.11-.56.35-1.07.72-1.55.37-.48.85-.86,1.44-1.16.59-.29,1.27-.44,2.03-.44.87,0,1.61.16,2.23.47.62.31,1.1.74,1.44,1.28s.51,1.16.51,1.88-.2,1.37-.59,1.93c-.39.56-.94,1.09-1.63,1.58l-1.58,1.15c-.32.22-.6.47-.83.73-.23.27-.41.56-.53.88h5.32v2h-8.07Z"></path>
    <path class="st1" d="M284,17.64c-.94,0-1.78-.26-2.5-.78-.72-.52-1.29-1.23-1.7-2.13s-.62-1.95-.62-3.13.21-2.22.62-3.13.98-1.62,1.69-2.13c.72-.52,1.55-.78,2.49-.78s1.78.26,2.51.78c.73.52,1.3,1.23,1.71,2.13s.62,1.95.62,3.13-.21,2.22-.62,3.13-.98,1.62-1.7,2.13-1.56.78-2.5.78ZM284,15.58c.5,0,.95-.17,1.34-.51.39-.34.7-.81.92-1.4s.33-1.28.33-2.06-.11-1.47-.33-2.07c-.22-.6-.53-1.07-.92-1.41-.4-.34-.85-.51-1.36-.51s-.94.17-1.33.51c-.39.34-.69.81-.91,1.41-.22.6-.33,1.29-.33,2.07s.11,1.46.33,2.06.52,1.06.92,1.4c.39.34.84.51,1.34.51Z"></path>
    <path class="st1" d="M290.25,17.44v-1.68c0-.32.1-.68.3-1.07.2-.39.48-.78.83-1.17.36-.39.77-.75,1.25-1.08l1.77-1.27c.24-.17.47-.36.69-.57.22-.21.39-.44.53-.69.14-.25.21-.49.21-.73,0-.29-.07-.55-.21-.78-.14-.23-.34-.42-.61-.55-.27-.13-.59-.2-.98-.2-.33,0-.63.07-.89.2-.26.13-.48.31-.64.53-.17.22-.28.46-.35.72l-2.35-.4c.11-.56.35-1.07.72-1.55.37-.48.85-.86,1.44-1.16.59-.29,1.27-.44,2.03-.44.87,0,1.61.16,2.23.47.62.31,1.1.74,1.44,1.28s.51,1.16.51,1.88-.2,1.37-.59,1.93c-.39.56-.94,1.09-1.63,1.58l-1.58,1.15c-.32.22-.6.47-.83.73-.23.27-.41.56-.53.88h5.32v2h-8.07Z"></path>
    <path class="st1" d="M304.04,17.64c-.79,0-1.46-.14-2.01-.42-.55-.28-1-.68-1.35-1.18-.35-.5-.61-1.08-.77-1.74s-.24-1.38-.24-2.14c0-.89.09-1.73.28-2.53.19-.79.47-1.5.86-2.11s.88-1.09,1.48-1.43,1.32-.52,2.17-.52c.61,0,1.21.09,1.79.27.58.18,1.11.43,1.58.77l-1.13,1.67c-.34-.24-.71-.42-1.11-.53-.39-.11-.76-.17-1.09-.17-.86,0-1.53.38-2.02,1.13-.49.76-.72,1.95-.7,3.58l-.45-.32c.25-.61.65-1.1,1.18-1.47s1.17-.55,1.9-.55,1.4.17,1.98.52,1.02.81,1.35,1.41.49,1.26.49,1.99-.17,1.37-.52,1.94c-.34.57-.83,1.02-1.46,1.34-.63.32-1.37.48-2.21.48ZM304.04,15.71c.37,0,.69-.08.98-.25.29-.17.52-.39.68-.68.17-.29.25-.62.25-1s-.08-.71-.25-1.01c-.17-.29-.39-.53-.68-.7-.29-.17-.62-.26-.98-.26s-.7.09-.99.26c-.29.17-.53.41-.69.7-.17.29-.25.63-.25,1.01s.08.71.25,1c.17.29.4.52.69.68.29.17.62.25.99.25Z"></path>
  </g>
  <g>
    <path class="st1" d="M140.46,29.14v-5.36h-1.96v-1.17h5.18v1.17h-1.95v5.36h-1.28Z"></path>
    <path class="st1" d="M144.52,29.14v-6.53h1.28v6.53h-1.28ZM145.47,26.39v-1.17h3.95v1.17h-3.95ZM148.82,29.14v-6.53h1.28v6.53h-1.28Z"></path>
    <path class="st1" d="M151.51,29.14v-6.53h4.13v1.17h-2.85v1.48h2.46v1.14h-2.46v1.58h2.89v1.17h-4.17Z"></path>
    <path class="st1" d="M161.19,29.14l-2.6-6.53h1.37l2.48,6.53h-1.25ZM161.33,29.14l2.47-6.53h1.37l-2.59,6.53h-1.25Z"></path>
    <path class="st1" d="M165.95,29.14v-6.53h4.13v1.17h-2.85v1.48h2.46v1.14h-2.46v1.58h2.89v1.17h-4.17Z"></path>
    <path class="st1" d="M171.44,29.14v-6.53h1.33l3.19,4.38v-4.38h1.27v6.53h-1.27l-3.24-4.46v4.46h-1.28Z"></path>
    <path class="st1" d="M178.65,29.14v-6.53h4.13v1.17h-2.85v1.48h2.46v1.14h-2.46v1.58h2.89v1.17h-4.17Z"></path>
    <path class="st1" d="M185.52,29.14v-5.36h-1.96v-1.17h5.18v1.17h-1.95v5.36h-1.28Z"></path>
    <path class="st1" d="M189.58,29.14v-6.53h1.28v6.53h-1.28Z"></path>
    <path class="st1" d="M191.64,29.14l2.57-6.53h1.28l-2.5,6.53h-1.35ZM192.85,27.7v-1.13h4.09v1.13h-4.09ZM196.8,29.14l-2.5-6.53h1.28l2.57,6.53h-1.35Z"></path>
    <path class="st1" d="M198.93,29.14v-6.53h1.33l3.19,4.38v-4.38h1.27v6.53h-1.27l-3.24-4.46v4.46h-1.28Z"></path>
    <path class="st1" d="M208.36,29.14v-6.53h4.13v1.17h-2.85v1.48h2.46v1.14h-2.46v1.58h2.89v1.17h-4.17Z"></path>
    <path class="st1" d="M213.23,29.14l2.53-3.57,2.05-2.96h1.52l-2.47,3.39-2.09,3.13h-1.54ZM217.84,29.14l-2.09-3.13-2.47-3.39h1.52l2.05,2.95,2.53,3.58h-1.54Z"></path>
    <path class="st1" d="M220.18,29.14v-6.53h2.42c.46,0,.87.09,1.22.27.35.18.63.44.83.76.2.33.3.7.3,1.13s-.1.8-.29,1.13c-.19.33-.46.59-.79.78-.33.19-.72.28-1.17.28h-1.25v2.16h-1.28ZM221.45,25.8h1.22c.29,0,.52-.09.7-.28s.28-.43.28-.73-.1-.54-.3-.73c-.2-.19-.46-.28-.78-.28h-1.12v2.02Z"></path>
    <path class="st1" d="M228.78,29.25c-.66,0-1.24-.14-1.75-.43-.51-.29-.9-.69-1.19-1.19s-.43-1.09-.43-1.74.14-1.25.43-1.76.68-.9,1.18-1.19c.5-.29,1.08-.43,1.73-.43s1.24.14,1.74.43c.5.29.89.69,1.18,1.19.28.51.43,1.09.43,1.75s-.14,1.23-.42,1.74-.67.9-1.17,1.19c-.5.29-1.07.43-1.72.43ZM228.78,28.09c.4,0,.75-.09,1.05-.28.3-.19.54-.45.71-.78.17-.33.26-.71.26-1.14s-.09-.82-.26-1.15c-.17-.33-.41-.59-.72-.78s-.66-.28-1.06-.28-.74.1-1.05.28-.55.45-.72.78c-.17.33-.26.71-.26,1.15s.09.81.26,1.14c.17.33.42.59.73.78.31.19.67.28,1.07.28Z"></path>
    <path class="st1" d="M237.01,29.26c-.39,0-.73-.07-1.03-.22-.3-.15-.53-.35-.7-.61-.17-.26-.25-.56-.25-.9,0-.24.04-.45.13-.65.09-.2.21-.38.36-.55.16-.17.33-.32.52-.45l1.23-.85c.1-.07.21-.15.32-.23.11-.09.22-.19.31-.31.09-.12.13-.26.13-.41,0-.18-.06-.32-.2-.42s-.3-.15-.49-.15c-.19,0-.34.05-.47.16-.13.11-.19.24-.19.41s.05.3.15.42.21.26.35.42l1.24,1.49,2.28,2.76h-1.44l-1.73-2.07-1.31-1.58c-.17-.22-.31-.41-.41-.57-.11-.16-.19-.32-.24-.46-.05-.14-.08-.28-.08-.42,0-.3.08-.56.24-.79.16-.23.37-.41.64-.55s.57-.2.91-.2c.37,0,.69.07.98.2s.51.32.68.55c.16.24.25.51.25.83,0,.25-.07.49-.2.7-.13.21-.32.43-.57.65-.25.22-.56.45-.92.7l-.66.46c-.1.07-.19.15-.28.23s-.15.18-.2.29c-.05.11-.08.23-.08.38,0,.21.07.39.22.52.15.14.33.2.56.2.26,0,.52-.04.77-.12.25-.08.49-.2.69-.36.21-.16.37-.36.49-.6s.18-.51.18-.81h1.15c0,.57-.14,1.08-.43,1.52s-.68.79-1.18,1.04c-.5.25-1.08.37-1.74.37Z"></path>
    <path class="st1" d="M242.97,29.14l2.57-6.53h1.28l-2.5,6.53h-1.35ZM244.18,27.7v-1.13h4.09v1.13h-4.09ZM248.12,29.14l-2.5-6.53h1.28l2.57,6.53h-1.35Z"></path>
    <path class="st1" d="M249.62,29.14l2.57-6.53h1.28l-2.5,6.53h-1.35ZM250.84,27.7v-1.13h4.09v1.13h-4.09ZM254.78,29.14l-2.5-6.53h1.28l2.57,6.53h-1.35Z"></path>
    <path class="st1" d="M256.91,29.14v-6.53h2.42c.46,0,.87.09,1.22.27.35.18.63.44.83.76.2.33.3.7.3,1.13s-.1.8-.29,1.13c-.19.33-.46.59-.79.78-.33.19-.72.28-1.17.28h-1.25v2.16h-1.28ZM258.19,25.8h1.22c.29,0,.52-.09.7-.28s.28-.43.28-.73-.1-.54-.3-.73c-.2-.19-.46-.28-.78-.28h-1.12v2.02Z"></path>
    <path class="st1" d="M262.54,29.14v-6.53h4.13v1.17h-2.85v1.48h2.46v1.14h-2.46v1.58h2.89v1.17h-4.17Z"></path>
    <path class="st1" d="M267.41,29.14l2.53-3.57,2.05-2.96h1.52l-2.47,3.39-2.09,3.13h-1.54ZM272.02,29.14l-2.09-3.13-2.47-3.39h1.52l2.05,2.95,2.53,3.58h-1.54Z"></path>
    <path class="st1" d="M276.57,29.14v-6.53h4.19v1.17h-2.91v1.57h2.42v1.17h-2.42v2.63h-1.28Z"></path>
    <path class="st1" d="M284.72,29.25c-.66,0-1.24-.14-1.75-.43-.51-.29-.9-.69-1.19-1.19s-.43-1.09-.43-1.74.14-1.25.43-1.76.68-.9,1.18-1.19c.5-.29,1.08-.43,1.73-.43s1.24.14,1.74.43c.5.29.89.69,1.18,1.19.28.51.43,1.09.43,1.75s-.14,1.23-.42,1.74-.67.9-1.17,1.19c-.5.29-1.07.43-1.72.43ZM284.72,28.09c.4,0,.75-.09,1.05-.28.3-.19.54-.45.71-.78.17-.33.26-.71.26-1.14s-.09-.82-.26-1.15c-.17-.33-.41-.59-.72-.78s-.66-.28-1.06-.28-.74.1-1.05.28-.55.45-.72.78c-.17.33-.26.71-.26,1.15s.09.81.26,1.14c.17.33.42.59.73.78.31.19.67.28,1.07.28Z"></path>
    <path class="st1" d="M289.07,29.14v-6.53h2.42c.46,0,.87.09,1.22.27.35.18.63.43.83.74.2.31.3.68.3,1.1s-.1.78-.31,1.1c-.21.32-.49.57-.85.75-.36.18-.77.27-1.23.27h-1.1v2.31h-1.28ZM290.35,25.66h1.16c.19,0,.37-.04.52-.12s.27-.19.36-.34c.09-.14.13-.3.13-.49,0-.28-.1-.51-.3-.68-.2-.17-.46-.26-.78-.26h-1.09v1.88ZM292.66,29.14l-1.51-2.62.98-.7,1.98,3.32h-1.45Z"></path>
    <path class="st1" d="M297.64,29.27c-.54,0-1.01-.11-1.41-.32-.4-.21-.7-.51-.92-.89-.21-.38-.32-.83-.32-1.36v-4.09h1.28v4.09c0,.28.06.52.17.73.11.21.28.37.48.48.21.11.45.17.73.17s.52-.06.73-.17c.21-.11.37-.27.49-.48.11-.21.17-.45.17-.73v-4.09h1.28v4.09c0,.52-.11.97-.33,1.36-.22.38-.53.68-.93.89-.4.21-.88.32-1.42.32Z"></path>
    <path class="st1" d="M301.65,29.14v-6.53h1.39l1.9,2.81,1.9-2.81h1.38v6.53h-1.27v-4.53l-2.01,2.96-2.01-2.96v4.52h-1.28Z"></path>
    <path class="st1" d="M139.08,40.33v-6.53h1.28v5.36h2.87v1.17h-4.15Z"></path>
    <path class="st1" d="M143.45,40.33l2.57-6.53h1.28l-2.5,6.53h-1.35ZM144.66,38.89v-1.13h4.09v1.13h-4.09ZM148.61,40.33l-2.5-6.53h1.28l2.57,6.53h-1.35Z"></path>
    <path class="st1" d="M152.93,40.44c-.33,0-.64-.04-.92-.12-.29-.08-.54-.19-.76-.34-.22-.15-.41-.31-.55-.49-.15-.18-.24-.37-.28-.57l1.25-.37c.08.21.22.39.43.54.2.15.46.23.77.24.33,0,.6-.07.81-.21.21-.15.31-.34.31-.58,0-.2-.08-.38-.25-.52-.16-.14-.39-.25-.68-.32l-.85-.22c-.32-.08-.6-.2-.84-.37-.24-.16-.43-.37-.57-.61-.14-.24-.2-.53-.2-.85,0-.61.2-1.1.61-1.44.41-.34.98-.52,1.73-.52.42,0,.78.06,1.1.18.31.12.58.29.79.52.21.22.37.49.48.79l-1.24.38c-.07-.21-.21-.39-.41-.54s-.45-.22-.75-.22-.55.07-.73.21c-.18.14-.27.34-.27.61,0,.21.07.37.21.49.14.12.33.21.57.27l.86.21c.56.14.99.38,1.3.74s.47.75.47,1.18c0,.39-.09.72-.28,1.01s-.46.51-.81.68c-.35.16-.78.24-1.29.24Z"></path>
    <path class="st1" d="M160.58,40.33l-2.6-6.53h1.37l2.48,6.53h-1.25ZM160.72,40.33l2.47-6.53h1.37l-2.59,6.53h-1.25Z"></path>
    <path class="st1" d="M165.35,40.33v-6.53h4.13v1.17h-2.85v1.48h2.46v1.14h-2.46v1.58h2.89v1.17h-4.17Z"></path>
    <path class="st1" d="M173.87,40.44c-.66,0-1.25-.14-1.77-.43-.51-.29-.92-.69-1.21-1.19s-.44-1.09-.44-1.75.15-1.24.44-1.75.69-.9,1.21-1.19c.51-.29,1.1-.43,1.77-.43.4,0,.76.06,1.1.18s.63.28.89.49c.26.21.47.45.65.71l-1.04.65c-.11-.17-.24-.32-.41-.45-.17-.13-.36-.23-.56-.31-.2-.08-.41-.11-.62-.11-.41,0-.77.09-1.09.28-.32.19-.57.45-.75.78-.18.33-.27.71-.27,1.15s.09.81.27,1.15c.18.34.43.6.75.79s.7.28,1.12.28c.33,0,.62-.07.88-.2.26-.13.46-.31.61-.55s.22-.51.22-.82l1.21-.19c0,.62-.13,1.14-.38,1.58s-.6.77-1.04.99c-.44.23-.96.34-1.53.34ZM174.08,37.83v-1h2.74v.79l-.69.2h-2.05Z"></path>
    <path class="st1" d="M176.91,40.33l2.57-6.53h1.28l-2.5,6.53h-1.35ZM178.12,38.89v-1.13h4.09v1.13h-4.09ZM182.06,40.33l-2.5-6.53h1.28l2.57,6.53h-1.35Z"></path>
    <path class="st1" d="M186.39,40.44c-.33,0-.64-.04-.92-.12-.29-.08-.54-.19-.76-.34-.22-.15-.41-.31-.56-.49-.15-.18-.24-.37-.28-.57l1.25-.37c.08.21.22.39.43.54.21.15.46.23.77.24.33,0,.6-.07.81-.21.21-.15.31-.34.31-.58,0-.2-.08-.38-.25-.52s-.39-.25-.68-.32l-.85-.22c-.32-.08-.6-.2-.84-.37s-.43-.37-.57-.61c-.14-.24-.2-.53-.2-.85,0-.61.2-1.1.61-1.44.41-.34.98-.52,1.73-.52.42,0,.78.06,1.1.18.31.12.58.29.79.52.21.22.37.49.49.79l-1.24.38c-.07-.21-.21-.39-.41-.54s-.45-.22-.76-.22-.55.07-.73.21c-.18.14-.27.34-.27.61,0,.21.07.37.21.49.14.12.33.21.57.27l.86.21c.56.14.99.38,1.31.74.31.35.47.75.47,1.18,0,.39-.09.72-.28,1.01s-.46.51-.81.68c-.35.16-.78.24-1.29.24Z"></path>
    <path class="st1" d="M189.42,41.39l.57-2.2h1.28l-.91,2.2h-.93Z"></path>
    <path class="st1" d="M194.47,40.33v-6.53h1.33l3.19,4.38v-4.38h1.27v6.53h-1.27l-3.24-4.46v4.46h-1.28Z"></path>
    <path class="st1" d="M201.68,40.33v-6.53h4.13v1.17h-2.85v1.48h2.46v1.14h-2.46v1.58h2.89v1.17h-4.17Z"></path>
    <path class="st1" d="M209.13,40.33l-2.6-6.53h1.37l2.48,6.53h-1.25ZM209.27,40.33l2.47-6.53h1.37l-2.59,6.53h-1.25Z"></path>
    <path class="st1" d="M212.53,40.33l2.57-6.53h1.28l-2.5,6.53h-1.35ZM213.75,38.89v-1.13h4.09v1.13h-4.09ZM217.69,40.33l-2.5-6.53h1.28l2.57,6.53h-1.35Z"></path>
    <path class="st1" d="M219.83,40.33v-6.53h2.09c.66,0,1.25.14,1.77.42.51.28.91.66,1.2,1.15s.43,1.05.43,1.69-.14,1.2-.43,1.69-.69.88-1.2,1.16c-.51.28-1.1.42-1.77.42h-2.09ZM221.1,39.13h.81c.3,0,.57-.05.83-.16.25-.11.48-.25.67-.44.19-.19.34-.41.44-.66s.16-.52.16-.82-.05-.56-.16-.82-.25-.47-.44-.66c-.19-.19-.41-.33-.67-.44-.26-.11-.53-.16-.83-.16h-.81v4.14Z"></path>
    <path class="st1" d="M225.72,40.33l2.57-6.53h1.28l-2.5,6.53h-1.35ZM226.93,38.89v-1.13h4.09v1.13h-4.09ZM230.87,40.33l-2.5-6.53h1.28l2.57,6.53h-1.35Z"></path>
  </g>
  <g>
    <path class="st2" d="M103.51-172.9v-20.79h4.25l10.16,13.96v-13.96h4.04v20.79h-4.04l-10.34-14.23v14.23h-4.07Z"></path>
    <path class="st2" d="M135.97-172.55c-2.1,0-3.96-.46-5.57-1.38-1.61-.92-2.88-2.19-3.79-3.8-.91-1.61-1.37-3.46-1.37-5.54s.46-3.98,1.37-5.6c.91-1.61,2.16-2.88,3.76-3.79,1.59-.91,3.43-1.37,5.51-1.37s3.95.46,5.54,1.38c1.59.92,2.85,2.19,3.76,3.8s1.37,3.47,1.37,5.57-.45,3.93-1.35,5.54c-.9,1.61-2.15,2.88-3.74,3.8-1.59.92-3.42,1.38-5.48,1.38ZM135.97-176.26c1.27,0,2.38-.3,3.34-.91s1.71-1.43,2.26-2.48c.54-1.05.82-2.26.82-3.62s-.28-2.6-.83-3.65c-.55-1.05-1.32-1.88-2.29-2.48-.97-.6-2.1-.91-3.39-.91s-2.36.3-3.34.91c-.98.6-1.75,1.43-2.3,2.48-.55,1.05-.83,2.27-.83,3.65s.28,2.57.83,3.62c.55,1.05,1.33,1.88,2.32,2.48.99.6,2.13.91,3.42.91Z"></path>
    <path class="st2" d="M155.52-172.9l-8.29-20.79h4.37l7.9,20.79h-3.98ZM155.96-172.9l7.87-20.79h4.37l-8.26,20.79h-3.98Z"></path>
    <path class="st2" d="M170.69-172.9v-20.79h13.16v3.71h-9.09v4.72h7.84v3.62h-7.84v5.02h9.21v3.71h-13.28Z"></path>
    <path class="st2" d="M188.19-172.9v-20.79h4.43l6.06,8.97,6.06-8.97h4.4v20.79h-4.04v-14.44l-6.42,9.45-6.42-9.42v14.41h-4.07Z"></path>
    <path class="st2" d="M213.64-172.9v-20.79h7.04c1.43,0,2.67.22,3.74.65s1.9,1.09,2.5,1.98c.59.88.89,1.98.89,3.28,0,.81-.2,1.56-.61,2.24-.41.68-.98,1.27-1.71,1.77.97.5,1.72,1.15,2.24,1.98.52.82.79,1.81.79,2.96,0,1.27-.29,2.35-.86,3.24s-1.38,1.56-2.41,2.02-2.24.68-3.62.68h-7.99ZM217.62-185.23h3.15c.89,0,1.59-.23,2.11-.68.51-.46.77-1.1.77-1.93s-.29-1.48-.86-1.93c-.58-.46-1.36-.68-2.35-.68h-2.82v5.23ZM217.62-176.5h3.62c.97,0,1.73-.24,2.29-.73.55-.48.83-1.13.83-1.95s-.31-1.52-.92-2c-.61-.48-1.46-.73-2.52-.73h-3.3v5.41Z"></path>
    <path class="st2" d="M231.82-172.9v-20.79h13.16v3.71h-9.09v4.72h7.84v3.62h-7.84v5.02h9.21v3.71h-13.28Z"></path>
    <path class="st2" d="M249.32-172.9v-20.79h7.72c1.46,0,2.76.29,3.89.86s2.01,1.36,2.64,2.36c.63,1,.95,2.16.95,3.49s-.33,2.47-1,3.49c-.66,1.02-1.57,1.81-2.72,2.38-1.15.56-2.46.85-3.92.85h-3.5v7.37h-4.07ZM253.39-183.98h3.68c.61,0,1.16-.13,1.65-.39s.87-.61,1.16-1.07.43-.97.43-1.54c0-.89-.32-1.61-.97-2.17-.64-.55-1.47-.83-2.48-.83h-3.47v6ZM260.75-172.9l-4.81-8.35,3.12-2.23,6.3,10.57h-4.6Z"></path>
    <path class="st2" d="M281.63-172.55c-1.23,0-2.34-.18-3.33-.55s-1.82-.89-2.48-1.57c-.66-.68-1.12-1.49-1.38-2.42l3.74-1.1c.14.24.33.53.56.88.24.35.56.64.98.88s.96.36,1.63.36c.99,0,1.78-.27,2.36-.82.58-.54.88-1.25.88-2.12,0-.59-.15-1.12-.45-1.57s-.78-.81-1.44-1.05c-.66-.25-1.53-.37-2.6-.37h-1.25v-2.76h1.1c1.19,0,2.31.14,3.36.43,1.05.29,1.97.7,2.78,1.25.8.54,1.43,1.2,1.89,1.96.46.76.68,1.63.68,2.6,0,1.25-.33,2.32-.98,3.22-.65.9-1.51,1.59-2.58,2.06s-2.23.71-3.48.71ZM278.87-182.77v-2.58h1.25c1.39,0,2.42-.24,3.09-.71.67-.48,1.01-1.13,1.01-1.96,0-.48-.12-.9-.36-1.28-.24-.38-.57-.67-1.01-.89-.44-.22-.94-.33-1.51-.33-.38,0-.76.06-1.16.19-.4.13-.76.34-1.08.62-.33.29-.59.7-.79,1.23l-3.68-1.1c.28-.97.76-1.79,1.44-2.45.68-.66,1.5-1.17,2.45-1.52.95-.35,1.93-.52,2.94-.52,1.29,0,2.45.24,3.48.73,1.03.49,1.84,1.15,2.44,2,.59.85.89,1.83.89,2.94,0,.95-.23,1.77-.68,2.47-.46.69-1.07,1.28-1.86,1.75-.78.48-1.67.83-2.66,1.05-.99.23-2.02.34-3.09.34h-1.1Z"></path>
    <path class="st2" d="M291.41-180.06v-3.36h8.91v3.36h-8.91Z"></path>
    <path class="st2" d="M310.62-172.55c-.95,0-1.93-.16-2.93-.48-1-.32-1.9-.79-2.7-1.43s-1.39-1.42-1.77-2.35l3.71-1.1c.44.63.96,1.1,1.56,1.4.6.3,1.23.45,1.89.45,1.03,0,1.87-.31,2.51-.94.64-.62.96-1.46.96-2.51,0-.97-.31-1.78-.94-2.44s-1.45-.98-2.48-.98c-.61,0-1.18.14-1.69.42-.52.28-.91.6-1.19.98l-3.65-.8,1.25-11.38h11.76v3.68h-8.29l-.59,4.99c.53-.3,1.13-.54,1.78-.73.65-.19,1.36-.27,2.11-.25,1.13,0,2.16.27,3.09.82.93.54,1.67,1.29,2.21,2.23.54.94.82,2.03.82,3.28,0,1.41-.32,2.64-.95,3.71-.63,1.07-1.51,1.91-2.61,2.51-1.11.6-2.4.91-3.86.91Z"></path>
    <path class="st2" d="M320.04-169.52l1.81-7.01h4.07l-2.91,7.01h-2.97Z"></path>
    <path class="st2" d="M335.4-172.9v-3c0-.57.18-1.21.54-1.9.36-.69.85-1.39,1.49-2.08.63-.69,1.38-1.34,2.23-1.93l3.15-2.26c.44-.3.85-.63,1.23-1.01.39-.38.7-.79.95-1.23.25-.45.37-.88.37-1.29,0-.51-.12-.98-.37-1.4-.25-.42-.61-.74-1.08-.98-.47-.24-1.06-.36-1.75-.36-.59,0-1.12.12-1.59.36-.46.24-.85.55-1.14.95-.3.4-.5.82-.62,1.28l-4.19-.71c.2-.99.62-1.91,1.28-2.76s1.51-1.54,2.57-2.06c1.06-.52,2.26-.79,3.61-.79,1.54,0,2.87.28,3.98.83,1.11.55,1.96,1.31,2.57,2.27.6.96.91,2.07.91,3.34s-.35,2.43-1.05,3.43c-.7,1-1.67,1.94-2.9,2.81l-2.82,2.05c-.57.4-1.07.83-1.49,1.31s-.73,1-.95,1.57h9.48v3.56h-14.38Z"></path>
    <path class="st2" d="M360.7-172.55c-1.68,0-3.17-.46-4.46-1.38-1.29-.92-2.3-2.19-3.03-3.8-.73-1.61-1.1-3.47-1.1-5.57s.37-3.96,1.1-5.57c.73-1.61,1.74-2.88,3.01-3.8,1.28-.92,2.76-1.38,4.44-1.38s3.17.46,4.47,1.38c1.3.92,2.31,2.19,3.04,3.8.73,1.61,1.1,3.47,1.1,5.57s-.37,3.96-1.1,5.57c-.73,1.61-1.74,2.88-3.03,3.8-1.29.92-2.77,1.38-4.46,1.38ZM360.7-176.23c.89,0,1.69-.3,2.39-.91.7-.6,1.25-1.44,1.65-2.49.4-1.06.59-2.28.59-3.67s-.2-2.61-.59-3.68-.95-1.91-1.65-2.51c-.7-.6-1.51-.91-2.42-.91s-1.68.3-2.38.91c-.69.6-1.23,1.44-1.62,2.51-.39,1.07-.58,2.3-.58,3.68s.19,2.61.58,3.67c.39,1.06.93,1.89,1.63,2.49.7.6,1.5.91,2.39.91Z"></path>
    <path class="st2" d="M371.84-172.9v-3c0-.57.18-1.21.54-1.9.36-.69.85-1.39,1.49-2.08.63-.69,1.38-1.34,2.23-1.93l3.15-2.26c.44-.3.85-.63,1.23-1.01.39-.38.7-.79.95-1.23.25-.45.37-.88.37-1.29,0-.51-.12-.98-.37-1.4-.25-.42-.61-.74-1.08-.98-.47-.24-1.06-.36-1.75-.36-.59,0-1.12.12-1.59.36-.46.24-.85.55-1.14.95-.3.4-.5.82-.62,1.28l-4.19-.71c.2-.99.62-1.91,1.28-2.76s1.51-1.54,2.57-2.06c1.06-.52,2.26-.79,3.61-.79,1.54,0,2.87.28,3.98.83,1.11.55,1.96,1.31,2.57,2.27.6.96.91,2.07.91,3.34s-.35,2.43-1.05,3.43c-.7,1-1.67,1.94-2.9,2.81l-2.82,2.05c-.57.4-1.07.83-1.49,1.31s-.73,1-.95,1.57h9.48v3.56h-14.38Z"></path>
    <path class="st2" d="M396.41-172.55c-1.41,0-2.6-.25-3.58-.76-.98-.5-1.78-1.2-2.41-2.09-.62-.89-1.08-1.93-1.37-3.1-.29-1.18-.43-2.45-.43-3.82,0-1.58.17-3.08.5-4.5.34-1.42.85-2.67,1.53-3.76.68-1.09,1.56-1.94,2.63-2.55,1.07-.61,2.36-.92,3.86-.92,1.09,0,2.15.16,3.19.48,1.04.32,1.98.77,2.81,1.37l-2.02,2.97c-.61-.44-1.27-.75-1.98-.95-.7-.2-1.35-.3-1.95-.3-1.53,0-2.72.67-3.59,2.02-.87,1.35-1.29,3.48-1.25,6.39l-.8-.56c.46-1.09,1.16-1.96,2.11-2.61s2.08-.98,3.39-.98,2.5.31,3.52.92c1.02.61,1.82,1.45,2.41,2.51.58,1.06.88,2.24.88,3.55s-.31,2.44-.92,3.46c-.61,1.02-1.48,1.82-2.6,2.39-1.12.57-2.43.86-3.94.86ZM396.41-175.99c.65,0,1.24-.15,1.75-.45.51-.3.92-.7,1.22-1.22.3-.51.45-1.11.45-1.78s-.15-1.27-.45-1.8c-.3-.52-.7-.94-1.22-1.25-.52-.31-1.1-.46-1.75-.46s-1.24.15-1.77.46c-.53.31-.94.72-1.23,1.25-.3.52-.45,1.12-.45,1.8s.15,1.27.45,1.78c.3.52.71.92,1.23,1.22.52.3,1.11.45,1.77.45Z"></path>
  </g>
  <g>
    <path class="st2" d="M105.82-156.48v-5.93h-2.17v-1.29h5.74v1.29h-2.16v5.93h-1.41Z"></path>
    <path class="st2" d="M110.32-156.48v-7.24h1.41v7.24h-1.41ZM111.38-159.52v-1.3h4.38v1.3h-4.38ZM115.08-156.48v-7.23h1.41v7.23h-1.41Z"></path>
    <path class="st2" d="M118.06-156.48v-7.23h4.57v1.29h-3.16v1.64h2.72v1.26h-2.72v1.74h3.2v1.29h-4.61Z"></path>
    <path class="st2" d="M128.78-156.48l-2.88-7.23h1.52l2.75,7.23h-1.38ZM128.93-156.48l2.74-7.23h1.52l-2.87,7.23h-1.38Z"></path>
    <path class="st2" d="M134.05-156.48v-7.23h4.57v1.29h-3.16v1.64h2.72v1.26h-2.72v1.74h3.2v1.29h-4.61Z"></path>
    <path class="st2" d="M140.13-156.48v-7.23h1.48l3.53,4.85v-4.85h1.4v7.23h-1.4l-3.59-4.94v4.94h-1.41Z"></path>
    <path class="st2" d="M148.11-156.48v-7.23h4.57v1.29h-3.16v1.64h2.72v1.26h-2.72v1.74h3.2v1.29h-4.61Z"></path>
    <path class="st2" d="M155.72-156.48v-5.93h-2.17v-1.29h5.74v1.29h-2.16v5.93h-1.41Z"></path>
    <path class="st2" d="M160.22-156.48v-7.23h1.41v7.23h-1.41Z"></path>
    <path class="st2" d="M162.5-156.48l2.85-7.23h1.41l-2.77,7.23h-1.5ZM163.84-158.07v-1.25h4.53v1.25h-4.53ZM168.2-156.48l-2.77-7.23h1.41l2.85,7.23h-1.5Z"></path>
    <path class="st2" d="M170.57-156.48v-7.23h1.48l3.53,4.85v-4.85h1.4v7.23h-1.4l-3.59-4.94v4.94h-1.41Z"></path>
    <path class="st2" d="M181-156.48v-7.23h4.57v1.29h-3.16v1.64h2.73v1.26h-2.73v1.74h3.2v1.29h-4.61Z"></path>
    <path class="st2" d="M186.4-156.48l2.8-3.95,2.27-3.27h1.68l-2.73,3.76-2.31,3.47h-1.7ZM191.5-156.48l-2.31-3.47-2.74-3.76h1.68l2.27,3.26,2.8,3.96h-1.7Z"></path>
    <path class="st2" d="M194.09-156.48v-7.23h2.68c.51,0,.96.1,1.35.3.39.2.7.48.92.85s.33.78.33,1.25-.11.88-.32,1.25-.51.65-.88.86c-.37.21-.8.31-1.29.31h-1.38v2.39h-1.41ZM195.5-160.17h1.35c.32,0,.58-.11.78-.31.2-.21.31-.48.31-.81s-.11-.6-.34-.81-.51-.31-.86-.31h-1.24v2.24Z"></path>
    <path class="st2" d="M203.62-156.36c-.73,0-1.37-.16-1.94-.48-.56-.32-1-.76-1.32-1.32-.32-.56-.48-1.2-.48-1.93s.16-1.38.48-1.95c.32-.56.75-1,1.31-1.32s1.19-.47,1.92-.47,1.37.16,1.92.48c.55.32.99.76,1.31,1.32.32.56.48,1.21.48,1.94s-.16,1.36-.47,1.93c-.31.56-.75,1-1.3,1.32-.55.32-1.19.48-1.9.48ZM203.62-157.65c.44,0,.83-.1,1.16-.31.33-.21.6-.5.79-.86.19-.36.28-.78.28-1.26s-.1-.9-.29-1.27-.46-.65-.79-.86c-.34-.21-.73-.31-1.18-.31s-.82.1-1.16.31c-.34.21-.61.5-.8.86-.19.36-.29.79-.29,1.27s.1.89.29,1.26c.19.36.46.65.8.86.34.21.74.31,1.19.31Z"></path>
    <path class="st2" d="M212.73-156.35c-.43,0-.81-.08-1.14-.25-.33-.17-.59-.39-.77-.68-.19-.29-.28-.62-.28-1,0-.26.05-.5.14-.72s.23-.42.4-.61c.17-.19.36-.36.58-.5l1.36-.94c.11-.08.23-.16.36-.26.13-.1.24-.21.34-.35.1-.13.15-.29.15-.46,0-.2-.07-.36-.22-.47-.14-.11-.33-.17-.55-.17-.21,0-.38.06-.52.18-.14.12-.21.27-.21.45s.06.34.17.47c.11.13.24.29.38.47l1.37,1.65,2.53,3.06h-1.59l-1.92-2.29-1.44-1.75c-.19-.24-.34-.45-.46-.63s-.21-.35-.26-.51c-.06-.15-.08-.31-.08-.47,0-.33.09-.62.26-.88.18-.25.41-.46.71-.6s.63-.22,1.01-.22c.41,0,.77.07,1.08.22s.57.35.75.61c.18.26.27.57.27.92,0,.28-.07.54-.22.78-.14.24-.36.48-.63.72-.28.24-.62.5-1.02.77l-.73.51c-.11.08-.21.16-.3.26-.09.1-.17.2-.22.32-.06.12-.08.26-.08.42,0,.23.08.43.24.58.16.15.37.23.62.23.29,0,.57-.04.86-.13.28-.09.54-.22.77-.4.23-.18.41-.4.54-.66s.2-.56.2-.9h1.27c0,.63-.16,1.2-.48,1.69s-.75.88-1.31,1.15c-.56.28-1.2.41-1.93.41Z"></path>
    <path class="st2" d="M219.32-156.48l2.85-7.23h1.41l-2.77,7.23h-1.5ZM220.67-158.07v-1.25h4.53v1.25h-4.53ZM225.03-156.48l-2.77-7.23h1.41l2.85,7.23h-1.5Z"></path>
    <path class="st2" d="M226.69-156.48l2.85-7.23h1.41l-2.77,7.23h-1.5ZM228.04-158.07v-1.25h4.53v1.25h-4.53ZM232.4-156.48l-2.77-7.23h1.41l2.85,7.23h-1.5Z"></path>
    <path class="st2" d="M234.76-156.48v-7.23h2.68c.51,0,.96.1,1.35.3.39.2.7.48.92.85s.33.78.33,1.25-.11.88-.32,1.25-.51.65-.88.86c-.37.21-.8.31-1.29.31h-1.38v2.39h-1.41ZM236.18-160.17h1.35c.32,0,.58-.11.78-.31.2-.21.31-.48.31-.81s-.11-.6-.34-.81-.51-.31-.86-.31h-1.24v2.24Z"></path>
    <path class="st2" d="M240.99-156.48v-7.23h4.57v1.29h-3.16v1.64h2.73v1.26h-2.73v1.74h3.2v1.29h-4.61Z"></path>
    <path class="st2" d="M246.39-156.48l2.8-3.95,2.27-3.27h1.68l-2.73,3.76-2.31,3.47h-1.7ZM251.49-156.48l-2.31-3.47-2.74-3.76h1.68l2.27,3.26,2.8,3.96h-1.7Z"></path>
    <path class="st2" d="M256.53-156.48v-7.23h4.63v1.29h-3.22v1.73h2.68v1.29h-2.68v2.91h-1.41Z"></path>
    <path class="st2" d="M265.55-156.36c-.73,0-1.37-.16-1.94-.48-.56-.32-1-.76-1.32-1.32-.32-.56-.48-1.2-.48-1.93s.16-1.38.48-1.95c.32-.56.75-1,1.31-1.32s1.19-.47,1.92-.47,1.37.16,1.92.48c.55.32.99.76,1.31,1.32.32.56.48,1.21.48,1.94s-.16,1.36-.47,1.93c-.31.56-.75,1-1.3,1.32-.55.32-1.19.48-1.9.48ZM265.55-157.65c.44,0,.83-.1,1.16-.31.33-.21.6-.5.79-.86.19-.36.28-.78.28-1.26s-.1-.9-.29-1.27-.46-.65-.79-.86c-.34-.21-.73-.31-1.18-.31s-.82.1-1.16.31c-.34.21-.61.5-.8.86-.19.36-.29.79-.29,1.27s.1.89.29,1.26c.19.36.46.65.8.86.34.21.74.31,1.19.31Z"></path>
    <path class="st2" d="M270.37-156.48v-7.23h2.68c.51,0,.96.1,1.35.3.39.2.7.47.92.82.22.35.33.75.33,1.21s-.12.86-.35,1.21-.55.63-.94.83c-.4.2-.85.29-1.36.29h-1.22v2.56h-1.41ZM271.79-160.33h1.28c.21,0,.4-.04.57-.13.17-.09.3-.21.4-.37.1-.16.15-.34.15-.54,0-.31-.11-.56-.34-.75-.22-.19-.51-.29-.86-.29h-1.21v2.08ZM274.35-156.48l-1.67-2.9,1.08-.77,2.19,3.67h-1.6Z"></path>
    <path class="st2" d="M279.86-156.34c-.6,0-1.12-.12-1.56-.35-.44-.23-.78-.56-1.02-.99-.24-.42-.36-.92-.36-1.5v-4.53h1.41v4.53c0,.31.06.58.19.81.13.23.31.41.54.53.23.12.5.19.81.19s.58-.06.81-.19c.23-.12.41-.3.54-.53.13-.23.19-.5.19-.81v-4.53h1.41v4.53c0,.58-.12,1.08-.37,1.5-.24.42-.59.75-1.03.99s-.97.35-1.57.35Z"></path>
    <path class="st2" d="M284.3-156.48v-7.23h1.54l2.11,3.12,2.11-3.12h1.53v7.23h-1.4v-5.02l-2.23,3.28-2.23-3.27v5.01h-1.41Z"></path>
    <path class="st2" d="M295.6-154.21v-10.42h1.07v10.42h-1.07Z"></path>
    <path class="st2" d="M300.69-156.48v-7.23h1.41v5.93h3.18v1.29h-4.59Z"></path>
    <path class="st2" d="M305.54-156.48l2.85-7.23h1.41l-2.77,7.23h-1.5ZM306.88-158.07v-1.25h4.53v1.25h-4.53ZM311.24-156.48l-2.77-7.23h1.41l2.85,7.23h-1.5Z"></path>
    <path class="st2" d="M316.03-156.36c-.36,0-.71-.04-1.02-.13-.32-.09-.6-.21-.85-.38s-.45-.34-.61-.54-.27-.41-.31-.63l1.38-.41c.09.23.25.44.47.6.23.17.51.26.86.26.36,0,.66-.07.89-.24.23-.17.35-.38.35-.64,0-.23-.09-.42-.27-.57-.18-.16-.43-.27-.75-.36l-.94-.25c-.35-.09-.66-.23-.93-.41-.27-.18-.48-.41-.63-.68-.15-.27-.23-.58-.23-.94,0-.68.23-1.21.68-1.59.45-.38,1.09-.57,1.92-.57.46,0,.86.07,1.21.2.35.13.64.33.87.57.23.25.41.54.54.88l-1.37.42c-.08-.23-.23-.43-.45-.6-.22-.17-.5-.25-.84-.25s-.61.08-.81.24-.29.38-.29.67c0,.23.08.41.23.54.16.13.37.23.64.3l.95.24c.62.15,1.1.42,1.44.82s.52.83.52,1.31c0,.43-.1.8-.31,1.12s-.51.57-.9.75c-.39.18-.87.27-1.42.27Z"></path>
    <path class="st2" d="M324.51-156.48l-2.88-7.23h1.52l2.75,7.23h-1.38ZM324.66-156.48l2.73-7.23h1.52l-2.87,7.23h-1.38Z"></path>
    <path class="st2" d="M329.78-156.48v-7.23h4.57v1.29h-3.16v1.64h2.73v1.26h-2.73v1.74h3.2v1.29h-4.61Z"></path>
    <path class="st2" d="M339.21-156.36c-.74,0-1.39-.16-1.96-.48s-1.01-.76-1.34-1.32c-.32-.56-.49-1.21-.49-1.94s.16-1.37.49-1.94c.32-.56.77-1,1.34-1.32s1.22-.48,1.96-.48c.44,0,.85.07,1.22.2s.7.31.99.54.53.49.72.79l-1.16.72c-.12-.19-.27-.35-.46-.5-.19-.14-.4-.26-.62-.34-.23-.08-.45-.12-.68-.12-.46,0-.86.11-1.21.31-.35.21-.63.5-.83.86s-.3.79-.3,1.27.1.9.29,1.27c.2.37.47.66.83.87.36.21.77.31,1.24.31.36,0,.69-.07.98-.22.29-.14.51-.35.68-.61.17-.26.25-.56.25-.91l1.34-.21c0,.68-.14,1.26-.42,1.74-.28.48-.66.85-1.16,1.1-.49.25-1.06.38-1.7.38ZM339.45-159.25v-1.1h3.03v.88l-.76.23h-2.27Z"></path>
    <path class="st2" d="M342.58-156.48l2.85-7.23h1.41l-2.77,7.23h-1.5ZM343.92-158.07v-1.25h4.53v1.25h-4.53ZM348.29-156.48l-2.77-7.23h1.41l2.85,7.23h-1.5Z"></path>
    <path class="st2" d="M353.08-156.36c-.36,0-.71-.04-1.02-.13-.32-.09-.6-.21-.85-.38s-.45-.34-.61-.54-.27-.41-.31-.63l1.38-.41c.09.23.25.44.47.6.23.17.51.26.86.26.36,0,.66-.07.89-.24.23-.17.35-.38.35-.64,0-.23-.09-.42-.27-.57-.18-.16-.43-.27-.75-.36l-.94-.25c-.35-.09-.66-.23-.93-.41-.27-.18-.48-.41-.63-.68-.15-.27-.23-.58-.23-.94,0-.68.23-1.21.68-1.59.45-.38,1.09-.57,1.92-.57.46,0,.86.07,1.21.2.35.13.64.33.87.57.23.25.41.54.54.88l-1.37.42c-.08-.23-.23-.43-.45-.6-.22-.17-.5-.25-.84-.25s-.61.08-.81.24-.29.38-.29.67c0,.23.08.41.23.54.16.13.37.23.64.3l.95.24c.62.15,1.1.42,1.44.82s.52.83.52,1.31c0,.43-.1.8-.31,1.12s-.51.57-.9.75c-.39.18-.87.27-1.42.27Z"></path>
    <path class="st2" d="M356.43-155.3l.63-2.44h1.41l-1.01,2.44h-1.03Z"></path>
    <path class="st2" d="M362.02-156.48v-7.23h1.48l3.53,4.85v-4.85h1.4v7.23h-1.4l-3.59-4.94v4.94h-1.41Z"></path>
    <path class="st2" d="M370-156.48v-7.23h4.57v1.29h-3.16v1.64h2.73v1.26h-2.73v1.74h3.2v1.29h-4.61Z"></path>
    <path class="st2" d="M378.26-156.48l-2.88-7.23h1.52l2.75,7.23h-1.38ZM378.41-156.48l2.73-7.23h1.52l-2.87,7.23h-1.38Z"></path>
    <path class="st2" d="M382.03-156.48l2.85-7.23h1.41l-2.77,7.23h-1.5ZM383.37-158.07v-1.25h4.53v1.25h-4.53ZM387.73-156.48l-2.77-7.23h1.41l2.85,7.23h-1.5Z"></path>
    <path class="st2" d="M390.1-156.48v-7.23h2.31c.74,0,1.39.16,1.96.46s1.01.73,1.33,1.27c.32.54.48,1.16.48,1.87s-.16,1.32-.48,1.87-.76.97-1.33,1.28-1.22.46-1.96.46h-2.31ZM391.51-157.8h.9c.33,0,.64-.06.92-.18.28-.12.53-.28.74-.49.21-.21.37-.45.49-.73.12-.28.18-.58.18-.9s-.06-.62-.18-.9-.28-.52-.49-.73c-.21-.21-.46-.37-.74-.49-.28-.12-.59-.18-.92-.18h-.9v4.58Z"></path>
    <path class="st2" d="M396.62-156.48l2.85-7.23h1.41l-2.77,7.23h-1.5ZM397.96-158.07v-1.25h4.53v1.25h-4.53ZM402.33-156.48l-2.77-7.23h1.41l2.85,7.23h-1.5Z"></path>
  </g>
</svg>
