<?xml version="1.0" encoding="UTF-8"?>
<svg id="Layer_1" xmlns="http://www.w3.org/2000/svg" version="1.1" viewBox="0 -8 365.47 181.58">
  <!-- Generator: Adobe Illustrator 30.5.1, SVG Export Plug-In . SVG Version: 2.1.4 Build 3)  -->
  <defs>
    <style>
      .st0 {
        fill: #d9da55;
      }

      .st1 {
        fill: #3b6e8f;
      }
    </style>
  </defs>
  <g>
    <path class="st1" d="M167.23,57.64c7.97-15.86,14.6-29.04,14.94-29.72.34.68,6.95,13.82,14.91,29.65,5.32-.27,10.5-.68,15.07-1.28L183.88,0h-2.5s-.14.27-.14.27l-28.72,56.26c4.46.5,9.47.87,14.7,1.11Z"/>
    <path class="st0" d="M141.42,44.08s-.02,0-.03,0h0s-.02,0-.03.01c-7.22,2.25-10.89,5.01-10.89,8.19,0,8.39,26.26,12.91,50.97,12.91s50.97-4.53,50.97-12.91c0-2.9-3.07-5.46-9.13-7.6,0,0,0,0,0,0h0s-.04-.01-.06-.02c-.57-.2-1.2.09-1.41.65-.21.56.06,1.2.61,1.43,2.16.9,5.39,2.75,5.78,4.07.05.18.04.3-.07.46-3.37,4.93-27.26,6.68-46.7,6.68-21.36,0-44.17-2.15-46.44-6.27-.18-.33-.2-.61-.07-.95.69-1.77,4.76-3.72,7.17-4.53.58-.19.89-.82.7-1.4-.19-.58-.81-.9-1.39-.72Z"/>
    <path class="st1" d="M152.48,86.97c3.14-6.24,6.53-12.99,9.87-19.63-5.12-.5-9.96-1.2-14.26-2.1l-10.34,20.27c4.48.59,9.46,1.08,14.74,1.46Z"/>
    <path class="st1" d="M132.2,96.36l-9.11,17.85h15.69s3.11-6.18,7.66-15.23c-5.11-.72-9.91-1.59-14.24-2.62Z"/>
    <path class="st1" d="M217.98,99.15c4.5,8.96,7.57,15.05,7.57,15.05h15.68l-8.83-17.59c-4.4,1-9.26,1.85-14.41,2.54Z"/>
    <path class="st1" d="M226.86,85.61l-10.41-20.73c-4.32.99-9.27,1.77-14.54,2.33,3.38,6.72,6.81,13.55,9.98,19.86,5.28-.37,10.34-.85,14.96-1.46Z"/>
    <path class="st0" d="M125.96,68.3s-.02,0-.04.01c0,0,0,0,0,0,0,0-.03.01-.04.01-10.26,3.2-15.47,7.12-15.47,11.63,0,11.92,37.31,18.35,72.42,18.35s72.42-6.43,72.42-18.35c0-4.12-4.37-7.75-12.97-10.8,0,0,0,0,0,0h0s-.05-.02-.08-.03c-.81-.29-1.7.13-2,.93-.31.8.08,1.7.87,2.03,3.07,1.27,7.65,3.91,8.21,5.78.08.26.05.43-.11.66-4.79,7.01-38.74,9.5-66.35,9.5-30.34,0-62.75-3.06-65.99-8.91-.26-.46-.28-.87-.1-1.36.97-2.51,6.76-5.28,10.18-6.44.82-.28,1.27-1.16,1-1.99-.27-.82-1.15-1.28-1.97-1.02Z"/>
  </g>
  <g>
    <path class="st1" d="M4.93,153.96h1.74l4.88,11.33h-2.3l-1.06-2.59H3.28l-1.02,2.59H0l4.93-11.33ZM7.49,160.98l-1.75-4.61-1.78,4.61h3.52Z"/>
    <path class="st1" d="M22.11,161.13c0,2.74-1.97,4.45-4.56,4.45s-4.56-1.71-4.56-4.45v-7.17h2.02v7.11c0,1.12.61,2.59,2.54,2.59s2.54-1.47,2.54-2.59v-7.11h2.02v7.17Z"/>
    <path class="st1" d="M27.67,155.79h-3.47v-1.83h8.96v1.83h-3.47v9.51h-2.02v-9.51Z"/>
    <path class="st1" d="M40.43,153.68c3.54-.06,6.03,2.31,6.03,5.94s-2.5,5.91-6.03,5.97c-3.49,0-5.99-2.37-5.99-5.91s2.5-6,5.99-6ZM40.45,163.76c2.35,0,3.91-1.79,3.91-4.21,0-2.26-1.55-4.05-3.91-4.05s-3.89,1.79-3.89,4.05c0,2.42,1.55,4.21,3.89,4.21Z"/>
    <path class="st1" d="M49.17,153.96h3.07l3.03,7.94,3.06-7.94h3.04v11.33h-1.92v-9.41h-.03l-3.44,9.41h-1.41l-3.44-9.41h-.03v9.41h-1.92v-11.33Z"/>
    <path class="st1" d="M70.06,153.68c3.54-.06,6.03,2.31,6.03,5.94s-2.5,5.91-6.03,5.97c-3.49,0-5.99-2.37-5.99-5.91s2.5-6,5.99-6ZM70.08,163.76c2.35,0,3.91-1.79,3.91-4.21,0-2.26-1.55-4.05-3.91-4.05s-3.89,1.79-3.89,4.05c0,2.42,1.55,4.21,3.89,4.21Z"/>
    <path class="st1" d="M80.88,155.79h-3.47v-1.83h8.96v1.83h-3.47v9.51h-2.02v-9.51Z"/>
    <path class="st1" d="M88.46,153.96h2.02v11.33h-2.02v-11.33Z"/>
    <path class="st1" d="M92.47,153.96h2.32l3.09,8.56,3.18-8.56h2.18l-4.58,11.33h-1.74l-4.45-11.33Z"/>
    <path class="st1" d="M105.27,153.96h7.51v1.83h-5.49v2.79h5.2v1.82h-5.2v3.07h5.78v1.83h-7.79v-11.33Z"/>
    <path class="st1" d="M129.16,156.62c-.83-.88-1.6-1.12-2.38-1.12-2.34,0-3.89,1.79-3.89,4.05,0,2.42,1.55,4.21,3.89,4.21.91,0,1.79-.42,2.54-1.38l1.66,1.18c-1.02,1.41-2.56,2.02-4.23,2.02-3.49,0-5.99-2.37-5.99-5.91s2.5-6,5.99-6c1.54,0,2.85.5,3.97,1.79l-1.57,1.15Z"/>
    <path class="st1" d="M138.23,153.68c3.54-.06,6.03,2.31,6.03,5.94s-2.5,5.91-6.03,5.97c-3.49,0-5.99-2.37-5.99-5.91s2.5-6,5.99-6ZM138.24,163.76c2.35,0,3.91-1.79,3.91-4.21,0-2.26-1.55-4.05-3.91-4.05s-3.89,1.79-3.89,4.05c0,2.42,1.55,4.21,3.89,4.21Z"/>
    <path class="st1" d="M146.97,153.96h3.07l3.03,7.94,3.06-7.94h3.04v11.33h-1.92v-9.41h-.03l-3.44,9.41h-1.41l-3.44-9.41h-.03v9.41h-1.92v-11.33Z"/>
    <path class="st1" d="M162.49,153.96h3.07l3.03,7.94,3.06-7.94h3.04v11.33h-1.92v-9.41h-.03l-3.44,9.41h-1.41l-3.44-9.41h-.03v9.41h-1.92v-11.33Z"/>
    <path class="st1" d="M187.06,161.13c0,2.74-1.97,4.45-4.56,4.45s-4.56-1.71-4.56-4.45v-7.17h2.02v7.11c0,1.12.61,2.59,2.55,2.59s2.54-1.47,2.54-2.59v-7.11h2.02v7.17Z"/>
    <path class="st1" d="M190.28,153.96h2.67l5.49,8.42h.03v-8.42h2.02v11.33h-2.56l-5.6-8.69h-.03v8.69h-2.02v-11.33Z"/>
    <path class="st1" d="M203.75,153.96h2.02v11.33h-2.02v-11.33Z"/>
    <path class="st1" d="M216.78,156.62c-.83-.88-1.6-1.12-2.39-1.12-2.34,0-3.89,1.79-3.89,4.05,0,2.42,1.55,4.21,3.89,4.21.91,0,1.79-.42,2.55-1.38l1.66,1.18c-1.02,1.41-2.56,2.02-4.23,2.02-3.49,0-5.99-2.37-5.99-5.91s2.5-6,5.99-6c1.54,0,2.85.5,3.97,1.79l-1.57,1.15Z"/>
    <path class="st1" d="M224.69,153.96h1.75l4.88,11.33h-2.3l-1.06-2.59h-4.91l-1.02,2.59h-2.26l4.93-11.33ZM227.25,160.98l-1.75-4.61-1.78,4.61h3.52Z"/>
    <path class="st1" d="M234.53,155.79h-3.47v-1.83h8.96v1.83h-3.47v9.51h-2.02v-9.51Z"/>
    <path class="st1" d="M242.11,153.96h2.02v11.33h-2.02v-11.33Z"/>
    <path class="st1" d="M252.73,153.68c3.54-.06,6.03,2.31,6.03,5.94s-2.5,5.91-6.03,5.97c-3.49,0-5.99-2.37-5.99-5.91s2.5-6,5.99-6ZM252.75,163.76c2.35,0,3.91-1.79,3.91-4.21,0-2.26-1.55-4.05-3.91-4.05s-3.89,1.79-3.89,4.05c0,2.42,1.55,4.21,3.89,4.21Z"/>
    <path class="st1" d="M261.45,153.96h2.67l5.49,8.42h.03v-8.42h2.02v11.33h-2.56l-5.6-8.69h-.03v8.69h-2.02v-11.33Z"/>
    <path class="st1" d="M280.42,156.4c-.43-.61-1.2-.9-1.98-.9-.93,0-1.86.42-1.86,1.46,0,2.27,5.38.98,5.38,5.01,0,2.43-1.92,3.62-4.15,3.62-1.41,0-2.79-.43-3.71-1.54l1.52-1.47c.5.75,1.34,1.18,2.24,1.18s1.98-.51,1.98-1.55c0-2.48-5.38-1.06-5.38-5.11,0-2.34,2.08-3.43,4.18-3.43,1.18,0,2.37.34,3.25,1.17l-1.47,1.55Z"/>
    <path class="st1" d="M298.17,156.62c-.83-.88-1.6-1.12-2.39-1.12-2.34,0-3.89,1.79-3.89,4.05,0,2.42,1.55,4.21,3.89,4.21.91,0,1.79-.42,2.55-1.38l1.66,1.18c-1.02,1.41-2.56,2.02-4.23,2.02-3.49,0-5.99-2.37-5.99-5.91s2.5-6,5.99-6c1.54,0,2.85.5,3.97,1.79l-1.57,1.15Z"/>
    <path class="st1" d="M307.23,153.68c3.54-.06,6.03,2.31,6.03,5.94s-2.5,5.91-6.03,5.97c-3.49,0-5.99-2.37-5.99-5.91s2.5-6,5.99-6ZM307.25,163.76c2.35,0,3.91-1.79,3.91-4.21,0-2.26-1.55-4.05-3.91-4.05s-3.89,1.79-3.89,4.05c0,2.42,1.55,4.21,3.89,4.21Z"/>
    <path class="st1" d="M324.98,161.13c0,2.74-1.97,4.45-4.56,4.45s-4.56-1.71-4.56-4.45v-7.17h2.02v7.11c0,1.12.61,2.59,2.54,2.59s2.54-1.47,2.54-2.59v-7.11h2.02v7.17Z"/>
    <path class="st1" d="M328.2,153.96h2.67l5.49,8.42h.03v-8.42h2.02v11.33h-2.56l-5.6-8.69h-.03v8.69h-2.02v-11.33Z"/>
    <path class="st1" d="M349.49,156.62c-.83-.88-1.6-1.12-2.38-1.12-2.34,0-3.89,1.79-3.89,4.05,0,2.42,1.55,4.21,3.89,4.21.91,0,1.79-.42,2.54-1.38l1.66,1.18c-1.02,1.41-2.56,2.02-4.23,2.02-3.49,0-5.99-2.37-5.99-5.91s2.5-6,5.99-6c1.54,0,2.85.5,3.97,1.79l-1.57,1.15Z"/>
    <path class="st1" d="M353.39,153.96h2.02v11.33h-2.02v-11.33Z"/>
    <path class="st1" d="M358.63,153.96h2.02v9.51h4.82v1.83h-6.83v-11.33Z"/>
  </g>
</svg>