<?xml version="1.0" encoding="UTF-8"?>
<svg id="Layer_1" xmlns="http://www.w3.org/2000/svg" version="1.1" viewBox="0 0 274.37 108.19">
  <!-- Generator: Adobe Illustrator 30.5.1, SVG Export Plug-In . SVG Version: 2.1.4 Build 3)  -->
  <defs>
    <style>
      .st0 {
        fill: #231f20;
      }

      .st1 {
        fill: #fff;
      }

      .st2 {
        fill: #76bc21;
      }
    </style>
  </defs>
  <rect class="st2" width="274.37" height="108.19"/>
  <g>
    <path class="st0" d="M44.28,71.63h-.28c-3.21,5.1-8.5,7.36-14.54,7.36-8.4,0-16.52-4.63-16.52-13.6,0-14.73,17.19-15.77,28.52-15.77h2.83v-1.23c0-5.57-4.34-8.5-10.39-8.5-4.72,0-9.06,1.89-12.09,4.72l-5.95-5.95c5-5.1,12.09-7.27,19.26-7.27,19.36,0,19.36,13.97,19.36,20.39v26.06h-10.2v-6.23ZM43.62,57.57h-2.36c-6.23,0-17,.47-17,6.99,0,4.15,4.25,5.95,7.93,5.95,7.74,0,11.43-4.06,11.43-10.39v-2.55Z"/>
    <path class="st0" d="M94.43,46.14c-2.65-2.74-5.57-4.53-8.59-4.53-8.31,0-13.31,6.52-13.31,13.6s5,13.6,13.31,13.6c3.49,0,6.7-1.51,8.78-4.25l7.55,8.12c-4.63,4.63-12.37,6.33-16.34,6.33-13.69,0-24.64-9.54-24.64-23.79s10.95-23.79,24.64-23.79c5.76,0,12.09,2.08,16.43,6.89l-7.84,7.84Z"/>
    <path class="st0" d="M106.45,32.54h10.76v6.8h.19c3.3-5.48,9.25-7.93,15.58-7.93,13.98,0,22.38,10.39,22.38,23.79s-8.97,23.79-21.91,23.79c-8.5,0-13.03-3.97-15.39-6.89h-.28v36.08h-11.33V32.54ZM130.72,41.61c-8.31,0-13.31,6.52-13.31,13.6s5,13.6,13.31,13.6,13.31-6.51,13.31-13.6-5.01-13.6-13.31-13.6Z"/>
    <path class="st0" d="M162.78,32.54h10.76v7.27h.19c2.08-4.53,6.33-8.4,13.88-8.4,12.18,0,16.52,8.59,16.52,17.85v28.61h-11.33v-22.94c0-5-.38-13.31-8.31-13.31-7.46,0-10.39,5.48-10.39,11.52v24.74h-11.33v-45.32Z"/>
  </g>
  <g>
    <path class="st0" d="M18.66,12.42h1.81l4.32,9.93h-2.47l-.86-2.1h-3.86l-.83,2.1h-2.41l4.29-9.93ZM19.5,15.31l-1.21,3.09h2.43l-1.22-3.09Z"/>
    <path class="st0" d="M26.67,12.42h6.66v2.02h-4.48v2.02h4.14v2.02h-4.14v3.87h-2.19v-9.93Z"/>
    <path class="st0" d="M37.82,14.36h-2.83v-1.94h7.86v1.94h-2.83v8h-2.19v-8Z"/>
    <path class="st0" d="M44.78,12.42h6.75v2.02h-4.56v1.85h4.31v2.02h-4.31v2.02h4.81v2.02h-7v-9.93Z"/>
    <path class="st0" d="M54.35,12.42h3.84c2.03,0,3.74.7,3.74,3.02,0,1.39-.74,2.47-2.15,2.72l2.53,4.19h-2.62l-2.08-3.97h-1.08v3.97h-2.19v-9.93ZM56.54,16.53h1.29c.8,0,1.84-.03,1.84-1.11,0-1-.9-1.15-1.7-1.15h-1.43v2.26Z"/>
    <path class="st0" d="M64.32,12.42h3.31l2.29,6.48h.03l2.3-6.48h3.3v9.93h-2.19v-7.62h-.03l-2.61,7.62h-1.67l-2.51-7.62h-.03v7.62h-2.19v-9.93Z"/>
    <path class="st0" d="M81.68,12.42h1.81l4.32,9.93h-2.47l-.86-2.1h-3.86l-.83,2.1h-2.41l4.29-9.93ZM82.52,15.31l-1.21,3.09h2.43l-1.22-3.09Z"/>
    <path class="st0" d="M89.65,12.42h3.84c2.03,0,3.74.7,3.74,3.02,0,1.39-.74,2.47-2.15,2.72l2.53,4.19h-2.62l-2.08-3.97h-1.08v3.97h-2.19v-9.93ZM91.84,16.53h1.29c.8,0,1.84-.03,1.84-1.11,0-1-.9-1.15-1.7-1.15h-1.43v2.26Z"/>
    <path class="st0" d="M99.67,12.42h2.19v4.12l3.86-4.12h2.86l-4.42,4.61,4.8,5.32h-3.06l-4.04-4.71v4.71h-2.19v-9.93Z"/>
    <path class="st0" d="M110.71,12.42h6.75v2.02h-4.56v1.85h4.31v2.02h-4.31v2.02h4.81v2.02h-7v-9.93Z"/>
    <path class="st0" d="M122.17,14.36h-2.83v-1.94h7.85v1.94h-2.83v8h-2.19v-8Z"/>
    <path class="st0" d="M140.35,15c-.43-.52-1.07-.81-1.88-.81-1.66,0-2.88,1.35-2.88,3.2s1.22,3.2,2.81,3.2c.88,0,1.6-.39,2.05-1.07l1.82,1.36c-.83,1.18-2.23,1.73-3.59,1.73-3.1,0-5.36-2.03-5.36-5.22s2.26-5.22,5.36-5.22c1.11,0,2.51.38,3.35,1.46l-1.68,1.37Z"/>
    <path class="st0" d="M148.8,12.17c3.1,0,5.36,2.03,5.36,5.22s-2.26,5.22-5.36,5.22-5.36-2.03-5.36-5.22,2.26-5.22,5.36-5.22ZM148.8,20.58c1.87,0,3.09-1.35,3.09-3.2s-1.22-3.2-3.09-3.2-3.09,1.35-3.09,3.2,1.22,3.2,3.09,3.2Z"/>
    <path class="st0" d="M156.5,12.42h2.97l4.22,6.9h.03v-6.9h2.19v9.93h-2.86l-4.33-7.07h-.03v7.07h-2.19v-9.93Z"/>
    <path class="st0" d="M170.64,14.36h-2.83v-1.94h7.85v1.94h-2.83v8h-2.19v-8Z"/>
    <path class="st0" d="M177.6,12.42h6.75v2.02h-4.56v1.85h4.31v2.02h-4.31v2.02h4.81v2.02h-7v-9.93Z"/>
    <path class="st0" d="M187.17,12.42h2.97l4.22,6.9h.03v-6.9h2.19v9.93h-2.86l-4.33-7.07h-.03v7.07h-2.19v-9.93Z"/>
    <path class="st0" d="M201.31,14.36h-2.83v-1.94h7.85v1.94h-2.83v8h-2.19v-8Z"/>
  </g>
  <path class="st0" d="M89.79,55.34c0-2.47-2-4.47-4.47-4.47s-4.47,2-4.47,4.47,2,4.47,4.47,4.47,4.47-2,4.47-4.47h0Z"/>
  <g>
    <path class="st0" d="M127,85.99h3.73c2.08,0,3.81.67,3.81,3.05s-1.6,3.07-3.71,3.07h-1.61v3.91h-2.21v-10.03ZM129.21,90.24h1.47c.78,0,1.56-.27,1.56-1.2,0-1.03-1.05-1.18-1.9-1.18h-1.13v2.38Z"/>
    <path class="st0" d="M136.59,85.99h3.88c2.05,0,3.78.71,3.78,3.05,0,1.4-.75,2.49-2.17,2.75l2.55,4.24h-2.65l-2.1-4.01h-1.09v4.01h-2.21v-10.03ZM138.8,90.14h1.3c.81,0,1.86-.03,1.86-1.12,0-1.01-.91-1.16-1.71-1.16h-1.44v2.28Z"/>
    <path class="st0" d="M151.44,85.74c3.13,0,5.41,2.05,5.41,5.27s-2.28,5.27-5.41,5.27-5.41-2.05-5.41-5.27,2.28-5.27,5.41-5.27ZM151.44,94.24c1.88,0,3.12-1.36,3.12-3.23s-1.23-3.23-3.12-3.23-3.12,1.36-3.12,3.23,1.23,3.23,3.12,3.23Z"/>
    <path class="st0" d="M159.27,85.99h6.73v2.04h-4.52v2.04h4.18v2.04h-4.18v3.91h-2.21v-10.03Z"/>
    <path class="st0" d="M168.36,85.99h6.81v2.04h-4.6v1.87h4.35v2.04h-4.35v2.04h4.86v2.04h-7.07v-10.03Z"/>
    <path class="st0" d="M183,88.44c-.36-.45-1.06-.67-1.6-.67-.62,0-1.49.28-1.49,1.03,0,1.83,4.62.65,4.62,4.17,0,2.24-1.8,3.3-3.87,3.3-1.29,0-2.42-.38-3.37-1.26l1.57-1.73c.45.59,1.19.95,1.93.95s1.53-.34,1.53-1.05c0-1.84-4.7-.85-4.7-4.19,0-2.14,1.86-3.26,3.83-3.26,1.13,0,2.22.3,3.07,1.05l-1.52,1.66Z"/>
    <path class="st0" d="M191.79,88.44c-.35-.45-1.06-.67-1.6-.67-.62,0-1.49.28-1.49,1.03,0,1.83,4.62.65,4.62,4.17,0,2.24-1.8,3.3-3.87,3.3-1.29,0-2.42-.38-3.37-1.26l1.57-1.73c.45.59,1.19.95,1.93.95s1.53-.34,1.53-1.05c0-1.84-4.71-.85-4.71-4.19,0-2.14,1.86-3.26,3.83-3.26,1.13,0,2.22.3,3.07,1.05l-1.52,1.66Z"/>
    <path class="st0" d="M195.73,85.99h2.21v10.03h-2.21v-10.03Z"/>
    <path class="st0" d="M205.67,85.74c3.13,0,5.41,2.05,5.41,5.27s-2.28,5.27-5.41,5.27-5.41-2.05-5.41-5.27,2.28-5.27,5.41-5.27ZM205.67,94.24c1.88,0,3.12-1.36,3.12-3.23s-1.23-3.23-3.12-3.23-3.12,1.36-3.12,3.23,1.23,3.23,3.12,3.23Z"/>
    <path class="st0" d="M213.45,85.99h3l4.26,6.97h.03v-6.97h2.21v10.03h-2.89l-4.38-7.14h-.03v7.14h-2.21v-10.03Z"/>
    <path class="st0" d="M229.16,85.99h1.83l4.36,10.03h-2.49l-.87-2.13h-3.89l-.84,2.13h-2.44l4.33-10.03ZM230.01,88.91l-1.22,3.12h2.45l-1.23-3.12Z"/>
    <path class="st0" d="M237.26,85.99h2.21v7.99h4.09v2.04h-6.3v-10.03Z"/>
    <path class="st0" d="M250.83,88.44c-.35-.45-1.06-.67-1.6-.67-.62,0-1.49.28-1.49,1.03,0,1.83,4.62.65,4.62,4.17,0,2.24-1.8,3.3-3.87,3.3-1.29,0-2.42-.38-3.37-1.26l1.57-1.73c.45.59,1.19.95,1.93.95s1.53-.34,1.53-1.05c0-1.84-4.7-.85-4.7-4.19,0-2.14,1.86-3.26,3.83-3.26,1.13,0,2.23.3,3.07,1.05l-1.52,1.66Z"/>
  </g>
  <g>
    <path class="st1" d="M44.28,71.63h-.28c-3.21,5.1-8.5,7.36-14.54,7.36-8.4,0-16.52-4.63-16.52-13.6,0-14.73,17.19-15.77,28.52-15.77h2.83v-1.23c0-5.57-4.34-8.5-10.39-8.5-4.72,0-9.06,1.89-12.09,4.72l-5.95-5.95c5-5.1,12.09-7.27,19.26-7.27,19.36,0,19.36,13.97,19.36,20.39v26.06h-10.2v-6.23ZM43.62,57.57h-2.36c-6.23,0-17,.47-17,6.99,0,4.15,4.25,5.95,7.93,5.95,7.74,0,11.43-4.06,11.43-10.39v-2.55Z"/>
    <path class="st1" d="M94.43,46.14c-2.65-2.74-5.57-4.53-8.59-4.53-8.31,0-13.31,6.52-13.31,13.6s5,13.6,13.31,13.6c3.49,0,6.7-1.51,8.78-4.25l7.55,8.12c-4.63,4.63-12.37,6.33-16.34,6.33-13.69,0-24.64-9.54-24.64-23.79s10.95-23.79,24.64-23.79c5.76,0,12.09,2.08,16.43,6.89l-7.84,7.84Z"/>
    <path class="st1" d="M106.45,32.54h10.76v6.8h.19c3.3-5.48,9.25-7.93,15.58-7.93,13.98,0,22.38,10.39,22.38,23.79s-8.97,23.79-21.91,23.79c-8.5,0-13.03-3.97-15.39-6.89h-.28v36.08h-11.33V32.54ZM130.72,41.61c-8.31,0-13.31,6.52-13.31,13.6s5,13.6,13.31,13.6,13.31-6.51,13.31-13.6-5.01-13.6-13.31-13.6Z"/>
    <path class="st1" d="M162.78,32.54h10.76v7.27h.19c2.08-4.53,6.33-8.4,13.88-8.4,12.18,0,16.52,8.59,16.52,17.85v28.61h-11.33v-22.94c0-5-.38-13.31-8.31-13.31-7.46,0-10.39,5.48-10.39,11.52v24.74h-11.33v-45.32Z"/>
  </g>
  <g>
    <path class="st1" d="M18.66,12.42h1.81l4.32,9.93h-2.47l-.86-2.1h-3.86l-.83,2.1h-2.41l4.29-9.93ZM19.5,15.31l-1.21,3.09h2.43l-1.22-3.09Z"/>
    <path class="st1" d="M26.67,12.42h6.66v2.02h-4.48v2.02h4.14v2.02h-4.14v3.87h-2.19v-9.93Z"/>
    <path class="st1" d="M37.82,14.36h-2.83v-1.94h7.86v1.94h-2.83v8h-2.19v-8Z"/>
    <path class="st1" d="M44.78,12.42h6.75v2.02h-4.56v1.85h4.31v2.02h-4.31v2.02h4.81v2.02h-7v-9.93Z"/>
    <path class="st1" d="M54.35,12.42h3.84c2.03,0,3.74.7,3.74,3.02,0,1.39-.74,2.47-2.15,2.72l2.53,4.19h-2.62l-2.08-3.97h-1.08v3.97h-2.19v-9.93ZM56.54,16.53h1.29c.8,0,1.84-.03,1.84-1.11,0-1-.9-1.15-1.7-1.15h-1.43v2.26Z"/>
    <path class="st1" d="M64.32,12.42h3.31l2.29,6.48h.03l2.3-6.48h3.3v9.93h-2.19v-7.62h-.03l-2.61,7.62h-1.67l-2.51-7.62h-.03v7.62h-2.19v-9.93Z"/>
    <path class="st1" d="M81.68,12.42h1.81l4.32,9.93h-2.47l-.86-2.1h-3.86l-.83,2.1h-2.41l4.29-9.93ZM82.52,15.31l-1.21,3.09h2.43l-1.22-3.09Z"/>
    <path class="st1" d="M89.65,12.42h3.84c2.03,0,3.74.7,3.74,3.02,0,1.39-.74,2.47-2.15,2.72l2.53,4.19h-2.62l-2.08-3.97h-1.08v3.97h-2.19v-9.93ZM91.84,16.53h1.29c.8,0,1.84-.03,1.84-1.11,0-1-.9-1.15-1.7-1.15h-1.43v2.26Z"/>
    <path class="st1" d="M99.67,12.42h2.19v4.12l3.86-4.12h2.86l-4.42,4.61,4.8,5.32h-3.06l-4.04-4.71v4.71h-2.19v-9.93Z"/>
    <path class="st1" d="M110.71,12.42h6.75v2.02h-4.56v1.85h4.31v2.02h-4.31v2.02h4.81v2.02h-7v-9.93Z"/>
    <path class="st1" d="M122.17,14.36h-2.83v-1.94h7.85v1.94h-2.83v8h-2.19v-8Z"/>
    <path class="st1" d="M140.35,15c-.43-.52-1.07-.81-1.88-.81-1.66,0-2.88,1.35-2.88,3.2s1.22,3.2,2.81,3.2c.88,0,1.6-.39,2.05-1.07l1.82,1.36c-.83,1.18-2.23,1.73-3.59,1.73-3.1,0-5.36-2.03-5.36-5.22s2.26-5.22,5.36-5.22c1.11,0,2.51.38,3.35,1.46l-1.68,1.37Z"/>
    <path class="st1" d="M148.8,12.17c3.1,0,5.36,2.03,5.36,5.22s-2.26,5.22-5.36,5.22-5.36-2.03-5.36-5.22,2.26-5.22,5.36-5.22ZM148.8,20.58c1.87,0,3.09-1.35,3.09-3.2s-1.22-3.2-3.09-3.2-3.09,1.35-3.09,3.2,1.22,3.2,3.09,3.2Z"/>
    <path class="st1" d="M156.5,12.42h2.97l4.22,6.9h.03v-6.9h2.19v9.93h-2.86l-4.33-7.07h-.03v7.07h-2.19v-9.93Z"/>
    <path class="st1" d="M170.64,14.36h-2.83v-1.94h7.85v1.94h-2.83v8h-2.19v-8Z"/>
    <path class="st1" d="M177.6,12.42h6.75v2.02h-4.56v1.85h4.31v2.02h-4.31v2.02h4.81v2.02h-7v-9.93Z"/>
    <path class="st1" d="M187.17,12.42h2.97l4.22,6.9h.03v-6.9h2.19v9.93h-2.86l-4.33-7.07h-.03v7.07h-2.19v-9.93Z"/>
    <path class="st1" d="M201.31,14.36h-2.83v-1.94h7.85v1.94h-2.83v8h-2.19v-8Z"/>
  </g>
  <path class="st1" d="M89.79,55.34c0-2.47-2-4.47-4.47-4.47s-4.47,2-4.47,4.47,2,4.47,4.47,4.47,4.47-2,4.47-4.47h0Z"/>
  <g>
    <path class="st1" d="M127,85.99h3.73c2.08,0,3.81.67,3.81,3.05s-1.6,3.07-3.71,3.07h-1.61v3.91h-2.21v-10.03ZM129.21,90.24h1.47c.78,0,1.56-.27,1.56-1.2,0-1.03-1.05-1.18-1.9-1.18h-1.13v2.38Z"/>
    <path class="st1" d="M136.59,85.99h3.88c2.05,0,3.78.71,3.78,3.05,0,1.4-.75,2.49-2.17,2.75l2.55,4.24h-2.65l-2.1-4.01h-1.09v4.01h-2.21v-10.03ZM138.8,90.14h1.3c.81,0,1.86-.03,1.86-1.12,0-1.01-.91-1.16-1.71-1.16h-1.44v2.28Z"/>
    <path class="st1" d="M151.44,85.74c3.13,0,5.41,2.05,5.41,5.27s-2.28,5.27-5.41,5.27-5.41-2.05-5.41-5.27,2.28-5.27,5.41-5.27ZM151.44,94.24c1.88,0,3.12-1.36,3.12-3.23s-1.23-3.23-3.12-3.23-3.12,1.36-3.12,3.23,1.23,3.23,3.12,3.23Z"/>
    <path class="st1" d="M159.27,85.99h6.73v2.04h-4.52v2.04h4.18v2.04h-4.18v3.91h-2.21v-10.03Z"/>
    <path class="st1" d="M168.36,85.99h6.81v2.04h-4.6v1.87h4.35v2.04h-4.35v2.04h4.86v2.04h-7.07v-10.03Z"/>
    <path class="st1" d="M183,88.44c-.36-.45-1.06-.67-1.6-.67-.62,0-1.49.28-1.49,1.03,0,1.83,4.62.65,4.62,4.17,0,2.24-1.8,3.3-3.87,3.3-1.29,0-2.42-.38-3.37-1.26l1.57-1.73c.45.59,1.19.95,1.93.95s1.53-.34,1.53-1.05c0-1.84-4.7-.85-4.7-4.19,0-2.14,1.86-3.26,3.83-3.26,1.13,0,2.22.3,3.07,1.05l-1.52,1.66Z"/>
    <path class="st1" d="M191.79,88.44c-.35-.45-1.06-.67-1.6-.67-.62,0-1.49.28-1.49,1.03,0,1.83,4.62.65,4.62,4.17,0,2.24-1.8,3.3-3.87,3.3-1.29,0-2.42-.38-3.37-1.26l1.57-1.73c.45.59,1.19.95,1.93.95s1.53-.34,1.53-1.05c0-1.84-4.71-.85-4.71-4.19,0-2.14,1.86-3.26,3.83-3.26,1.13,0,2.22.3,3.07,1.05l-1.52,1.66Z"/>
    <path class="st1" d="M195.73,85.99h2.21v10.03h-2.21v-10.03Z"/>
    <path class="st1" d="M205.67,85.74c3.13,0,5.41,2.05,5.41,5.27s-2.28,5.27-5.41,5.27-5.41-2.05-5.41-5.27,2.28-5.27,5.41-5.27ZM205.67,94.24c1.88,0,3.12-1.36,3.12-3.23s-1.23-3.23-3.12-3.23-3.12,1.36-3.12,3.23,1.23,3.23,3.12,3.23Z"/>
    <path class="st1" d="M213.45,85.99h3l4.26,6.97h.03v-6.97h2.21v10.03h-2.89l-4.38-7.14h-.03v7.14h-2.21v-10.03Z"/>
    <path class="st1" d="M229.16,85.99h1.83l4.36,10.03h-2.49l-.87-2.13h-3.89l-.84,2.13h-2.44l4.33-10.03ZM230.01,88.91l-1.22,3.12h2.45l-1.23-3.12Z"/>
    <path class="st1" d="M237.26,85.99h2.21v7.99h4.09v2.04h-6.3v-10.03Z"/>
    <path class="st1" d="M250.83,88.44c-.35-.45-1.06-.67-1.6-.67-.62,0-1.49.28-1.49,1.03,0,1.83,4.62.65,4.62,4.17,0,2.24-1.8,3.3-3.87,3.3-1.29,0-2.42-.38-3.37-1.26l1.57-1.73c.45.59,1.19.95,1.93.95s1.53-.34,1.53-1.05c0-1.84-4.7-.85-4.7-4.19,0-2.14,1.86-3.26,3.83-3.26,1.13,0,2.23.3,3.07,1.05l-1.52,1.66Z"/>
  </g>
</svg>