<svg xmlns="http://www.w3.org/2000/svg" viewBox="122 7 131 32" aria-hidden="true">
  <path fill="#09132c" d="M165.5,8.7c-6.1,0-11.5,2-15.1,5.7l-.3.3,5.2,5.2.3-.3c2.4-2.2,5.7-3.5,9-3.5,4.7,0,7.6,2.3,7.6,6.1v9c0,4.7-3.3,7.6-8.9,7.6-2.7,0-5.7-1.3-5.7-4.2,0-3.3,4-5,12.4-5h.4v-7h-.4c-6,0-22,0-22,12.6,0,7.5,6.8,10.9,13.1,10.9,5.8,0,9.5-3.2,11-4.9v4h8.7v-20.3c0-4.8,0-16.2-15.3-16.2Z"/>
  <path fill="#09132c" d="M142.2,34.4c-1.5,1.9-3.8,3-6.3,3-6.2,0-9.6-5.1-9.6-9.8s3.4-9.8,9.6-9.8c2,0,4.1,1.1,6.2,3.3l.3.3,6.5-6.5-.3-.3c-3-3.4-7.7-5.3-12.7-5.3-11,0-19,7.7-19,18.3s8,18.3,19,18.3c3.1,0,9-1.3,12.6-4.9l.3-.3-6.3-6.8-.3.5Z"/>
  <path fill="#09132c" d="M205.2,17.3v-7.4h-.4c-2.8,0-8.9,1.5-11.5,4.9v-4.5h-9.4v35h9.4v-18.8c0-5.7,6.7-9.2,11.5-9.2h.4Z"/>
  <path fill="#09132c" d="M214.8,23.9c0,.1-.3,1.6-.3,3.2,0,1.7.3,3.5.3,3.5l.1.4h24.4v-2.8c0-12-6.5-19.5-16.8-19.5-11.3,0-19.5,7.9-19.5,18.8s8.2,18.8,19.5,18.8c6.2,0,11.3-2.4,15.1-7.1l.3-.3-7-5.2-.3.3c-2.5,3.1-5.4,4.6-9.1,4.6-4.8,0-8.5-3.2-9-7.9,0,0-.2-1.9-.2-3.4s.2-3,.2-3.1c.6-5,3.9-7.9,8.6-7.9,5.1,0,8.2,2.8,8.5,7.5h-14.8v.1Z"/>
</svg>
