<?xml version="1.0" encoding="UTF-8"?>
<svg id="Layer_1" xmlns="http://www.w3.org/2000/svg" version="1.1" viewBox="0 0 254.23 73.95">
  <!-- Generator: Adobe Illustrator 30.5.1, SVG Export Plug-In . SVG Version: 2.1.4 Build 3)  -->
  <defs>
    <style>
      .st0 {
        fill: #e37b3d;
      }

      .st1 {
        fill: #80888f;
      }
    </style>
  </defs>
  <g>
    <path class="st1" d="M10.3,53.43h2.8l7.9,18.5h-3.8l-1.7-4.2H7.5l-1.7,4.2h-3.7l8.2-18.5ZM14.4,64.83l-2.8-7.5-2.9,7.5h5.7Z"/>
    <path class="st1" d="M39.1,57.33c-.7-1-1.9-1.5-3.2-1.5-1.5,0-3,.7-3,2.4,0,3.7,8.8,1.6,8.8,8.2,0,4-3.1,5.9-6.8,5.9-2.3,0-4.5-.7-6.1-2.5l2.5-2.4c.8,1.2,2.2,1.9,3.6,1.9,1.5,0,3.2-.8,3.2-2.5,0-4-8.8-1.7-8.8-8.3,0-3.8,3.4-5.6,6.8-5.6,1.9,0,3.9.5,5.3,1.9,0,0-2.3,2.5-2.3,2.5Z"/>
    <path class="st1" d="M61.1,57.33c-.7-1-1.9-1.5-3.2-1.5-1.5,0-3,.7-3,2.4,0,3.7,8.8,1.6,8.8,8.2,0,4-3.1,5.9-6.8,5.9-2.3,0-4.5-.7-6.1-2.5l2.5-2.4c.8,1.2,2.2,1.9,3.6,1.9,1.5,0,3.2-.8,3.2-2.5,0-4-8.8-1.7-8.8-8.3,0-3.8,3.4-5.6,6.8-5.6,1.9,0,3.9.5,5.3,1.9,0,0-2.3,2.5-2.3,2.5Z"/>
    <path class="st1" d="M82.2,52.93c5.8-.1,9.8,3.8,9.8,9.7s-4.1,9.6-9.8,9.7c-5.7,0-9.8-3.9-9.8-9.6.1-6,4.1-9.8,9.8-9.8ZM82.3,69.33c3.8,0,6.4-2.9,6.4-6.9,0-3.7-2.5-6.6-6.4-6.6s-6.3,2.9-6.3,6.6c-.1,4,2.4,6.9,6.3,6.9Z"/>
    <path class="st1" d="M112.8,57.73c-1.4-1.4-2.6-1.8-3.9-1.8-3.8,0-6.3,2.9-6.3,6.6,0,3.9,2.5,6.9,6.3,6.9,1.5,0,2.9-.7,4.1-2.2l2.7,1.9c-1.7,2.3-4.2,3.3-6.9,3.3-5.7,0-9.8-3.9-9.8-9.6s4.1-9.8,9.8-9.8c2.5,0,4.6.8,6.5,2.9l-2.5,1.8h0Z"/>
    <path class="st1" d="M124.8,53.43h3.3v18.5h-3.3v-18.5Z"/>
    <path class="st1" d="M145.1,53.43h2.8l8,18.5h-3.8l-1.7-4.2h-8l-1.7,4.2h-3.7l8.1-18.5h0ZM149.3,64.83l-2.8-7.5-2.9,7.5h5.7Z"/>
    <path class="st1" d="M166.4,56.33h-5.7v-3h14.6v3h-5.7v15.5h-3.3l.1-15.5h0Z"/>
    <path class="st1" d="M184.4,53.43h3.3v18.5h-3.3v-18.5Z"/>
    <path class="st1" d="M206.5,52.93c5.8-.1,9.8,3.8,9.8,9.7s-4.1,9.6-9.8,9.7c-5.7,0-9.8-3.9-9.8-9.6,0-6,4.1-9.8,9.8-9.8ZM206.5,69.33c3.8,0,6.4-2.9,6.4-6.9,0-3.7-2.5-6.6-6.4-6.6s-6.3,2.9-6.3,6.6c0,4,2.5,6.9,6.3,6.9Z"/>
    <path class="st1" d="M224.3,53.43h4.4l8.9,13.7h0v-13.7h3.3v18.5h-4.2l-9.1-14.1h0v14.1h-3.3v-18.5h0Z"/>
  </g>
  <g>
    <path class="st0" d="M207.2,19.73v-7.4h-.4c-2.8,0-8.9,1.5-11.5,4.9v-4.5h-9.4v35h9.4v-18.8c0-5.7,6.7-9.2,11.5-9.2h.4Z"/>
    <path class="st0" d="M144.2,36.83c-1.5,1.9-3.8,3-6.3,3-6.2,0-9.6-5.1-9.6-9.8s3.4-9.8,9.6-9.8c2,0,4.1,1.1,6.2,3.3l.3.3,6.5-6.5-.3-.3c-3-3.4-7.7-5.3-12.7-5.3-11,0-19,7.7-19,18.3s8,18.3,19,18.3c3.1,0,9-1.3,12.6-4.9l.3-.3-6.3-6.8-.3.5Z"/>
    <path class="st0" d="M216.8,26.33c0,.1-.3,1.6-.3,3.2,0,1.7.3,3.5.3,3.5l.1.4h24.4v-2.8c0-12-6.5-19.5-16.8-19.5-11.3,0-19.5,7.9-19.5,18.8s8.2,18.8,19.5,18.8c6.2,0,11.3-2.4,15.1-7.1l.3-.3-7-5.2-.3.3c-2.5,3.1-5.4,4.6-9.1,4.6-4.8,0-8.5-3.2-9-7.9,0,0-.2-1.9-.2-3.4s.2-3,.2-3.1c.6-5,3.9-7.9,8.6-7.9,5.1,0,8.2,2.8,8.5,7.5h-14.8v.1Z"/>
    <path class="st0" d="M167.5,11.13c-6.1,0-11.5,2-15.1,5.7l-.3.3,5.2,5.2.3-.3c2.4-2.2,5.7-3.5,9-3.5,4.7,0,7.6,2.3,7.6,6.1v9c0,4.7-3.3,7.6-8.9,7.6-2.7,0-5.7-1.3-5.7-4.2,0-3.3,4-5,12.4-5h.4v-7h-.4c-6,0-22,0-22,12.6,0,7.5,6.8,10.9,13.1,10.9,5.8,0,9.5-3.2,11-4.9v4h8.7v-20.3c0-4.8,0-16.2-15.3-16.2Z"/>
  </g>
  <g>
    <path class="st1" d="M47.2,48.33c-10.9,0-13.3-7.4-13.3-15V12.43h4.5v20.6c0,5.7,1.6,11.2,8.8,11.2h2.6c7.2,0,8.8-5.5,8.8-11.2V12.43h4.5v20.8c0,7.6-2.4,15-13.3,15h-2.6v.1Z"/>
    <path class="st1" d="M85.4,16.53h-9.5v22.8c0,3.1,1.8,4,4.8,4h4.7v4.1h-5.1c-6.5,0-8.9-3.1-8.9-8.1v-22.8h-5.4v-4.1h5.4V2.43h4.5v10.1h13.4c0-.1-2,1.5-3.9,4Z"/>
    <path class="st1" d="M102.8,11.53c10.7,0,18.4,7.7,18.4,18.4s-7.6,18.4-18.4,18.4-18.4-7.7-18.4-18.4,7.7-18.4,18.4-18.4ZM102.8,44.23c8.5,0,13.8-6.4,13.8-14.3s-5.3-14.3-13.8-14.3-13.8,6.4-13.8,14.3,5.3,14.3,13.8,14.3Z"/>
    <path class="st1" d="M26.4,26.23v-2.1c0-6-4.2-8.5-9.8-8.5-4.1,0-7.6,1.3-10.7,3.9l-2.6-3.1c3.3-3.2,8.8-4.9,13.3-4.9,8.5,0,13.9,3.8,13.9,12.6v8.5c0,6.8.1,10.7.7,14.7h-4.2c-.3-1.7-.4-3.7-.4-5.7h-.1c-2.6,4.5-6.4,6.6-12.2,6.6s-12.3-3-12.3-10.4c0-10.7,12.5-11.7,19.4-11.7h2.9v3.6h-2.6c-7.6,0-15.1,1.9-15.1,7.9,0,4.3,4.2,6.5,7.9,6.5,9.7,0,12.2-6.2,12.2-12v-2.3l-.3-3.6h0Z"/>
  </g>
  <path class="st1" d="M241.7,14.03c0-.8.1-1.5.5-2.2.3-.7.7-1.3,1.2-1.8s1.1-.9,1.8-1.2,1.4-.5,2.2-.5,1.5.1,2.2.5,1.3.7,1.8,1.2.9,1.1,1.2,1.8.5,1.4.5,2.2-.2,1.5-.5,2.2-.7,1.3-1.2,1.8-1.1.9-1.8,1.2c-.7.3-1.4.5-2.2.5s-1.5-.1-2.2-.5c-.7-.3-1.3-.7-1.8-1.2s-.9-1.1-1.2-1.8c-.3-.6-.5-1.4-.5-2.2ZM242.8,14.03c0,.6.1,1.3.4,1.8.2.6.6,1.1,1,1.5s.9.8,1.5,1,1.2.4,1.8.4c.7,0,1.3-.1,1.8-.4.6-.2,1.1-.6,1.5-1s.8-.9,1-1.5.4-1.2.4-1.8-.1-1.3-.4-1.8c-.2-.6-.6-1.1-1-1.5s-.9-.8-1.5-1-1.2-.4-1.8-.4-1.3.1-1.8.4-1.1.6-1.5,1c-.4.4-.8.9-1,1.5-.3.6-.4,1.2-.4,1.8ZM245.3,10.73h2.5c.8,0,1.4.2,1.8.5s.6.8.6,1.5c0,.6-.1,1-.5,1.3-.3.3-.7.5-1.1.5l1.7,2.8h-1.3l-1.6-2.7h-.9v2.7h-1.2v-6.6h0ZM246.5,13.63h1.5c.2,0,.4,0,.5-.1.2-.1.3-.2.4-.3.1-.1.1-.3.1-.5s0-.4-.1-.5-.2-.2-.4-.3c-.1-.1-.3-.1-.5-.1h-1.5v1.8Z"/>
</svg>