<?xml version="1.0" encoding="UTF-8"?>
<svg id="Layer_1" xmlns="http://www.w3.org/2000/svg" xmlns:xlink="http://www.w3.org/1999/xlink" version="1.1" viewBox="0 0 154.17 156.06">
  <!-- Generator: Adobe Illustrator 30.5.1, SVG Export Plug-In . SVG Version: 2.1.4 Build 3)  -->
  <defs>
    <style>
      .st0 {
        fill: none;
      }

      .st1 {
        fill: #aa182c;
      }

      .st2 {
        fill: #72808a;
      }

      .st3 {
        fill: #8f99a3;
      }

      .st4 {
        fill: #fff;
      }

      .st5 {
        clip-path: url(#clippath);
      }
    </style>
    <clipPath id="clippath">
      <path class="st0" d="M144.31,143.17c-44.09,11.38-90.35,11.38-134.45,0-2.06-.54-3.73-2.7-3.73-4.78V20.16c0-2.09,1.67-4.25,3.73-4.78,44.09-11.38,90.35-11.38,134.45,0,2.06.54,3.73,2.7,3.73,4.78v118.23c0,2.09-1.67,4.25-3.73,4.78Z"/>
    </clipPath>
  </defs>
  <g>
    <path class="st0" d="M144.31,143.17c-44.09,11.38-90.35,11.38-134.45,0-2.06-.54-3.73-2.7-3.73-4.78V20.16c0-2.09,1.67-4.25,3.73-4.78,44.09-11.38,90.35-11.38,134.45,0,2.06.54,3.73,2.7,3.73,4.78v118.23c0,2.09-1.67,4.25-3.73,4.78Z"/>
    <g class="st5">
      <g>
        <rect class="st1" width="154.17" height="90.46"/>
        <rect class="st2" y="93.84" width="154.17" height="60.01"/>
        <path class="st3" d="M76.78,95.47c40.94,0,70.38,5.06,75.74,5.86.02-2.75.03-6.69.03-10.87H1.61c0,4.18,0,8.11.03,10.87,5.3-.8,34.24-5.85,75.15-5.85Z"/>
      </g>
    </g>
    <g>
      <path class="st4" d="M23.53,110.26h1.57l1.99,9.75h-1.35l-.45-2.49h-2.11l-.45,2.49h-1.35l2.15-9.75ZM23.39,116.4h1.71l-.84-4.7h-.03l-.85,4.7Z"/>
      <path class="st4" d="M28.61,110.26h3.67v1.13h-2.32v3.05h2.19v1.13h-2.19v4.43h-1.35v-9.75Z"/>
      <path class="st4" d="M33.56,110.26h4.59v1.13h-1.62v8.62h-1.35v-8.62h-1.62v-1.13Z"/>
      <path class="st4" d="M39.64,110.26h3.67v1.13h-2.32v3.05h2.19v1.13h-2.19v3.29h2.32v1.13h-3.67v-9.75Z"/>
      <path class="st4" d="M44.79,110.26h2.09c1.97,0,2.17.53,2.17,2.66,0,1.31-.17,1.88-1.28,2.21v.03c.92.09,1.23.57,1.23,1.49v2.12c0,.35,0,.84.08,1.24h-1.27c-.13-.24-.16-.49-.16-.88v-2.2c0-.92-.16-1.16-1.05-1.16h-.46v4.24h-1.35v-9.75ZM46.14,114.64h.35c1.07,0,1.22-.2,1.22-1.66s-.08-1.58-.92-1.58h-.65v3.24Z"/>
      <path class="st4" d="M50.76,110.26h2.15l1.24,7.43h.03l1.24-7.43h2.09v9.75h-1.27v-8.78h-.03l-1.38,8.78h-1.35l-1.51-8.78h-.03v8.78h-1.19v-9.75Z"/>
      <path class="st4" d="M61.19,110.26h1.57l1.99,9.75h-1.35l-.45-2.49h-2.11l-.45,2.49h-1.35l2.15-9.75ZM61.04,116.4h1.71l-.84-4.7h-.03l-.85,4.7Z"/>
      <path class="st4" d="M66.26,110.26h2.09c1.97,0,2.17.53,2.17,2.66,0,1.31-.17,1.88-1.28,2.21v.03c.92.09,1.23.57,1.23,1.49v2.12c0,.35,0,.84.08,1.24h-1.27c-.13-.24-.16-.49-.16-.88v-2.2c0-.92-.16-1.16-1.05-1.16h-.46v4.24h-1.35v-9.75ZM67.61,114.64h.35c1.07,0,1.22-.2,1.22-1.66s-.08-1.58-.92-1.58h-.65v3.24Z"/>
      <path class="st4" d="M72.23,110.26h1.35v4.44h.03l2.13-4.44h1.35l-2.27,4.58,2.43,5.17h-1.51l-2.13-4.88h-.03v4.88h-1.35v-9.75Z"/>
      <path class="st4" d="M78.68,110.26h3.67v1.13h-2.32v3.05h2.19v1.13h-2.19v3.29h2.32v1.13h-3.67v-9.75Z"/>
      <path class="st4" d="M83.63,110.26h4.59v1.13h-1.62v8.62h-1.35v-8.62h-1.62v-1.13Z"/>
      <path class="st4" d="M92.65,112.75c0-1.36.45-2.57,2.28-2.57,1.34,0,1.96.67,1.96,1.77v.97h-1.27v-.67c0-.62-.22-1.01-.78-1.01-.7,0-.84.5-.84,1.67v4.78c0,1.15.37,1.35.8,1.35.5,0,.82-.35.82-1.16v-.68h1.27v1.08c0,1.03-.42,1.81-1.99,1.81-1.7,0-2.25-.91-2.25-2.42v-4.93Z"/>
      <path class="st4" d="M100.27,110.26h1.57l1.99,9.75h-1.35l-.45-2.49h-2.11l-.45,2.49h-1.35l2.15-9.75ZM100.12,116.4h1.71l-.84-4.7h-.03l-.85,4.7Z"/>
      <path class="st4" d="M104.32,110.26h4.59v1.13h-1.62v8.62h-1.35v-8.62h-1.62v-1.13Z"/>
      <path class="st4" d="M111.55,110.26h1.57l1.99,9.75h-1.35l-.45-2.49h-2.11l-.45,2.49h-1.35l2.15-9.75ZM111.4,116.4h1.71l-.84-4.7h-.03l-.85,4.7Z"/>
      <path class="st4" d="M116.63,110.26h1.35v8.62h2.27v1.13h-3.62v-9.75Z"/>
      <path class="st4" d="M121.68,112.75c0-1.36.45-2.57,2.28-2.57,1.74,0,2.3.9,2.3,2.42v4.93c0,1.36-.45,2.57-2.3,2.57-1.73,0-2.28-.91-2.28-2.42v-4.93ZM123.03,117.76c0,.84.38,1.28.93,1.28s.95-.45.95-1.28v-5.12c0-.96-.32-1.41-.95-1.41s-.93.45-.93,1.41v5.12Z"/>
      <path class="st4" d="M131.08,112.84v-.5c0-.69-.34-1.11-.86-1.11-.62,0-.93.57-.93,1.61v4.92c0,.78.38,1.28.93,1.28.38,0,.69-.05.86-.09v-2.86h-.89v-1.13h2.24v4.9c-.53.12-1.46.24-2.23.24-1.71,0-2.27-.91-2.27-2.42v-4.93c0-1.82.55-2.57,2.29-2.57,1.45,0,2.2.53,2.2,1.77v.89h-1.35Z"/>
      <path class="st4" d="M27.39,124.26h3.67v1.13h-2.32v3.05h2.19v1.13h-2.19v3.29h2.32v1.13h-3.67v-9.75Z"/>
      <path class="st4" d="M34.46,128.95l-1.96-4.69h1.43l1.27,3.43,1.27-3.43h1.35l-1.94,4.82,2.01,4.93h-1.43l-1.32-3.58-1.43,3.58h-1.35l2.11-5.06Z"/>
      <path class="st4" d="M39.06,126.75c0-1.36.45-2.57,2.28-2.57,1.34,0,1.96.68,1.96,1.77v.97h-1.27v-.67c0-.62-.22-1.01-.78-1.01-.7,0-.84.5-.84,1.67v4.78c0,1.15.37,1.35.8,1.35.5,0,.82-.35.82-1.16v-.67h1.27v1.08c0,1.03-.42,1.81-1.99,1.81-1.7,0-2.25-.91-2.25-2.42v-4.93Z"/>
      <path class="st4" d="M44.82,124.26h1.35v4.19h1.8v-4.19h1.35v9.75h-1.35v-4.43h-1.8v4.43h-1.35v-9.75Z"/>
      <path class="st4" d="M52.98,124.26h1.57l1.99,9.75h-1.35l-.45-2.48h-2.11l-.45,2.48h-1.35l2.15-9.75ZM52.84,130.4h1.71l-.84-4.7h-.03l-.85,4.7Z"/>
      <path class="st4" d="M58.06,124.26h1.86l1.59,8.1h.03v-8.1h1.27v9.75h-1.94l-1.59-8.32h-.03v8.32h-1.19v-9.75Z"/>
      <path class="st4" d="M67.67,126.84v-.5c0-.69-.34-1.11-.86-1.11-.62,0-.93.57-.93,1.61v4.92c0,.78.38,1.28.93,1.28.38,0,.69-.05.86-.09v-2.86h-.89v-1.13h2.24v4.9c-.53.12-1.46.24-2.23.24-1.71,0-2.27-.91-2.27-2.42v-4.93c0-1.82.55-2.57,2.29-2.57,1.45,0,2.2.53,2.2,1.77v.89h-1.35Z"/>
      <path class="st4" d="M70.73,124.26h3.67v1.13h-2.32v3.05h2.19v1.13h-2.19v3.29h2.32v1.13h-3.67v-9.75Z"/>
      <path class="st4" d="M78.83,131.19h1.35v.8c0,.65.24,1.05.78,1.05.72,0,.89-.49.89-1.12,0-.82-.04-1.09-1.45-2.49-.86-.86-1.58-1.65-1.58-2.97,0-1.59.74-2.28,2.21-2.28.73,0,1.26.24,1.58.54.23.22.39.55.39,1.24v.92h-1.27v-.77c0-.55-.23-.88-.76-.88-.55,0-.81.31-.81,1.07,0,.66.14,1.07,1.38,2.36,1.32,1.38,1.57,1.85,1.57,3.03,0,1.53-.59,2.4-2.2,2.4-1.24,0-2.09-.53-2.09-1.74v-1.16Z"/>
      <path class="st4" d="M84.47,124.26h4.59v1.13h-1.62v8.62h-1.35v-8.62h-1.62v-1.13Z"/>
      <path class="st4" d="M91.7,124.26h1.57l1.99,9.75h-1.35l-.45-2.48h-2.11l-.45,2.48h-1.35l2.15-9.75ZM91.55,130.4h1.71l-.84-4.7h-.03l-.85,4.7Z"/>
      <path class="st4" d="M96.77,124.26h1.86l1.59,8.1h.03v-8.1h1.27v9.75h-1.94l-1.59-8.32h-.03v8.32h-1.19v-9.75Z"/>
      <path class="st4" d="M103.26,124.26h2.17c2.19,0,2.36.73,2.36,3.57v2.9c0,2.5-.45,3.28-2.58,3.28h-1.96v-9.75ZM104.61,132.88h.65c1,0,1.19-.53,1.19-2.2v-3.35c0-1.44-.15-1.93-1.3-1.93h-.54v7.48Z"/>
      <path class="st4" d="M111.24,124.26h1.57l1.99,9.75h-1.35l-.45-2.48h-2.11l-.45,2.48h-1.35l2.15-9.75ZM111.09,130.4h1.71l-.84-4.7h-.03l-.85,4.7Z"/>
      <path class="st4" d="M116.31,124.26h2.09c1.97,0,2.17.53,2.17,2.66,0,1.31-.17,1.88-1.28,2.21v.03c.92.09,1.23.57,1.23,1.49v2.12c0,.35,0,.84.08,1.24h-1.27c-.13-.24-.16-.49-.16-.88v-2.2c0-.92-.16-1.16-1.05-1.16h-.46v4.24h-1.35v-9.75ZM117.66,128.64h.35c1.07,0,1.22-.2,1.22-1.66s-.08-1.58-.92-1.58h-.65v3.24Z"/>
      <path class="st4" d="M122.28,124.26h2.17c2.19,0,2.36.73,2.36,3.57v2.9c0,2.5-.45,3.28-2.58,3.28h-1.96v-9.75ZM123.63,132.88h.65c1,0,1.19-.53,1.19-2.2v-3.35c0-1.44-.15-1.93-1.3-1.93h-.54v7.48Z"/>
    </g>
    <g>
      <path class="st4" d="M20.09,71.54l3.85-12.6h15l-3.7-12.35-2.6,7.95h-7.2l6.2-18.5h7.25l11.55,35.5h-7.7l-1.75-5.8h-11.55l-1.65,5.8h-7.7Z"/>
      <path class="st4" d="M68.14,64.74c1.7,0,2.5-.75,2.5-2.45v-1.8h7.2v3.8c0,4.85-2.6,7.25-8.2,7.25h-8.7c-5.6,0-8.25-2.4-8.25-7.25v-21c0-4.85,2.65-7.25,8.25-7.25h8.7c5.6,0,8.2,2.4,8.2,7.25v3.7h-7.2v-1.7c0-1.7-.8-2.45-2.5-2.45h-5.75c-1.7,0-2.5.75-2.5,2.45v17c0,1.7.8,2.45,2.5,2.45h5.75Z"/>
      <path class="st4" d="M88.88,53.34h12.35l-1,6.8h-11.35v4.6h15.35l-1,6.8h-21.55v-35.5h22.55l-1,6.8h-14.35v10.5Z"/>
      <path class="st4" d="M115.03,55.69c-5.5-2.55-7.2-3.7-7.2-8.45v-4.95c0-4.15,2.35-6.25,7.25-6.25h9.15c4.9,0,7.25,2.1,7.25,6.25v4.2h-7.2v-1.7c0-1.35-.65-1.95-2-1.95h-5.2c-1.4,0-2.05.6-2.05,1.95v1c0,1.6.6,1.9,2.05,2.55l7.7,3.5c4.8,2.2,7.2,3.2,7.2,6.9v6.55c0,4.15-2.35,6.25-7.25,6.25h-10.15c-4.9,0-7.25-2.1-7.25-6.25v-4.8h7.2v2.3c0,1.35.65,1.95,2,1.95h6.25c1.35,0,2-.6,2-1.95v-1.45c0-1.2-.75-1.65-2.05-2.2l-7.7-3.45Z"/>
    </g>
  </g>
  <path class="st2" d="M144.23,146.62c1.3,0,2.42.46,3.34,1.38s1.39,2.03,1.39,3.32-.46,2.42-1.39,3.35c-.92.93-2.04,1.39-3.34,1.39s-2.41-.46-3.34-1.39c-.92-.93-1.38-2.04-1.38-3.35s.46-2.41,1.38-3.33c.92-.92,2.03-1.38,3.34-1.38ZM144.23,155.2c1.07,0,1.99-.38,2.75-1.14s1.14-1.67,1.14-2.74-.38-1.97-1.14-2.73-1.68-1.14-2.75-1.14-1.97.38-2.73,1.14-1.14,1.67-1.14,2.73.38,1.99,1.13,2.74c.75.76,1.67,1.13,2.73,1.13ZM146.64,153.85h-1.12l-1.33-2.02h-.61v2.02h-.99v-5.1h1.6c.54,0,.98.14,1.32.41.35.27.52.64.52,1.09,0,.64-.33,1.08-.98,1.34l1.59,2.26ZM143.57,151.02h.53c.64,0,.96-.25.96-.74,0-.47-.3-.7-.91-.7h-.58v1.45Z"/>
</svg>