<?xml version="1.0" encoding="UTF-8"?>
<svg id="Layer_1" xmlns="http://www.w3.org/2000/svg" version="1.1" viewBox="0 0 274.11 108.09">
  <!-- Generator: Adobe Illustrator 30.5.1, SVG Export Plug-In . SVG Version: 2.1.4 Build 3)  -->
  <defs>
    <style>
      .st0 {
        fill: #005996;
      }

      .st1 {
        fill: #fff;
      }
    </style>
  </defs>
  <rect class="st0" width="274.11" height="108.09"/>
  <g>
    <path class="st1" d="M44.24,71.57h-.28c-3.21,5.09-8.49,7.36-14.53,7.36-8.4,0-16.51-4.62-16.51-13.58,0-14.72,17.17-15.75,28.49-15.75h2.83v-1.23c0-5.57-4.34-8.49-10.38-8.49-4.72,0-9.06,1.89-12.08,4.72l-5.94-5.94c5-5.09,12.08-7.26,19.24-7.26,19.34,0,19.34,13.96,19.34,20.38v26.04h-10.19v-6.23ZM43.58,57.51h-2.36c-6.23,0-16.98.47-16.98,6.98,0,4.15,4.25,5.94,7.92,5.94,7.74,0,11.41-4.06,11.41-10.38v-2.55Z"/>
    <path class="st1" d="M54.16,32.51h12.26l9.81,31.7h.19l9.15-31.7h12.26l9.81,31.7h.19l9.43-31.7h11.41l-15.38,45.28h-11.23l-10.75-30.94h-.19l-9.53,30.94h-11.7l-15.75-45.28Z"/>
    <path class="st1" d="M167,71h-.19c-3.3,5.47-9.25,7.92-15.57,7.92-13.96,0-22.36-10.38-22.36-23.77s8.96-23.77,21.89-23.77c8.49,0,13.02,3.96,15.38,6.89h.28V6.47h11.32v71.32h-10.75v-6.79ZM153.51,68.74c8.3,0,13.3-6.51,13.3-13.58s-5-13.58-13.3-13.58-13.3,6.51-13.3,13.58,5,13.58,13.3,13.58Z"/>
    <path class="st1" d="M215.55,71.57h-.28c-3.21,5.09-8.49,7.36-14.53,7.36-8.4,0-16.51-4.62-16.51-13.58,0-14.72,17.17-15.75,28.49-15.75h2.83v-1.23c0-5.57-4.34-8.49-10.38-8.49-4.72,0-9.06,1.89-12.08,4.72l-5.94-5.94c5-5.09,12.08-7.26,19.24-7.26,19.34,0,19.34,13.96,19.34,20.38v26.04h-10.19v-6.23ZM214.88,57.51h-2.36c-6.23,0-16.98.47-16.98,6.98,0,4.15,4.24,5.94,7.92,5.94,7.74,0,11.41-4.06,11.41-10.38v-2.55Z"/>
  </g>
  <g>
    <path class="st1" d="M14.24,86.47h2.41l1.6,6.43h.03l2.1-6.43h2.05l2.08,6.6h.03l1.68-6.6h2.24l-2.93,10.02h-1.97l-2.21-6.94h-.03l-2.21,6.94h-1.9l-2.97-10.02Z"/>
    <path class="st1" d="M32.91,86.47h1.83l4.36,10.02h-2.49l-.86-2.12h-3.89l-.84,2.12h-2.43l4.33-10.02ZM33.76,89.39l-1.22,3.11h2.45l-1.23-3.11Z"/>
    <path class="st1" d="M40.96,86.47h3.88c2.05,0,3.78.71,3.78,3.04,0,1.4-.75,2.49-2.17,2.75l2.55,4.23h-2.65l-2.1-4.01h-1.09v4.01h-2.21v-10.02ZM43.16,90.62h1.3c.81,0,1.85-.03,1.85-1.12,0-1-.91-1.16-1.71-1.16h-1.44v2.28Z"/>
    <path class="st1" d="M51.07,86.47h6.81v2.04h-4.6v1.87h4.35v2.04h-4.35v2.04h4.86v2.04h-7.06v-10.02Z"/>
    <path class="st1" d="M60.72,86.47h2.21v3.74h4.29v-3.74h2.21v10.02h-2.21v-4.33h-4.29v4.33h-2.21v-10.02Z"/>
    <path class="st1" d="M77.19,86.22c3.13,0,5.41,2.05,5.41,5.27s-2.28,5.27-5.41,5.27-5.41-2.05-5.41-5.27,2.28-5.27,5.41-5.27ZM77.19,94.71c1.88,0,3.11-1.36,3.11-3.23s-1.23-3.23-3.11-3.23-3.11,1.36-3.11,3.23,1.23,3.23,3.11,3.23Z"/>
    <path class="st1" d="M93.33,92.63c0,2.36-1.44,4.12-4.22,4.12s-4.23-1.76-4.23-4.12v-6.16h2.21v6.07c0,1.23.85,2.17,2.02,2.17s2.01-.93,2.01-2.17v-6.07h2.21v6.16Z"/>
    <path class="st1" d="M101.03,88.92c-.35-.45-1.06-.67-1.6-.67-.62,0-1.49.28-1.49,1.03,0,1.83,4.61.65,4.61,4.16,0,2.24-1.8,3.3-3.86,3.3-1.29,0-2.42-.38-3.37-1.26l1.57-1.73c.45.59,1.19.95,1.92.95s1.53-.34,1.53-1.05c0-1.84-4.7-.85-4.7-4.19,0-2.14,1.85-3.26,3.82-3.26,1.13,0,2.22.3,3.07,1.05l-1.51,1.66Z"/>
    <path class="st1" d="M105.03,86.47h6.81v2.04h-4.6v1.87h4.35v2.04h-4.35v2.04h4.86v2.04h-7.06v-10.02Z"/>
    <path class="st1" d="M119.46,86.47h3.31c3.23,0,5.93,1.37,5.93,5.04,0,3.24-2.65,4.98-5.63,4.98h-3.61v-10.02ZM121.67,94.46h1.15c2.05,0,3.6-.78,3.6-3.06,0-1.97-1.57-2.89-3.44-2.89h-1.3v5.95Z"/>
    <path class="st1" d="M131.02,86.47h2.21v10.02h-2.21v-10.02Z"/>
    <path class="st1" d="M141.03,88.92c-.35-.45-1.06-.67-1.6-.67-.62,0-1.49.28-1.49,1.03,0,1.83,4.61.65,4.61,4.16,0,2.24-1.8,3.3-3.86,3.3-1.29,0-2.42-.38-3.37-1.26l1.57-1.73c.45.59,1.19.95,1.92.95s1.53-.34,1.53-1.05c0-1.84-4.7-.85-4.7-4.19,0-2.14,1.85-3.26,3.82-3.26,1.13,0,2.22.3,3.07,1.05l-1.51,1.66Z"/>
    <path class="st1" d="M147.1,88.43h-2.86v-1.95h7.93v1.95h-2.86v8.07h-2.21v-8.07Z"/>
    <path class="st1" d="M154.08,86.47h3.88c2.05,0,3.78.71,3.78,3.04,0,1.4-.75,2.49-2.17,2.75l2.55,4.23h-2.65l-2.1-4.01h-1.09v4.01h-2.21v-10.02ZM156.29,90.62h1.3c.81,0,1.85-.03,1.85-1.12,0-1-.91-1.16-1.71-1.16h-1.44v2.28Z"/>
    <path class="st1" d="M164.12,86.47h2.21v10.02h-2.21v-10.02Z"/>
    <path class="st1" d="M169.18,86.47h3.74c1.76,0,3.67.37,3.67,2.55,0,1.12-.69,1.88-1.73,2.21v.03c1.32.17,2.19,1.15,2.19,2.45,0,2.1-1.98,2.79-3.77,2.79h-4.1v-10.02ZM171.39,90.48h1.6c.68,0,1.39-.28,1.39-1.09s-.79-1.05-1.49-1.05h-1.5v2.14ZM171.39,94.63h1.98c.69,0,1.47-.3,1.47-1.17,0-.95-1.06-1.1-1.78-1.1h-1.67v2.28Z"/>
    <path class="st1" d="M187.64,92.63c0,2.36-1.44,4.12-4.22,4.12s-4.23-1.76-4.23-4.12v-6.16h2.21v6.07c0,1.23.85,2.17,2.02,2.17s2.01-.93,2.01-2.17v-6.07h2.21v6.16Z"/>
    <path class="st1" d="M192.41,88.43h-2.86v-1.95h7.93v1.95h-2.86v8.07h-2.21v-8.07Z"/>
    <path class="st1" d="M204.16,86.22c3.13,0,5.41,2.05,5.41,5.27s-2.28,5.27-5.41,5.27-5.41-2.05-5.41-5.27,2.28-5.27,5.41-5.27ZM204.16,94.71c1.88,0,3.11-1.36,3.11-3.23s-1.23-3.23-3.11-3.23-3.11,1.36-3.11,3.23,1.23,3.23,3.11,3.23Z"/>
    <path class="st1" d="M211.93,86.47h3.88c2.05,0,3.78.71,3.78,3.04,0,1.4-.75,2.49-2.17,2.75l2.55,4.23h-2.65l-2.1-4.01h-1.09v4.01h-2.21v-10.02ZM214.14,90.62h1.3c.81,0,1.85-.03,1.85-1.12,0-1-.91-1.16-1.71-1.16h-1.44v2.28Z"/>
    <path class="st1" d="M226.99,88.92c-.35-.45-1.06-.67-1.6-.67-.62,0-1.49.28-1.49,1.03,0,1.83,4.61.65,4.61,4.16,0,2.24-1.8,3.3-3.86,3.3-1.29,0-2.42-.38-3.37-1.26l1.57-1.73c.45.59,1.19.95,1.92.95s1.53-.34,1.53-1.05c0-1.84-4.7-.85-4.7-4.19,0-2.14,1.85-3.26,3.82-3.26,1.13,0,2.22.3,3.07,1.05l-1.51,1.66Z"/>
  </g>
</svg>