<svg xmlns="http://www.w3.org/2000/svg" viewBox="0 0 512 512" aria-hidden="true">
  <path
    fill="#f3901d"
    d="M336 448H133.1c-8.8 0-16-7.2-16-16s7.2-16 16-16H197.3c8.8 0 16-7.2 16-16V282.5c0-8.8 7.2-16 16-16h32c8.8 0 16 7.2 16 16V416c0 8.8 7.2 16 16 16h34.7c8.8 0 16 7.2 16 16s-7.2 16-16 16H336zM32 368c0-88.4 71.6-160 160-160 8.8 0 16 7.2 16 16s-7.2 16-16 16C124.9 240 64 300.9 64 368c0 8.8-7.2 16-16 16s-16-7.2-16-16zM368 368c0-67.1-60.9-128-128-128-8.8 0-16-7.2-16-16s7.2-16 16-16c88.4 0 160 71.6 160 160 0 8.8-7.2 16-16 16s-16-7.2-16-16zM128 192V64c0-17.7 14.3-32 32-32h224c17.7 0 32 14.3 32 32v128c0 17.7-14.3 32-32 32H160c-17.7 0-32-14.3-32-32z"
  />
</svg>
