<?xml version="1.0" encoding="UTF-8"?>
<svg id="Layer_1" xmlns="http://www.w3.org/2000/svg" version="1.1" viewBox="0 0 274.4 108.2">
  <!-- Generator: Adobe Illustrator 30.5.1, SVG Export Plug-In . SVG Version: 2.1.4 Build 3)  -->
  <defs>
    <style>
      .st0 {
        fill: #007bc3;
      }

      .st1 {
        fill: #fff;
      }
    </style>
  </defs>
  <g>
    <path class="st1" d="M10.66,85.1h3.08l3.03,8.03h.03l3.08-8.03h2.89l-5.06,12.26h-2.17l-4.9-12.26Z"/>
    <path class="st1" d="M25.85,85.1h8.33v2.49h-5.63v2.29h5.32v2.49h-5.32v2.49h5.94v2.49h-8.64v-12.26Z"/>
    <path class="st1" d="M38.39,85.1h2.7v4.57h5.25v-4.57h2.7v12.26h-2.7v-5.3h-5.25v5.3h-2.7v-12.26Z"/>
    <path class="st1" d="M53.27,85.1h2.7v12.26h-2.7v-12.26Z"/>
    <path class="st1" d="M68.21,88.28c-.54-.64-1.32-1-2.32-1-2.04,0-3.55,1.66-3.55,3.95s1.51,3.95,3.46,3.95c1.09,0,1.97-.48,2.53-1.32l2.25,1.68c-1.02,1.45-2.75,2.13-4.43,2.13-3.83,0-6.62-2.51-6.62-6.44s2.79-6.44,6.62-6.44c1.37,0,3.1.47,4.14,1.8l-2.08,1.7Z"/>
    <path class="st1" d="M73.75,85.1h2.7v9.77h5v2.49h-7.71v-12.26Z"/>
    <path class="st1" d="M84.63,85.1h8.33v2.49h-5.63v2.29h5.32v2.49h-5.32v2.49h5.94v2.49h-8.64v-12.26Z"/>
    <path class="st1" d="M129.14,88.28c-.54-.64-1.32-1-2.32-1-2.04,0-3.55,1.66-3.55,3.95s1.51,3.95,3.46,3.95c1.09,0,1.98-.48,2.53-1.32l2.25,1.68c-1.02,1.45-2.75,2.13-4.43,2.13-3.83,0-6.61-2.51-6.61-6.44s2.79-6.44,6.61-6.44c1.37,0,3.1.47,4.14,1.8l-2.08,1.7Z"/>
    <path class="st1" d="M140.67,84.79c3.83,0,6.61,2.51,6.61,6.44s-2.79,6.44-6.61,6.44-6.61-2.51-6.61-6.44,2.79-6.44,6.61-6.44ZM140.67,95.18c2.3,0,3.81-1.66,3.81-3.95s-1.51-3.95-3.81-3.95-3.81,1.66-3.81,3.95,1.51,3.95,3.81,3.95Z"/>
    <path class="st1" d="M150.85,85.1h4.09l2.82,8h.04l2.84-8h4.07v12.26h-2.7v-9.4h-.03l-3.22,9.4h-2.06l-3.1-9.4h-.04v9.4h-2.7v-12.26Z"/>
    <path class="st1" d="M168.93,85.1h4.09l2.82,8h.03l2.84-8h4.07v12.26h-2.7v-9.4h-.04l-3.22,9.4h-2.06l-3.1-9.4h-.03v9.4h-2.7v-12.26Z"/>
    <path class="st1" d="M197.34,92.63c0,2.89-1.77,5.04-5.16,5.04s-5.18-2.15-5.18-5.04v-7.53h2.7v7.43c0,1.51,1.04,2.65,2.47,2.65s2.46-1.14,2.46-2.65v-7.43h2.7v7.53Z"/>
    <path class="st1" d="M201.56,85.1h3.67l5.21,8.52h.04v-8.52h2.7v12.26h-3.53l-5.35-8.73h-.04v8.73h-2.7v-12.26Z"/>
    <path class="st1" d="M217.37,85.1h2.7v12.26h-2.7v-12.26Z"/>
    <path class="st1" d="M226.64,87.49h-3.5v-2.39h9.7v2.39h-3.5v9.87h-2.7v-9.87Z"/>
    <path class="st1" d="M238.95,92.13l-4.61-7.03h3.36l2.6,4.59,2.75-4.59h3.2l-4.61,7.03v5.23h-2.7v-5.23Z"/>
  </g>
  <g>
    <path class="st1" d="M16.75,12.26c4.01,0,7.11,2.83,7.11,6.57s-3.1,6.57-7.11,6.57-6.93-3.1-6.93-6.57,2.92-6.57,6.93-6.57ZM11.37,33.69h10.94v43.77h-10.94v-43.77Z"/>
    <path class="st1" d="M29,33.69h10.4v6.84h.18c1.91-4.1,6.11-7.93,13.4-7.93,6.75,0,11.4,2.64,13.68,8.12,3.19-5.56,7.84-8.12,14.41-8.12,11.67,0,15.77,8.3,15.77,18.78v26.08h-10.94v-24.8c0-5.47-1.64-10.21-8.12-10.21-6.84,0-9.39,5.65-9.39,11.31v23.71h-10.94v-26.08c0-5.38-2.19-8.94-7.48-8.94-7.2,0-10.03,5.29-10.03,11.13v23.89h-10.94v-43.77Z"/>
    <path class="st1" d="M103.57,33.69h10.4v6.57h.18c3.19-5.29,8.94-7.66,15.05-7.66,13.5,0,21.61,10.03,21.61,22.98s-8.66,22.98-21.16,22.98c-8.21,0-12.58-3.83-14.86-6.66h-.27v36.3h-10.94V33.69ZM127,42.45c-8.02,0-12.86,6.29-12.86,13.13s4.83,13.13,12.86,13.13,12.86-6.29,12.86-13.13-4.83-13.13-12.86-13.13Z"/>
    <path class="st1" d="M176.95,32.6c13.22,0,23.8,9.21,23.8,22.98s-10.58,22.98-23.8,22.98-23.8-9.21-23.8-22.98,10.58-22.98,23.8-22.98ZM176.95,68.71c8.02,0,12.86-6.29,12.86-13.13s-4.83-13.13-12.86-13.13-12.86,6.29-12.86,13.13,4.83,13.13,12.86,13.13Z"/>
    <path class="st1" d="M205.28,33.69h10.94v6.93h.18c2.37-5.02,7.2-8.02,12.95-8.02,1.37,0,2.64.27,3.92.64v10.58c-1.82-.46-3.56-.82-5.29-.82-10.3,0-11.76,8.66-11.76,11.03v23.43h-10.94v-43.77Z"/>
    <path class="st1" d="M236.8,42.99v-9.3h9.03v-12.68h10.94v12.68h12.04v9.3h-12.04v19.15c0,4.38,1.28,7.11,6.11,7.11,1.91,0,4.56-.37,5.93-1.37v9.21c-2.28,1.1-6.11,1.46-8.66,1.46-11.58,0-14.32-5.2-14.32-15.5v-20.06h-9.03Z"/>
  </g>
  <g>
    <rect class="st0" width="274.4" height="108.2"/>
    <g>
      <path class="st1" d="M10.66,85.1h3.08l3.03,8.03h.03l3.08-8.03h2.89l-5.06,12.26h-2.17l-4.9-12.26Z"/>
      <path class="st1" d="M25.85,85.1h8.33v2.49h-5.63v2.29h5.32v2.49h-5.32v2.49h5.94v2.49h-8.64v-12.26Z"/>
      <path class="st1" d="M38.39,85.1h2.7v4.57h5.25v-4.57h2.7v12.26h-2.7v-5.3h-5.25v5.3h-2.7v-12.26Z"/>
      <path class="st1" d="M53.27,85.1h2.7v12.26h-2.7v-12.26Z"/>
      <path class="st1" d="M68.21,88.28c-.54-.64-1.32-1-2.32-1-2.04,0-3.55,1.66-3.55,3.95s1.51,3.95,3.46,3.95c1.09,0,1.97-.48,2.53-1.32l2.25,1.68c-1.02,1.45-2.75,2.13-4.43,2.13-3.83,0-6.62-2.51-6.62-6.44s2.79-6.44,6.62-6.44c1.37,0,3.1.47,4.14,1.8l-2.08,1.7Z"/>
      <path class="st1" d="M73.75,85.1h2.7v9.77h5v2.49h-7.71v-12.26Z"/>
      <path class="st1" d="M84.63,85.1h8.33v2.49h-5.63v2.29h5.32v2.49h-5.32v2.49h5.94v2.49h-8.64v-12.26Z"/>
      <path class="st1" d="M129.14,88.28c-.54-.64-1.32-1-2.32-1-2.04,0-3.55,1.66-3.55,3.95s1.51,3.95,3.46,3.95c1.09,0,1.98-.48,2.53-1.32l2.25,1.68c-1.02,1.45-2.75,2.13-4.43,2.13-3.83,0-6.61-2.51-6.61-6.44s2.79-6.44,6.61-6.44c1.37,0,3.1.47,4.14,1.8l-2.08,1.7Z"/>
      <path class="st1" d="M140.67,84.79c3.83,0,6.61,2.51,6.61,6.44s-2.79,6.44-6.61,6.44-6.61-2.51-6.61-6.44,2.79-6.44,6.61-6.44ZM140.67,95.18c2.3,0,3.81-1.66,3.81-3.95s-1.51-3.95-3.81-3.95-3.81,1.66-3.81,3.95,1.51,3.95,3.81,3.95Z"/>
      <path class="st1" d="M150.85,85.1h4.09l2.82,8h.04l2.84-8h4.07v12.26h-2.7v-9.4h-.03l-3.22,9.4h-2.06l-3.1-9.4h-.04v9.4h-2.7v-12.26Z"/>
      <path class="st1" d="M168.93,85.1h4.09l2.82,8h.03l2.84-8h4.07v12.26h-2.7v-9.4h-.04l-3.22,9.4h-2.06l-3.1-9.4h-.03v9.4h-2.7v-12.26Z"/>
      <path class="st1" d="M197.34,92.63c0,2.89-1.77,5.04-5.16,5.04s-5.18-2.15-5.18-5.04v-7.53h2.7v7.43c0,1.51,1.04,2.65,2.47,2.65s2.46-1.14,2.46-2.65v-7.43h2.7v7.53Z"/>
      <path class="st1" d="M201.56,85.1h3.67l5.21,8.52h.04v-8.52h2.7v12.26h-3.53l-5.35-8.73h-.04v8.73h-2.7v-12.26Z"/>
      <path class="st1" d="M217.37,85.1h2.7v12.26h-2.7v-12.26Z"/>
      <path class="st1" d="M226.64,87.49h-3.5v-2.39h9.7v2.39h-3.5v9.87h-2.7v-9.87Z"/>
      <path class="st1" d="M238.95,92.13l-4.61-7.03h3.36l2.6,4.59,2.75-4.59h3.2l-4.61,7.03v5.23h-2.7v-5.23Z"/>
    </g>
    <g>
      <path class="st1" d="M16.75,12.26c4.01,0,7.11,2.83,7.11,6.57s-3.1,6.57-7.11,6.57-6.93-3.1-6.93-6.57,2.92-6.57,6.93-6.57ZM11.37,33.69h10.94v43.77h-10.94v-43.77Z"/>
      <path class="st1" d="M29,33.69h10.4v6.84h.18c1.91-4.1,6.11-7.93,13.4-7.93,6.75,0,11.4,2.64,13.68,8.12,3.19-5.56,7.84-8.12,14.41-8.12,11.67,0,15.77,8.3,15.77,18.78v26.08h-10.94v-24.8c0-5.47-1.64-10.21-8.12-10.21-6.84,0-9.39,5.65-9.39,11.31v23.71h-10.94v-26.08c0-5.38-2.19-8.94-7.48-8.94-7.2,0-10.03,5.29-10.03,11.13v23.89h-10.94v-43.77Z"/>
      <path class="st1" d="M103.57,33.69h10.4v6.57h.18c3.19-5.29,8.94-7.66,15.05-7.66,13.5,0,21.61,10.03,21.61,22.98s-8.66,22.98-21.16,22.98c-8.21,0-12.58-3.83-14.86-6.66h-.27v36.3h-10.94V33.69ZM127,42.45c-8.02,0-12.86,6.29-12.86,13.13s4.83,13.13,12.86,13.13,12.86-6.29,12.86-13.13-4.83-13.13-12.86-13.13Z"/>
      <path class="st1" d="M176.95,32.6c13.22,0,23.8,9.21,23.8,22.98s-10.58,22.98-23.8,22.98-23.8-9.21-23.8-22.98,10.58-22.98,23.8-22.98ZM176.95,68.71c8.02,0,12.86-6.29,12.86-13.13s-4.83-13.13-12.86-13.13-12.86,6.29-12.86,13.13,4.83,13.13,12.86,13.13Z"/>
      <path class="st1" d="M205.28,33.69h10.94v6.93h.18c2.37-5.02,7.2-8.02,12.95-8.02,1.37,0,2.64.27,3.92.64v10.58c-1.82-.46-3.56-.82-5.29-.82-10.3,0-11.76,8.66-11.76,11.03v23.43h-10.94v-43.77Z"/>
      <path class="st1" d="M236.8,42.99v-9.3h9.03v-12.68h10.94v12.68h12.04v9.3h-12.04v19.15c0,4.38,1.28,7.11,6.11,7.11,1.91,0,4.56-.37,5.93-1.37v9.21c-2.28,1.1-6.11,1.46-8.66,1.46-11.58,0-14.32-5.2-14.32-15.5v-20.06h-9.03Z"/>
    </g>
  </g>
</svg>