<svg width="548" height="548" viewBox="0 0 548 548" fill="none" xmlns="http://www.w3.org/2000/svg">
<path d="M449.099 274C449.099 370.702 370.708 449.1 274 449.1C177.291 449.1 98.8999 370.702 98.8999 274C98.8999 177.299 177.298 98.9004 274 98.9004C370.701 98.9004 449.099 177.299 449.099 274Z" fill="url(#paint0_radial_796_602)"/>
<path d="M44.0043 188.903L62.7048 192.89L46.1826 183.368C48.628 177.237 51.2858 171.223 54.1971 165.339L72.3359 171.25L56.9028 160.051C59.9716 154.214 63.2802 148.522 66.7942 142.974L84.1864 150.728L70 137.973C73.6648 132.493 77.5761 127.205 81.6519 122.04L98.1124 131.562L85.344 117.403C89.5499 112.34 93.9819 107.47 98.5782 102.764L113.963 113.957L102.77 98.5719C107.476 93.9756 112.34 89.5436 117.409 85.3377L131.568 98.1061L122.046 81.6456C127.204 77.5698 132.499 73.6585 137.979 69.9937L150.734 84.1869L142.98 66.7948C148.528 63.2807 154.221 59.9722 160.057 56.9034L171.257 72.3364L165.352 54.1908C171.229 51.2795 177.244 48.6217 183.381 46.1763L192.903 62.6985L188.916 43.998C195.061 41.7238 201.335 39.7441 207.699 37.9563L215.439 55.3827L213.425 36.3671C219.762 34.7505 226.214 33.4421 232.736 32.3324L238.606 50.4507L238.592 31.3803C245.059 30.4487 251.607 29.7842 258.224 29.3595L262.163 47.971L264.136 29.0513C267.417 28.9211 270.698 28.8047 274.007 28.8047C277.315 28.8047 280.596 28.9211 283.878 29.0513L285.85 47.971L289.796 29.3595C296.413 29.7774 302.969 30.4418 309.428 31.3803L309.414 50.4507L315.285 32.3324C321.806 33.4353 328.259 34.7505 334.595 36.3671L332.588 55.3827L340.328 37.9563C346.692 39.7441 352.967 41.7238 359.111 43.998L355.124 62.7053L364.653 46.1831C370.784 48.6286 376.798 51.2864 382.682 54.1976L376.77 72.3433L387.97 56.9102C393.806 59.979 399.492 63.2807 405.04 66.8016L397.279 84.1938L410.034 70.0006C415.514 73.6653 420.809 77.5767 425.967 81.6456L416.446 98.1061L430.605 85.3377C435.667 89.5436 440.53 93.9756 445.243 98.5719L434.05 113.957L449.435 102.764C454.032 107.47 458.464 112.34 462.669 117.403L449.901 131.562L466.368 122.04C470.451 127.198 474.356 132.493 478.02 137.973L463.827 150.728L481.226 142.974C484.74 148.522 488.042 154.214 491.117 160.051L475.684 171.25L493.83 165.339C496.734 171.216 499.399 177.237 501.838 183.368L485.316 192.89L504.023 188.903C506.297 195.04 508.284 201.322 510.058 207.679L492.631 215.426L511.647 213.412C513.264 219.755 514.572 226.201 515.682 232.722L497.563 238.593L516.634 238.579C517.565 245.046 518.23 251.594 518.654 258.211L500.043 262.157L518.963 264.13C519.093 267.404 519.216 270.685 519.216 274C519.216 277.316 519.093 280.59 518.963 283.871L500.043 285.844L518.654 289.783C518.237 296.4 517.572 302.949 516.634 309.415L497.563 309.401L515.682 315.279C514.572 321.8 513.257 328.252 511.647 334.589L492.631 332.575L510.058 340.315C508.277 346.679 506.297 352.954 504.023 359.091L485.316 355.104L501.838 364.626C499.399 370.757 496.734 376.771 493.83 382.655L475.684 376.744L491.117 387.943C488.042 393.78 484.74 399.472 481.219 405.02L463.834 397.259L478.013 410.014C474.362 415.487 470.458 420.782 466.375 425.94L449.908 416.426L462.676 430.585C458.464 435.647 454.032 440.51 449.442 445.223L434.057 434.03L445.25 449.415C440.544 454.005 435.68 458.444 430.611 462.649L416.452 449.881L425.974 466.342C420.823 470.417 415.521 474.329 410.041 477.993L397.286 463.807L405.047 481.199C399.499 484.72 393.806 488.022 387.977 491.091L376.777 475.658L382.689 493.796C376.812 496.708 370.79 499.365 364.66 501.811L355.138 485.289L359.125 503.989C352.98 506.257 346.706 508.243 340.342 510.024L332.602 492.605L334.609 511.62C328.272 513.23 321.827 514.545 315.299 515.655L309.428 497.537L309.442 516.593C302.975 517.532 296.427 518.196 289.81 518.614L285.864 500.002L283.891 518.922C280.61 519.052 277.329 519.176 274.02 519.176C270.712 519.176 267.431 519.052 264.15 518.922L262.177 500.002L258.238 518.614C251.621 518.189 245.072 517.525 238.606 516.593L238.62 497.537L232.749 515.655C226.228 514.545 219.768 513.23 213.439 511.62L215.453 492.605L207.712 510.024C201.349 508.243 195.074 506.257 188.93 503.982L192.916 485.289L183.395 501.811C177.264 499.365 171.243 496.708 165.366 493.796L171.27 475.658L160.078 491.091C154.241 488.022 148.549 484.72 143 481.199L150.755 463.807L138.007 477.993C132.527 474.336 127.232 470.424 122.074 466.342L131.595 449.881L117.436 462.649C112.381 458.444 107.511 454.005 102.798 449.408L113.991 434.03L98.6125 445.223C94.0093 440.51 89.5842 435.647 85.3783 430.585L98.1398 416.426L81.6793 425.94C77.6035 420.782 73.6922 415.487 70.0274 410.007L84.2138 397.259L66.8216 405.014C63.3076 399.465 60.0059 393.78 56.9302 387.937L72.3564 376.744L54.2176 382.648C51.3064 376.764 48.6486 370.757 46.2031 364.619L62.7253 355.098L44.0248 359.084C41.7506 352.947 39.771 346.665 37.9831 340.308L55.4027 332.568L36.3871 334.575C34.7773 328.239 33.4621 321.786 32.3524 315.265L50.4707 309.394L31.4071 309.408C30.4687 302.942 29.8111 296.393 29.3864 289.776L47.9978 285.837L29.0781 283.864C28.948 280.59 28.8315 277.302 28.8315 273.994C28.8315 270.685 28.9548 267.397 29.0781 264.123L47.9978 262.15L29.3864 258.204C29.8111 251.587 30.4687 245.039 31.4071 238.572L50.4707 238.586L32.3524 232.716C33.4621 226.194 34.7773 219.742 36.3871 213.405L55.4027 215.412L37.9831 207.672L44.0248 188.889L44.0043 188.903Z" fill="#231F20"/>
<path d="M445.044 445.04C539.506 350.577 539.506 197.423 445.044 102.96C350.581 8.49711 197.426 8.4971 102.963 102.96C8.50059 197.423 8.50059 350.577 102.963 445.04C197.426 539.503 350.581 539.503 445.044 445.04Z" fill="#231F20"/>
<path d="M439.803 439.799C531.371 348.231 531.371 199.769 439.803 108.201C348.235 16.6324 199.773 16.6324 108.204 108.201C16.6361 199.769 16.6361 348.231 108.204 439.799C199.773 531.368 348.235 531.368 439.803 439.799Z" fill="url(#paint1_radial_796_602)"/>
<path d="M437.592 274C437.592 364.345 364.351 437.585 274 437.585C183.648 437.585 110.408 364.345 110.408 274C110.408 183.655 183.648 110.408 274 110.408C364.351 110.408 437.592 183.648 437.592 274Z" fill="#231F20"/>
<path d="M426.686 274C426.686 358.323 358.323 426.68 274 426.68C189.676 426.68 121.313 358.317 121.313 274C121.313 189.683 189.67 121.313 274 121.313C358.33 121.313 426.686 189.676 426.686 274Z" fill="#929497"/>
<path d="M455.586 274C455.586 374.284 374.291 455.586 274 455.586C173.709 455.586 92.4131 374.284 92.4131 274C92.4131 173.716 173.709 92.4131 274 92.4131C374.291 92.4131 455.586 173.709 455.586 274Z" fill="url(#paint2_radial_796_602)"/>
<path d="M436.132 274C436.132 363.543 363.55 436.126 274 436.126C184.45 436.126 111.867 363.536 111.867 274C111.867 184.463 184.457 111.874 274 111.874C363.543 111.874 436.132 184.463 436.132 274Z" fill="#67686B"/>
<path d="M429.645 274C429.645 359.961 359.967 429.646 274 429.646C188.032 429.646 118.354 359.954 118.354 274C118.354 188.046 188.039 118.354 274 118.354C359.96 118.354 429.645 188.04 429.645 274Z" fill="url(#paint3_radial_796_602)"/>
<path d="M430.173 274C430.173 360.255 360.255 430.167 274 430.167C187.745 430.167 117.827 360.255 117.827 274C117.827 187.745 187.745 117.834 274 117.834C360.255 117.834 430.173 187.752 430.173 274Z" fill="url(#paint4_radial_796_602)"/>
<path d="M365.125 139.891L343.733 161.276C331.759 153.844 318.504 148.295 304.38 144.98V114.724C294.536 112.854 284.378 111.867 273.993 111.867C263.608 111.867 253.45 112.854 243.606 114.724V144.98C229.489 148.295 216.234 153.851 204.253 161.276L182.867 139.891C165.982 151.385 151.385 165.982 139.891 182.867L161.276 204.253C153.844 216.234 148.289 229.489 144.973 243.606H114.717C112.847 253.45 111.86 263.608 111.86 273.993C111.86 284.378 112.847 294.536 114.717 304.386H144.973C148.289 318.504 153.844 331.759 161.269 343.74L139.884 365.125C151.378 382.011 165.982 396.608 182.867 408.102L204.246 386.723C216.227 394.156 229.482 399.711 243.606 403.026V433.262C253.45 435.132 263.608 436.119 273.993 436.119C284.378 436.119 294.536 435.132 304.38 433.262V403.026C318.504 399.711 331.759 394.149 343.74 386.723L365.119 408.102C382.004 396.608 396.608 382.004 408.102 365.119L386.723 343.74C394.156 331.759 399.704 318.504 403.02 304.386H433.269C435.139 294.543 436.126 284.384 436.126 273.993C436.126 263.602 435.139 253.45 433.269 243.606H403.02C399.704 229.489 394.142 216.234 386.71 204.246L408.095 182.861C396.601 165.975 382.004 151.378 365.119 139.884L365.125 139.891Z" fill="url(#paint5_radial_796_602)"/>
<path d="M383.367 273.993C383.367 334.396 334.389 383.367 274 383.367C213.61 383.367 164.64 334.396 164.64 273.993C164.64 213.59 213.617 164.626 274 164.626C334.383 164.626 383.367 213.603 383.367 273.993Z" fill="white"/>
<path d="M209.171 324.06C207.678 325.958 208.007 328.705 209.904 330.191C210.706 330.821 211.658 331.123 212.603 331.123C213.898 331.123 215.179 330.554 216.042 329.458L226.338 316.293C224.283 314.128 222.392 311.813 220.673 309.36L209.178 324.06H209.171Z" fill="#F47721"/>
<path d="M270.363 218.063C239.188 218.063 213.83 243.422 213.83 274.597C213.83 305.771 239.188 331.13 270.363 331.13C301.537 331.13 326.896 305.771 326.896 274.597C326.896 268.959 326.053 263.513 324.512 258.369L319.032 265.342C319.6 268.342 319.909 271.432 319.909 274.597C319.909 301.914 297.687 324.143 270.363 324.143C243.038 324.143 220.817 301.921 220.817 274.597C220.817 247.272 243.038 225.05 270.363 225.05C287.556 225.05 302.729 233.86 311.62 247.197L316.127 241.463C305.846 227.297 289.166 218.063 270.363 218.063Z" fill="#414142"/>
<path d="M256.272 261.732C256.272 257.773 259.492 254.546 263.451 254.546C267.41 254.546 270.637 257.773 270.637 261.732C270.637 265.691 267.417 268.917 263.451 268.917C259.485 268.917 256.272 265.691 256.272 261.732ZM347.877 213.008C347.357 212.72 346.768 212.556 346.158 212.556C345.761 212.556 345.35 212.624 344.952 212.775L331.574 217.796C329.766 218.474 328.855 220.488 329.533 222.296C330.061 223.701 331.389 224.564 332.801 224.564C333.212 224.564 333.623 224.488 334.027 224.338L335.212 223.892L287.673 284.364L276.521 270.781C278.309 268.212 279.357 265.095 279.357 261.732C279.357 252.957 272.219 245.812 263.437 245.812C254.656 245.812 247.518 252.95 247.518 261.732C247.518 265.225 248.662 268.452 250.58 271.082L230.653 296.564C232.14 299.242 233.9 301.743 235.88 304.058L257.451 276.473C259.3 277.227 261.314 277.651 263.431 277.651C265.684 277.651 267.821 277.172 269.767 276.329L284.364 294.105C285.193 295.119 286.433 295.701 287.741 295.701H287.789C289.111 295.687 290.358 295.071 291.173 294.03L341.801 229.633C341.836 232.017 343.774 233.935 346.172 233.935C348.569 233.935 350.535 231.982 350.535 229.564V217.008C350.535 215.241 349.467 213.672 347.864 212.994L347.877 213.008Z" fill="#F47721"/>
<defs>
<radialGradient id="paint0_radial_796_602" cx="0" cy="0" r="1" gradientUnits="userSpaceOnUse" gradientTransform="translate(221.751 438.994) scale(302.344)">
<stop stop-color="#C4C5C7"/>
<stop offset="0.12" stop-color="#B4B5B7"/>
<stop offset="0.59" stop-color="#7B7C7E"/>
<stop offset="0.81" stop-color="#656668"/>
<stop offset="0.9" stop-color="#5F6062"/>
<stop offset="1" stop-color="#515254"/>
</radialGradient>
<radialGradient id="paint1_radial_796_602" cx="0" cy="0" r="1" gradientUnits="userSpaceOnUse" gradientTransform="translate(275.129 275.146) scale(234.495)">
<stop offset="0.66" stop-color="#231F20"/>
<stop offset="0.92" stop-color="#4E4F51"/>
<stop offset="1" stop-color="#231F20"/>
</radialGradient>
<radialGradient id="paint2_radial_796_602" cx="0" cy="0" r="1" gradientUnits="userSpaceOnUse" gradientTransform="translate(318.223 213.316) scale(256.169)">
<stop offset="0.12" stop-color="#C0C1C3"/>
<stop offset="0.27" stop-color="#B7B8BA"/>
<stop offset="0.51" stop-color="#A0A1A4"/>
<stop offset="0.81" stop-color="#7B7C7F"/>
<stop offset="0.9" stop-color="#6F7073"/>
</radialGradient>
<radialGradient id="paint3_radial_796_602" cx="0" cy="0" r="1" gradientUnits="userSpaceOnUse" gradientTransform="translate(274.632 274.63) scale(155.652)">
<stop offset="0.66" stop-color="#231F20"/>
<stop offset="0.75" stop-color="#262324"/>
<stop offset="0.85" stop-color="#322F31"/>
<stop offset="0.96" stop-color="#444446"/>
<stop offset="1" stop-color="#4E4F51"/>
</radialGradient>
<radialGradient id="paint4_radial_796_602" cx="0" cy="0" r="1" gradientUnits="userSpaceOnUse" gradientTransform="translate(310.092 223.523) scale(181.621 181.621)">
<stop offset="0.51" stop-color="#85878A"/>
<stop offset="0.62" stop-color="#7D7E81"/>
<stop offset="0.81" stop-color="#67686A"/>
<stop offset="1" stop-color="#4A4A4C"/>
</radialGradient>
<radialGradient id="paint5_radial_796_602" cx="0" cy="0" r="1" gradientUnits="userSpaceOnUse" gradientTransform="translate(274 274) scale(162.126 162.126)">
<stop stop-color="#FBFBFB"/>
<stop offset="0.64" stop-color="#C6C8CA"/>
<stop offset="0.71" stop-color="#C1C3C5"/>
<stop offset="0.84" stop-color="#BFC1C3"/>
<stop offset="0.89" stop-color="#B8BABC"/>
<stop offset="0.93" stop-color="#ACAEB0"/>
<stop offset="0.96" stop-color="#9C9DA0"/>
<stop offset="0.98" stop-color="#86878A"/>
<stop offset="1" stop-color="#6F7073"/>
</radialGradient>
</defs>
</svg>
