<?xml version="1.0" encoding="UTF-8"?>
<svg id="Layer_1" xmlns="http://www.w3.org/2000/svg" xmlns:xlink="http://www.w3.org/1999/xlink" version="1.1" viewBox="0 0 227.48 56.03">
  <!-- Generator: Adobe Illustrator 30.5.1, SVG Export Plug-In . SVG Version: 2.1.4 Build 3)  -->
  <defs>
    <style>
      .st0 {
        fill: none;
      }

      .st1 {
        fill: #72808a;
      }

      .st2 {
        fill: #414042;
      }

      .st3 {
        fill: #f47721;
      }

      .st4 {
        fill: #5a5f64;
      }

      .st5 {
        clip-path: url(#clippath);
      }
    </style>
    <clipPath id="clippath">
      <rect class="st0" x="216.44" y="48.6" width="6.83" height="6.79"/>
    </clipPath>
  </defs>
  <g>
    <path class="st3" d="M137.68,11.62v-4.96h-.28c-1.91,0-5.95,1-7.67,3.29v-3.05h-6.29v23.44h6.29v-12.53c0-3.83,4.47-6.19,7.67-6.19h.28Z"/>
    <path class="st3" d="M95.48,23.04c-.98,1.29-2.51,2.03-4.2,2.03-4.18,0-6.43-3.39-6.43-6.58s2.25-6.58,6.43-6.58c1.33,0,2.72.74,4.13,2.2l.2.21,4.35-4.35-.18-.2c-2.05-2.27-5.15-3.57-8.5-3.57-7.37,0-12.72,5.17-12.72,12.29s5.35,12.29,12.72,12.29c2.08,0,6.04-.87,8.44-3.27l.19-.19-4.23-4.55-.2.27Z"/>
    <path class="st3" d="M144.13,16.04s-.2,1.06-.19,2.13c0,1.15.19,2.32.2,2.37l.04.24h16.37v-1.9c0-8.04-4.32-13.04-11.28-13.04-7.55,0-13.04,5.3-13.04,12.6s5.48,12.59,13.04,12.59c4.15,0,7.56-1.61,10.14-4.79l.19-.23-4.66-3.52-.17.21c-1.7,2.1-3.63,3.07-6.08,3.07-3.24,0-5.66-2.14-6.02-5.32,0-.01-.15-1.29-.15-2.27s.14-2.04.15-2.05c.43-3.33,2.59-5.32,5.78-5.32,3.4,0,5.5,1.86,5.67,5h-9.93l-.04.23Z"/>
    <path class="st3" d="M111.07,5.88c-4.11,0-7.72,1.36-10.15,3.84l-.2.2,3.47,3.47.2-.19c1.6-1.5,3.8-2.36,6.04-2.36,3.18,0,5.08,1.53,5.08,4.1v6.04c0,3.18-2.22,5.08-5.95,5.08-1.83,0-3.81-.87-3.81-2.79,0-2.24,2.71-3.32,8.28-3.32h.28v-4.66s-.28,0-.28,0c-4.02,0-14.71,0-14.71,8.42,0,5.02,4.57,7.3,8.81,7.3,3.92,0,6.36-2.16,7.37-3.28v2.69h5.83v-13.74c0-3.24,0-10.81-10.28-10.81Z"/>
  </g>
  <g>
    <path class="st1" d="M30.45,30.76c-7.3,0-8.92-4.96-8.92-10.08V6.74h3.04v13.78c0,3.8,1.06,7.5,5.88,7.5h1.73c4.81,0,5.88-3.7,5.88-7.5V6.74h3.04v13.94c0,5.12-1.62,10.08-8.92,10.08h-1.73Z"/>
    <path class="st1" d="M56.1,9.48s-6.39,0-6.39,0v15.25c0,2.08,1.19,2.72,3.22,2.72,1.17,0,3.15.02,3.17,0v2.74s-2.94,0-3.45,0c-4.36,0-5.98-2.1-5.98-5.44v-15.25h-3.63v-2.74h3.63V0h3.04v6.74h8.96s-1.36,1.08-2.57,2.74Z"/>
    <path class="st1" d="M67.74,6.13c7.2,0,12.31,5.17,12.31,12.31s-5.12,12.31-12.31,12.31-12.31-5.17-12.31-12.31,5.12-12.31,12.31-12.31ZM67.74,28.02c5.73,0,9.27-4.31,9.27-9.58s-3.55-9.58-9.27-9.58-9.27,4.31-9.27,9.58,3.55,9.58,9.27,9.58Z"/>
    <path class="st1" d="M16.51,15.96v-1.42c0-4.05-2.84-5.67-6.58-5.67-2.74,0-5.06.86-7.14,2.63l-1.77-2.08c2.23-2.13,5.88-3.29,8.91-3.29,5.67,0,9.32,2.53,9.32,8.46v5.72c0,4.56.1,7.14.46,9.83h-2.84c-.2-1.16-.3-2.48-.3-3.8h-.1c-1.72,2.99-4.25,4.4-8.21,4.4S0,28.78,0,23.82c0-7.14,8.36-7.85,12.97-7.85h1.97v2.43h-1.77c-5.07,0-10.13,1.27-10.13,5.27,0,2.89,2.79,4.36,5.32,4.36,6.48,0,8.15-4.15,8.15-8.05v-4Z"/>
  </g>
  <g>
    <path class="st4" d="M100.36,56.03v-20.01h1.88v18.29h10.03v1.72h-11.92Z"/>
    <path class="st4" d="M114.44,56.03v-20.01h12.47v1.75h-10.59v7.37h8.78v1.75h-8.78v7.43h10.59v1.72h-12.47Z"/>
    <path class="st4" d="M140.65,56.03l-9.04-17.15v17.15h-1.88v-20.01h2.46l9.12,17.32v-17.32h1.86v20.01h-2.52Z"/>
    <path class="st4" d="M149.82,56.03c-2.08,0-3.05-.47-3.05-2.94v-3.02h1.86v2.99c0,.8.17,1.25,1.28,1.25h7.48c1.11,0,1.28-.44,1.28-1.25v-4.9c0-.8-.17-1.25-1.28-1.25h-7.59c-2.08,0-3.05-.47-3.05-2.94v-5.02c0-2.47.97-2.94,3.05-2.94h7.68c2.08,0,3.05.47,3.05,2.94v3.02h-1.88v-2.96c0-.8-.17-1.25-1.28-1.25h-7.48c-1.11,0-1.27.44-1.27,1.25v4.9c0,.8.17,1.25,1.27,1.25h7.62c2.08,0,3.05.47,3.05,2.94v4.99c0,2.47-.97,2.94-3.05,2.94h-7.68Z"/>
  </g>
  <path class="st3" d="M165.51,52.89c-.65.83-.51,2.03.32,2.69.35.28.77.41,1.18.41.57,0,1.13-.25,1.51-.73l4.51-5.77c-.9-.95-1.73-1.96-2.48-3.04l-5.04,6.44Z"/>
  <g>
    <path class="st2" d="M17.31,40.31h-5.7v15.68h-5.7v-15.68H.21v-4.28h17.1v4.28Z"/>
    <path class="st2" d="M25.01,48.86v7.13h-5.7v-19.95h9.41c5.7,0,7.98,3.14,7.98,6.56,0,2.65-1.17,4.73-3.93,5.7l4.5,7.7h-5.99l-3.93-7.13h-2.34ZM28.43,45.15c1.71,0,2.57-1.14,2.57-2.57s-.85-2.57-2.57-2.57h-3.42v5.13h3.42Z"/>
    <path class="st2" d="M45.25,40.02v3.71h7.98v3.99h-7.98v4.28h9.12v3.99h-14.82v-19.95h14.82v3.99h-9.12Z"/>
    <path class="st2" d="M74.61,36.03v19.95h-6.56l-6.27-12.83v12.83h-5.42v-19.95h6.56l6.27,12.83v-12.83h5.42Z"/>
    <path class="st2" d="M86.01,55.99h-8.27v-19.95h8.27c7.18,0,10.26,2.99,10.26,9.98s-3.08,9.98-10.26,9.98ZM83.45,40.02v11.97h2.28c3.19,0,4.56-1.8,4.56-5.99s-1.37-5.99-4.56-5.99h-2.28Z"/>
  </g>
  <path class="st2" d="M192.33,6.43c-13.66,0-24.78,11.12-24.78,24.78s11.12,24.78,24.78,24.78,24.78-11.12,24.78-24.78c0-2.47-.37-4.86-1.05-7.11l-2.4,3.06c.25,1.31.39,2.67.39,4.06,0,11.98-9.74,21.72-21.72,21.72s-21.72-9.74-21.72-21.72,9.74-21.72,21.72-21.72c7.54,0,14.19,3.86,18.08,9.71l1.98-2.51c-4.51-6.21-11.82-10.26-20.06-10.26Z"/>
  <path class="st3" d="M226.31,4.22c-.23-.13-.49-.2-.75-.2-.18,0-.35.03-.53.1l-5.86,2.2c-.79.3-1.19,1.18-.9,1.97.23.61.81.99,1.43.99.18,0,.36-.03.54-.1l.52-.2-20.84,26.51-4.89-5.95c.78-1.13,1.24-2.49,1.24-3.97,0-3.85-3.13-6.98-6.98-6.98s-6.98,3.13-6.98,6.98c0,1.53.5,2.95,1.34,4.1l-8.73,11.17c.65,1.17,1.42,2.27,2.29,3.28l9.45-12.09c.81.33,1.69.52,2.62.52.99,0,1.92-.21,2.78-.58l6.4,7.79c.36.44.91.7,1.48.7h.02c.58,0,1.13-.28,1.48-.73l22.19-28.23c.01,1.04.87,1.89,1.91,1.89s1.91-.86,1.91-1.91v-5.5c0-.77-.47-1.46-1.17-1.76ZM186.15,25.57c0-1.74,1.41-3.15,3.15-3.15s3.15,1.41,3.15,3.15-1.41,3.15-3.15,3.15-3.15-1.41-3.15-3.15Z"/>
  <g class="st5">
    <path class="st2" d="M219.16,50.51h.82c.42,0,.87.08.87.61,0,.63-.5.65-1.04.65h-.64v-1.26ZM218.54,53.98h.62v-1.71h.65l1.08,1.71h.66l-1.14-1.75c.59-.06,1.04-.36,1.04-1.08,0-.76-.45-1.14-1.39-1.14h-1.53v3.97ZM217.06,51.98c0-1.63,1.22-2.88,2.81-2.88s2.79,1.25,2.79,2.88-1.22,2.92-2.79,2.92-2.81-1.25-2.81-2.92M216.44,51.98c0,1.95,1.56,3.42,3.42,3.42s3.41-1.46,3.41-3.42-1.55-3.38-3.41-3.38-3.42,1.46-3.42,3.38"/>
  </g>
</svg>