<?xml version="1.0" encoding="UTF-8"?>
<svg id="Layer_1" xmlns="http://www.w3.org/2000/svg" version="1.1" viewBox="0 0 274.17 108.11">
  <!-- Generator: Adobe Illustrator 30.5.1, SVG Export Plug-In . SVG Version: 2.1.4 Build 3)  -->
  <defs>
    <style>
      .st0 {
        fill: #fff;
      }

      .st1 {
        fill: #9e3159;
      }
    </style>
  </defs>
  <rect class="st1" width="274.17" height="108.11"/>
  <g>
    <path class="st0" d="M8.71,34.47h10.22l8.18,26.42h.16l7.63-26.42h10.22l8.18,26.42h.16l7.86-26.42h9.51l-12.82,37.75h-9.36l-8.96-25.79h-.16l-7.94,25.79h-9.75l-13.13-37.75Z"/>
    <path class="st0" d="M91.36,33.52c11.4,0,20.52,7.94,20.52,19.82s-9.12,19.82-20.52,19.82-20.52-7.94-20.52-19.82,9.12-19.82,20.52-19.82ZM91.36,64.66c6.92,0,11.09-5.43,11.09-11.32s-4.17-11.33-11.09-11.33-11.09,5.43-11.09,11.33,4.17,11.32,11.09,11.32Z"/>
    <path class="st0" d="M117.41,34.47h8.96v5.9h.16c1.65-3.54,5.27-6.84,11.56-6.84,5.82,0,9.83,2.28,11.8,7,2.75-4.8,6.76-7,12.43-7,10.07,0,13.6,7.16,13.6,16.2v22.49h-9.44v-21.39c0-4.72-1.41-8.81-7-8.81-5.9,0-8.1,4.88-8.1,9.75v20.45h-9.44v-22.49c0-4.64-1.89-7.71-6.45-7.71-6.21,0-8.65,4.56-8.65,9.59v20.6h-9.44v-37.75Z"/>
    <path class="st0" d="M190.77,56.64c.63,5.58,4.87,8.96,10.14,8.96,4.72,0,7.79-2.2,10.14-5.11l6.76,5.11c-4.4,5.43-9.99,7.55-15.96,7.55-11.4,0-20.52-7.94-20.52-19.82s9.12-19.82,20.52-19.82c10.54,0,17.69,7.39,17.69,20.52v2.6h-28.78ZM210.11,49.56c-.08-5.5-3.7-8.96-9.59-8.96-5.58,0-9.04,3.54-9.75,8.96h19.35Z"/>
    <path class="st0" d="M225.49,34.47h8.96v6.05h.16c1.73-3.77,5.27-7,11.56-7,10.14,0,13.76,7.16,13.76,14.86v23.83h-9.44v-19.11c0-4.17-.31-11.09-6.92-11.09-6.21,0-8.65,4.56-8.65,9.59v20.6h-9.44v-37.75Z"/>
  </g>
  <g>
    <path class="st0" d="M22.81,83.04h2.7v12.25h-2.7v-12.25Z"/>
    <path class="st0" d="M29.7,83.04h3.67l5.21,8.51h.03v-8.51h2.7v12.25h-3.53l-5.35-8.72h-.03v8.72h-2.7v-12.25Z"/>
    <path class="st0" d="M56.41,83.04h2.23l5.33,12.25h-3.04l-1.06-2.6h-4.76l-1.02,2.6h-2.98l5.3-12.25ZM57.45,86.6l-1.49,3.81h2.99l-1.51-3.81Z"/>
    <path class="st0" d="M77.25,90.56c0,2.89-1.76,5.04-5.16,5.04s-5.17-2.15-5.17-5.04v-7.53h2.7v7.42c0,1.51,1.04,2.65,2.47,2.65s2.46-1.14,2.46-2.65v-7.42h2.7v7.53Z"/>
    <path class="st0" d="M83.84,85.42h-3.5v-2.39h9.69v2.39h-3.49v9.86h-2.7v-9.86Z"/>
    <path class="st0" d="M99.08,82.72c3.82,0,6.61,2.51,6.61,6.44s-2.79,6.44-6.61,6.44-6.61-2.51-6.61-6.44,2.79-6.44,6.61-6.44ZM99.08,93.1c2.3,0,3.81-1.66,3.81-3.94s-1.51-3.95-3.81-3.95-3.81,1.66-3.81,3.95,1.51,3.94,3.81,3.94Z"/>
    <path class="st0" d="M124.12,86.22c-.53-.64-1.31-1-2.32-1-2.04,0-3.55,1.66-3.55,3.95s1.51,3.94,3.46,3.94c1.09,0,1.97-.48,2.53-1.31l2.25,1.68c-1.02,1.45-2.75,2.13-4.43,2.13-3.82,0-6.61-2.51-6.61-6.44s2.79-6.44,6.61-6.44c1.37,0,3.1.47,4.13,1.8l-2.08,1.7Z"/>
    <path class="st0" d="M133.72,83.04h2.23l5.33,12.25h-3.05l-1.06-2.6h-4.76l-1.02,2.6h-2.98l5.3-12.25ZM134.76,86.6l-1.49,3.81h2.99l-1.51-3.81Z"/>
    <path class="st0" d="M144.23,83.04h4.74c2.51,0,4.62.86,4.62,3.72,0,1.71-.92,3.05-2.65,3.36l3.11,5.17h-3.24l-2.56-4.9h-1.33v4.9h-2.7v-12.25ZM146.93,88.11h1.59c.99,0,2.27-.04,2.27-1.37,0-1.23-1.11-1.42-2.09-1.42h-1.76v2.79Z"/>
    <path class="st0" d="M157.28,83.04h8.32v2.49h-5.62v2.28h5.31v2.49h-5.31v2.49h5.94v2.49h-8.63v-12.25Z"/>
  </g>
</svg>