<?xml version="1.0" encoding="UTF-8"?>
<svg id="Layer_1" xmlns="http://www.w3.org/2000/svg" version="1.1" viewBox="0 0 274.11 108.09">
  <!-- Generator: Adobe Illustrator 30.5.1, SVG Export Plug-In . SVG Version: 2.1.4 Build 3)  -->
  <defs>
    <style>
      .st0 {
        fill: #7a97ab;
      }

      .st1 {
        fill: #fff;
      }
    </style>
  </defs>
  <rect class="st0" width="274.11" height="108.09"/>
  <g>
    <path class="st1" d="M9.81,32.51h12.45l12.64,31.41h.19l11.32-31.41h11.79l-25.83,67.33-11.24.03,8.01-21.7L9.81,32.51Z"/>
    <path class="st1" d="M89.34,71.57h-.28c-3.21,5.09-8.49,7.36-14.53,7.36-8.4,0-16.51-4.62-16.51-13.58,0-14.72,17.17-15.75,28.49-15.75h2.83v-1.23c0-5.57-4.34-8.49-10.38-8.49-4.72,0-9.06,1.89-12.07,4.72l-5.94-5.94c5-5.09,12.07-7.26,19.24-7.26,19.34,0,19.34,13.96,19.34,20.38v26.04h-10.19v-6.23ZM88.68,57.51h-2.36c-6.23,0-16.98.47-16.98,6.98,0,4.15,4.24,5.94,7.92,5.94,7.74,0,11.41-4.06,11.41-10.38v-2.55Z"/>
    <path class="st1" d="M108.65,32.51h10.75v7.26h.19c2.07-4.53,6.32-8.4,13.87-8.4,12.17,0,16.51,8.58,16.51,17.83v28.58h-11.32v-22.92c0-5-.38-13.3-8.3-13.3-7.45,0-10.38,5.47-10.38,11.51v24.71h-11.32v-45.28Z"/>
  </g>
  <path class="st1" d="M195.07,44.31v10.21c0,.12.01.23.01.35s-.01.23-.01.34v.06h0c-.18,7.35-5.23,12.9-13.47,12.9-7.64,0-13.3-5.94-13.3-13.11,0-8.02,5.47-13.49,13.4-13.49.27,0,.53.02.8.03v-10c-1.04-.14-2.09-.22-3.16-.22-13.96,0-22.36,10.38-22.36,23.77s8.96,23.21,22.55,23.21c5.66,0,11.51-2.17,14.81-6.6h.19v3.3c0,8.85-3.32,15.01-13.93,15.17v10.2c17.42-.12,25.25-10.47,25.25-26.69v-29.42h-10.77Z"/>
  <g>
    <path class="st1" d="M196.56,36.85c0,2.1-1.28,3.66-3.75,3.66s-3.76-1.56-3.76-3.66v-5.47h1.96v5.4c0,1.09.75,1.92,1.8,1.92s1.79-.83,1.79-1.92v-5.4h1.96v5.47Z"/>
    <path class="st1" d="M198.64,31.38h2.67l3.79,6.19h.03v-6.19h1.96v8.91h-2.57l-3.89-6.34h-.03v6.34h-1.96v-8.91Z"/>
    <path class="st1" d="M209.18,31.38h2.94c2.87,0,5.27,1.22,5.27,4.48,0,2.88-2.35,4.43-5.01,4.43h-3.21v-8.91ZM211.14,38.48h1.02c1.82,0,3.2-.69,3.2-2.72,0-1.75-1.4-2.57-3.06-2.57h-1.16v5.28Z"/>
    <path class="st1" d="M219.05,31.38h6.05v1.81h-4.09v1.66h3.86v1.81h-3.86v1.81h4.32v1.81h-6.28v-8.91Z"/>
    <path class="st1" d="M227.16,31.38h3.45c1.82,0,3.36.63,3.36,2.71,0,1.25-.67,2.21-1.92,2.44l2.26,3.76h-2.35l-1.86-3.56h-.97v3.56h-1.96v-8.91ZM229.13,35.07h1.16c.72,0,1.65-.03,1.65-.99,0-.89-.81-1.03-1.52-1.03h-1.28v2.03Z"/>
    <path class="st1" d="M218.65,54.9h-5.83v-2.38l5.45-8.3h3.09v8.3h1.72v2.38h-1.72v2.68h-2.72v-2.68ZM218.65,47.92h-.04l-2.96,4.6h3v-4.6Z"/>
    <path class="st1" d="M229.61,44c3.96,0,4.96,3.74,4.96,6.91s-1,6.9-4.96,6.9-4.96-3.74-4.96-6.9,1-6.91,4.96-6.91ZM229.61,55.21c2.04,0,2.13-2.9,2.13-4.3s-.09-4.3-2.13-4.3-2.13,2.9-2.13,4.3.09,4.3,2.13,4.3Z"/>
  </g>
</svg>